<?xml version="1.0" encoding="utf-8"?>
<!-- Generator: Adobe Illustrator 25.4.1, SVG Export Plug-In . SVG Version: 6.00 Build 0)  -->
<svg version="1.1" id="Layer_1" xmlns="http://www.w3.org/2000/svg" xmlns:xlink="http://www.w3.org/1999/xlink" x="0px" y="0px"
	 viewBox="0 0 9000 4000" style="enable-background:new 0 0 9000 4000;" xml:space="preserve">
<style type="text/css">
	.st0{fill-rule:evenodd;clip-rule:evenodd;fill:#E0E0E0;}
	.st1{fill:#E0E0E0;}
</style>
<path class="st0" d="M71.92,57.14L84.7,7.91l-9.97,38.16C73.75,49.79,72.88,53.43,71.92,57.14 M59.9,122.98l12.78-49.23l-9.97,38.16
	C61.73,115.64,60.86,119.28,59.9,122.98z M47.87,188.84l12.79-49.23l-9.97,38.15C49.71,181.48,48.84,185.12,47.87,188.84z
	 M35.85,254.68l12.79-49.23l-9.98,38.16C37.69,247.34,36.79,250.99,35.85,254.68z M27.7,305.46l-0.03,0.42l8.95-34.58L27.7,305.46z
	 M0,2000.47v14.54c235.91,614.25,792.38,927.02,1469.33,1104.8c532.52,139.85,1139.51,196.2,1723.29,250.37
	c678.3,62.96,1325.27,123.01,1787.27,307.8c200.61,80.25,366.31,184.1,484.54,322.02h6.74
	c-118.95-140.08-286.38-245.37-489.46-326.59c-462.63-185.06-1109.96-245.14-1788.66-308.13
	c-583.53-54.16-1190.28-110.49-1722.48-250.24C790.74,2936.49,232.61,2621.52,0,2000.47z M0,1901.24v15.93
	c228.66,635.51,792.72,955.94,1481.35,1136.79c532.52,139.85,1139.51,196.2,1723.3,250.37
	c678.3,62.96,1325.28,123.01,1787.27,307.81c231.35,92.54,416.25,216.49,535.46,387.86h6.35
	c-119.71-173.59-306.26-298.95-539.99-392.44c-462.63-185.06-1109.96-245.14-1788.65-308.14
	c-583.54-54.16-1190.28-110.48-1722.48-250.24C790.7,2867.47,224.91,2544.41,0,1901.24z M0,1799.65v16.87
	C220.37,2475.17,792.3,2804,1493.37,2988.11c532.52,139.85,1139.52,196.19,1723.3,250.37c678.3,62.96,1325.27,123.01,1787.26,307.81
	c260,104,461.35,247.63,576.7,453.7h5.97c-115.67-208.32-318.54-353.36-580.84-458.29c-462.63-185.05-1109.97-245.14-1788.66-308.13
	c-583.53-54.16-1190.28-110.48-1722.48-250.24C790.02,2798.29,216.23,2466.64,0,1799.65z M0,1695.2v17.92
	c210.96,683.74,791.13,1021.57,1505.39,1209.15c532.52,139.85,1139.52,196.19,1723.29,250.37
	c678.3,62.96,1325.27,123.01,1787.26,307.8c286.84,114.74,502.28,277.72,609.62,519.55h5.81
	c-107.52-244.12-324.49-408.49-613.59-524.13c-462.63-185.05-1109.96-245.14-1788.66-308.13
	c-583.53-54.16-1190.28-110.48-1722.47-250.25C788.56,2728.91,206.34,2388.08,0,1695.2z M0,1587.08v19.38
	c200.19,711.18,789.09,1058.69,1517.41,1249.96c532.52,139.85,1139.51,196.2,1723.29,250.37
	c678.3,62.96,1325.27,123.01,1787.27,307.8c312.13,124.86,539.75,306.83,635.49,585.4h5.6
	c-95.82-280.87-324.88-464.24-639.25-589.98c-462.63-185.06-1109.97-245.14-1788.65-308.13
	c-583.53-54.16-1190.28-110.49-1722.48-250.24C786.14,2659.26,194.94,2308.47,0,1587.08z M0,1474.14v21.42
	C187.68,2237.2,785.89,2595.3,1529.43,2790.57c532.52,139.85,1139.51,196.2,1723.3,250.37
	c678.3,62.96,1325.27,123.01,1787.26,307.81c336.07,134.43,574.14,335.11,655.14,651.25h5.43
	c-80.98-318.46-320.45-520.52-658.73-655.82c-462.63-185.06-1109.97-245.14-1788.65-308.14
	c-583.53-54.16-1190.28-110.48-1722.48-250.24C782.4,2589.28,181.61,2227.44,0,1474.14z M0,1354.8v24.46
	c172.93,775.97,781.25,1145.82,1541.46,1345.47c532.52,139.85,1139.51,196.19,1723.29,250.37
	c678.3,62.96,1325.27,123.01,1787.27,307.8c358.85,143.54,606,362.59,669.46,717.1h5.26c-63.36-356.85-311.85-577.26-672.88-721.68
	c-462.63-185.05-1109.97-245.14-1788.66-308.13c-583.53-54.16-1190.28-110.48-1722.47-250.24
	C776.93,2518.84,165.64,2144.57,0,1354.8z M0,1226.82v28.78c155.09,815.6,774.6,1198.73,1553.48,1403.28
	c532.52,139.85,1139.51,196.19,1723.29,250.37c678.3,62.96,1325.27,123.01,1787.27,307.8c380.57,152.22,635.54,389.35,678.98,782.94
	h5.18c-43.3-395.92-299.59-634.42-682.33-787.52c-462.63-185.06-1109.97-245.14-1788.66-308.13
	c-583.53-54.16-1190.28-110.49-1722.48-250.25C769.12,2447.78,146.05,2059.28,0,1226.82z M0,1082.45v36.53
	c132.06,864.35,764.45,1263.68,1565.5,1474.05c532.52,139.85,1139.51,196.2,1723.29,250.37
	c678.3,62.96,1325.28,123.01,1787.27,307.81c401.34,160.54,663.01,415.48,684.21,848.79h5.09
	c-20.99-435.65-283.96-691.97-687.47-853.37c-462.63-185.05-1109.96-245.14-1788.65-308.14
	c-583.54-54.16-1190.28-110.48-1722.48-250.24C756.88,2375.57,119.84,1969.19,0,1082.45z M0,906.81v53.66
	c99.94,928.77,748.38,1348.97,1577.51,1566.72c532.52,139.85,1139.52,196.2,1723.3,250.37
	c678.3,62.96,1325.27,123.01,1787.27,307.81c421.25,168.49,688.56,441.05,685.5,914.63h5.11
	c3.29-475.93-265.35-749.85-688.77-919.22c-462.63-185.05-1109.97-245.14-1788.66-308.13
	c-583.54-54.16-1190.28-110.48-1722.48-250.24C736.17,2301.13,80.6,1870.26,0,906.81z M0,343.72l3.52-18.73
	c3.77-21.73,7.81-43.72,12.02-65.84c3.75-21.72,7.83-43.73,12.02-65.85c3.77-21.72,7.81-43.7,12.03-65.84
	c3.77-21.73,7.8-43.7,12.02-65.84C55.1,41.29,58.91,20.68,62.81,0h47.6c-26.26,106.23-54.6,217.62-85.09,334.37
	C-76.77,1612.75,641.26,2138.2,1602.82,2390.72c532.2,139.76,1138.95,196.09,1722.48,250.25
	c678.69,62.99,1326.02,123.07,1788.65,308.13c461.04,184.4,738.56,492.74,681.34,1050.91h-5.03
	c56.95-555.82-219.28-862.79-678.13-1046.33c-462-184.8-1108.97-244.85-1787.27-307.8c-583.78-54.18-1190.78-110.53-1723.29-250.37
	C644.68,2144.19-71.82,1623.52,18.02,362.35l-2.35,8.96C-99.66,1670.75,622.02,2202.14,1590.8,2456.57
	c532.2,139.77,1138.94,196.09,1722.48,250.24c678.69,62.99,1326.03,123.08,1788.66,308.13
	c442.57,177.03,716.03,468.29,686.62,985.06h-5.02c29.18-514.46-243.02-804.32-683.44-980.48
	c-461.99-184.8-1108.96-244.85-1787.26-307.8c-583.78-54.18-1190.78-110.53-1723.3-250.37C709.67,2230.26,33.32,1771.16,0,718.25
	V551.81c1.46-49.32,4.15-99.77,8.28-151.55l-1.86,7.27c-2.5,25.6-4.56,50.81-6.43,75.83V343.72z M5389.74,4000
	c-111.47-105.84-254.52-189.22-421.87-256.17c-461.99-184.8-1108.96-244.85-1787.27-307.8
	c-583.78-54.18-1190.78-110.53-1723.29-250.38C791.62,3010.83,242.42,2705.49,0,2111.28v-13.86
	c239.42,600.5,790.15,907.92,1458.57,1083.46c532.2,139.77,1138.94,196.09,1722.48,250.24
	c678.69,62.99,1326.02,123.08,1788.66,308.13c169.94,67.97,314.94,152.8,427.45,260.75H5389.74z"/>
<path class="st0" d="M1423.06,85.26l-0.07-0.34l-0.9,6.34l0.03,0.17L1423.06,85.26z M1425.13,106.14l1.1-6.92l-0.18-0.77l-1.03,7.12
	L1425.13,106.14z M1422.12,125.9l0.94-6.17l-0.07-0.35l-0.9,6.34L1422.12,125.9z M9000,270.39v-5.18
	C8710.11,310.32,8341.16,240.53,7872.08,0h-10.86C8335.07,244.47,8707.53,315.63,9000,270.39z M9000,304.85v-5.18
	C8696.66,346.89,8306.81,268.42,7806.19,0h-10.31C8301,272.22,8694.22,352.16,9000,304.85z M9000,339.32v-5.18
	c-312.99,48.71-718.06-36.37-1241.89-325.85c-5.12-2.83-10.16-5.49-15.27-8.29h-10.34c7.75,4.23,15.44,8.31,23.23,12.61
	C8280.25,302.47,8686.16,387.87,9000,339.32z M9000,373.79v-5.18c-312.99,48.71-718.06-36.37-1241.89-325.85
	c-26.69-14.75-53.09-28.9-79.35-42.76h-10.64c28.98,15.23,58.12,30.78,87.62,47.08C8280.25,336.94,8686.16,422.34,9000,373.79z
	 M9000,408.26v-5.18c-312.99,48.7-718.06-36.37-1241.89-325.85c-49.43-27.32-98.04-52.92-146.03-77.23h-10.96
	c50.77,25.57,102.24,52.59,154.62,81.54C8280.25,371.41,8686.16,456.81,9000,408.26z M9000,442.73v-5.18
	c-312.99,48.7-718.06-36.37-1241.89-325.86C7684.59,71.06,7612.8,34.03,7542.43,0h-11.34c73.21,35.17,148,73.66,224.64,116.01
	C8280.25,405.88,8686.16,491.28,9000,442.73z M9000,477.19v-5.18c-312.99,48.71-718.06-36.37-1241.89-325.85
	C7658.95,91.36,7562.84,42.9,7469.34,0h-11.76c96.42,43.9,195.68,93.85,298.15,150.48C8280.25,440.35,8686.16,525.74,9000,477.19z
	 M9000,511.65v-5.17c-312.99,48.7-718.06-36.37-1241.89-325.86C7631.5,110.66,7509.74,50.74,7392.23,0h-12.74
	c120.72,51.66,245.88,112.91,376.24,184.95C8280.25,474.81,8686.16,560.21,9000,511.65z M9000,546.12v-5.18
	c-312.99,48.7-718.06-36.37-1241.89-325.86C7601.4,128.5,7452.2,57.46,7309.23,0h-13.35c146.31,58.17,299.13,130.59,459.85,219.42
	C8280.25,509.28,8686.16,594.68,9000,546.12z M9000,580.59v-5.17c-312.99,48.7-718.06-36.37-1241.89-325.86
	C7568.58,144.83,7389.94,62.63,7220.14,0h-14.66c173.47,63.1,356.12,146.6,550.26,253.88C8280.25,543.74,8686.16,629.14,9000,580.59
	z M9000,615.06v-5.17c-312.99,48.7-718.06-36.37-1241.89-325.86C7531.45,158.77,7320.39,65.84,7121.38,0h-15.65
	c202.86,65.97,418.3,160.3,650,288.35C8280.25,578.21,8686.16,663.61,9000,615.06z M9000,649.53v-5.18
	c-312.99,48.71-718.06-36.37-1241.89-325.85C7488.61,169.57,7241.14,66.28,7009.82,0h-18.09c235.79,65.93,488.38,170.51,764,322.82
	C8280.25,612.68,8686.16,698.08,9000,649.53z M9000,683.99v-5.17c-312.99,48.7-718.06-36.37-1241.89-325.86
	C7436.32,175.13,7145.89,62.31,6876.93,0h-22.84c274.66,61.06,571.63,174.92,901.64,357.29
	C8280.25,647.15,8686.16,732.54,9000,683.99z M9000,718.46v-5.18c-312.99,48.71-718.06-36.36-1241.89-325.85
	C7364.02,169.65,7016.95,49.32,6698.8,0h-34.51c326.86,45.78,684,166.59,1091.44,391.76C8280.25,681.61,8686.16,767.01,9000,718.46z
	 M7940.9,0c436.53,212.73,783.54,273.63,1059.1,230.74v5.17C8721.79,278.96,8371.16,216.61,7929.76,0H7940.9z M1448.02,0
	c-5.86,32.37-11.48,65.4-16.77,98.98c109.88,468.94,460.56,813.6,1340.62,643.27c749.9-145.14,1331.1-435.3,1860.65-699.7L4717.85,0
	h11.09c-31.24,15.54-62.63,31.22-94.21,46.98C4104.9,311.51,3523.39,601.82,2772.8,747.1
	c-876.37,169.62-1230.04-169.8-1343.56-635.23l-1.16,7.65c106.2,476,455.05,829.21,1343.8,657.2
	c749.9-145.14,1331.1-435.3,1860.65-699.69c52.05-25.99,103.58-51.7,154.75-77.03h11.15c-54.1,26.75-108.61,53.95-163.69,81.45
	C4104.9,345.98,3523.39,636.29,2772.8,781.57C1888.02,952.82,1536.03,605.2,1426.04,132.91l-1.03,7.12
	c102.48,483.04,449.44,844.85,1346.87,671.16c749.9-145.14,1331.1-435.3,1860.65-699.7C4708.36,73.63,4783.13,36.3,4857.19,0h11.27
	c-77.03,37.69-154.8,76.51-233.73,115.92C4104.9,380.45,3523.39,670.76,2772.8,816.04C1879.6,988.92,1529.39,633,1422.98,153.86
	l-0.9,6.34c98.66,490.16,443.54,860.85,1349.79,685.46c749.9-145.14,1331.1-435.31,1860.65-699.69
	C4732.62,95.99,4830.83,46.98,4928.03,0h11.36c-100.18,48.31-201.43,98.84-304.66,150.38C4104.9,414.91,3523.39,705.23,2772.8,850.5
	C1871.26,1025,1522.86,660.79,1420.03,174.88l-0.76,5.51l0.72,3.86c95.85,495.31,439.22,872.52,1351.89,695.87
	c749.9-145.14,1331.1-435.31,1860.65-699.69C4757.37,118.1,4879.34,57.23,4999.98,0h11.59c-123.71,58.5-248.75,120.9-376.83,184.85
	C4104.9,449.38,3523.39,739.69,2772.8,884.97c-910.01,176.13-1256.4-196.63-1355.56-689.38l-0.64,4.81
	c1.1,6.11,2.21,12.23,3.39,18.32c95.85,495.31,439.22,872.51,1351.89,695.87c749.9-145.14,1331.1-435.31,1860.65-699.7
	c150.24-75,296.32-147.92,440.93-214.89h11.82c-147.75,68.16-296.97,142.65-450.54,219.32
	C4104.9,483.85,3523.39,774.16,2772.8,919.44c-916.43,177.37-1261.31-201.88-1357.67-699.8l-0.59-3.21l-0.49,3.86
	c1.87,11.01,3.82,21.99,5.93,32.89c95.85,495.31,439.22,872.52,1351.89,695.87c749.9-145.14,1331.1-435.31,1860.65-699.7
	C4808.99,161.26,4979.72,76.08,5149.05,0h12.07c-172.58,77.15-346.5,163.97-526.39,253.79
	C4104.9,518.31,3523.39,808.63,2772.8,953.91c-916.43,177.37-1261.31-201.88-1357.67-699.8c-1.1-5.66-2.12-11.36-3.15-17.05
	l-0.37,3.13c2.55,15.93,5.34,31.76,8.38,47.47c95.85,495.31,439.22,872.51,1351.89,695.87c749.9-145.14,1331.1-435.3,1860.65-699.7
	C4836.17,182.17,5032.17,84.36,5227.22,0h12.53c-198.45,85.32-397.78,184.79-605.02,288.25
	C4104.9,552.78,3523.39,843.1,2772.8,988.38c-916.43,177.37-1261.31-201.89-1357.67-699.8c-1.98-10.24-3.83-20.55-5.6-30.89
	l-0.21,1.95c3.16,21,6.68,41.86,10.67,62.49c95.85,495.31,439.22,872.51,1351.89,695.87c749.9-145.14,1331.1-435.3,1860.65-699.7
	C4864.55,202.46,5086.67,91.61,5308.73,0h13.12c-225.71,92.41-451.3,204.98-687.12,322.72
	C4104.9,587.25,3523.39,877.57,2772.8,1022.84c-916.43,177.37-1261.31-201.89-1357.67-699.8c-2.86-14.79-5.48-29.7-7.91-44.69
	l-0.09,0.84c3.67,26.07,7.92,51.9,12.86,77.4c95.85,495.3,439.22,872.52,1351.89,695.87c749.9-145.14,1331.1-435.3,1860.65-699.69
	C4894.48,221.99,5143.82,97.55,5394.71,0h13.87c-254.84,98.11-507.82,224.38-773.85,357.19
	C4104.9,621.72,3523.39,912.03,2772.8,1057.31c-916.43,177.37-1261.31-201.89-1357.67-699.8c-3.41-17.66-6.5-35.48-9.3-53.41
	c3.95,29.31,8.62,58.34,14.16,86.96c95.85,495.3,439.22,872.51,1351.89,695.87c749.9-145.14,1331.1-435.3,1860.65-699.7
	C4926.46,240.48,5204.52,101.73,5486.69,0h14.83C5215,102.01,4933.06,242.72,4634.73,391.65
	C4104.9,656.18,3523.39,946.5,2772.8,1091.78c-916.43,177.37-1261.31-201.89-1357.67-699.8c-3.41-17.66-6.5-35.48-9.3-53.41
	c3.93,29.32,8.62,58.34,14.16,86.96c95.85,495.3,439.22,872.51,1351.89,695.87c749.9-145.14,1331.1-435.3,1860.65-699.69
	C4961.21,257.6,5270.04,103.5,5586.99,0h16.08c-321.83,103.37-634.85,259.63-968.34,426.12
	C4104.9,690.65,3523.39,980.97,2772.8,1126.25c-916.43,177.37-1261.31-201.89-1357.67-699.8c-3.41-17.66-6.51-35.47-9.3-53.42
	c3.94,29.33,8.62,58.35,14.16,86.97c95.85,495.3,439.22,872.51,1351.89,695.87c749.9-145.14,1331.1-435.3,1860.65-699.69
	C4999.98,272.71,5342.61,101.7,5699.52,0h18.71c-362.87,100.91-710.38,274.31-1083.49,460.59
	c-529.84,264.53-1111.34,554.84-1861.94,700.12c-916.43,177.37-1261.31-201.88-1357.67-699.8c-3.41-17.66-6.5-35.48-9.3-53.42
	c3.93,29.33,8.62,58.35,14.16,86.97c95.85,495.3,439.22,872.51,1351.89,695.87c749.9-145.14,1331.1-435.3,1860.65-699.7
	C5045.45,284.48,5427.04,94.02,5832.75,0h22.99c-413.54,91.98-801.04,285.38-1221.01,495.06
	C4104.9,759.59,3523.39,1049.9,2772.8,1195.18c-916.43,177.37-1261.31-201.88-1357.67-699.8c-3.41-17.66-6.51-35.48-9.3-53.42
	c3.93,29.33,8.62,58.35,14.16,86.97c95.85,495.3,439.22,872.51,1351.89,695.87c749.9-145.14,1331.1-435.3,1860.65-699.69
	C5105.06,289.19,5536.55,73.8,6010.13,0h34.89c-486.54,68.38-926.9,288.19-1410.29,529.52
	c-529.84,264.53-1111.34,554.84-1861.94,700.12c-916.43,177.37-1261.31-201.88-1357.67-699.79c-3.41-17.66-6.5-35.48-9.3-53.42
	c3.94,29.33,8.62,58.35,14.16,86.97c95.85,495.3,439.22,872.51,1351.89,695.87c749.9-145.14,1331.1-435.31,1860.65-699.69
	c973.65-486.1,1772.97-885.15,3125.58-137.67C8281.94,711.38,8687.01,796.46,9000,747.75v5.18
	c-313.84,48.55-719.75-36.85-1244.27-326.72c-1350.35-746.24-2148.62-347.69-3121,137.78
	c-529.84,264.53-1111.34,554.84-1861.94,700.12c-916.43,177.37-1261.31-201.88-1357.67-699.8c-3.41-17.66-6.51-35.48-9.3-53.42
	c3.94,29.32,8.62,58.35,14.16,86.96c95.85,495.31,439.22,872.51,1351.89,695.87c749.9-145.14,1331.1-435.31,1860.65-699.7
	c973.65-486.1,1772.97-885.16,3125.58-137.67C8281.94,745.85,8687.01,830.93,9000,782.22v5.18
	c-313.84,48.55-719.75-36.85-1244.27-326.72c-1350.35-746.23-2148.62-347.69-3121,137.78
	C4104.9,862.99,3523.39,1153.3,2772.8,1298.58c-916.43,177.37-1261.31-201.88-1357.67-699.8c-3.41-17.66-6.5-35.48-9.3-53.42
	c3.94,29.32,8.62,58.35,14.16,86.96c95.85,495.31,439.22,872.52,1351.89,695.87c749.9-145.14,1331.1-435.31,1860.65-699.7
	c973.65-486.09,1772.97-885.16,3125.58-137.66C8281.94,780.32,8687.01,865.39,9000,816.69v5.18
	c-313.84,48.55-719.75-36.85-1244.27-326.72c-1350.35-746.24-2148.62-347.69-3121,137.78
	c-529.84,264.53-1111.34,554.84-1861.94,700.12c-916.43,177.37-1261.31-201.88-1357.67-699.8c-3.41-17.66-6.51-35.48-9.3-53.42
	c3.95,29.32,8.62,58.35,14.16,86.96c95.85,495.31,439.22,872.51,1351.89,695.87c749.9-145.14,1331.1-435.31,1860.65-699.7
	c973.65-486.09,1772.97-885.15,3125.58-137.67C8281.94,814.79,8687.01,899.86,9000,851.16v5.18
	c-313.84,48.55-719.75-36.85-1244.27-326.72c-1350.35-746.23-2148.62-347.69-3121,137.78
	c-529.84,264.52-1111.34,554.84-1861.94,700.12c-916.43,177.37-1261.31-201.88-1357.67-699.8c-3.41-17.65-6.5-35.48-9.3-53.41
	c3.94,29.32,8.62,58.34,14.16,86.96c95.85,495.31,439.22,872.51,1351.89,695.87c749.9-145.14,1331.1-435.3,1860.65-699.69
	c973.65-486.1,1772.97-885.16,3125.58-137.67C8281.94,849.25,8687.01,934.33,9000,885.62v5.17
	c-313.84,48.56-719.75-36.84-1244.27-326.71c-1350.35-746.24-2148.62-347.69-3121,137.77
	c-529.84,264.53-1111.34,554.85-1861.94,700.13c-916.43,177.37-1261.31-201.89-1357.67-699.8c-3.41-17.65-6.51-35.47-9.3-53.41
	c3.94,29.32,8.62,58.34,14.16,86.96c95.85,495.31,439.22,872.52,1351.89,695.87c749.9-145.13,1331.1-435.3,1860.65-699.69
	c973.65-486.09,1772.97-885.16,3125.58-137.67C8281.94,883.72,8687.01,968.8,9000,920.09v5.18
	c-313.84,48.56-719.75-36.85-1244.27-326.71c-1350.35-746.24-2148.62-347.69-3121,137.77
	c-529.84,264.53-1111.34,554.85-1861.94,700.13c-916.43,177.37-1261.31-201.89-1357.67-699.8c-3.41-17.65-6.5-35.48-9.3-53.41
	c3.95,29.32,8.62,58.34,14.16,86.96c95.85,495.3,439.22,872.51,1351.89,695.87c749.9-145.14,1331.1-435.3,1860.65-699.7
	c973.65-486.09,1772.97-885.15,3125.58-137.67c523.83,289.49,928.91,374.56,1241.89,325.86v5.17
	c-313.84,48.55-719.75-36.85-1244.27-326.71c-1350.35-746.23-2148.62-347.69-3121,137.77
	c-529.84,264.53-1111.34,554.85-1861.94,700.13c-916.43,177.37-1261.31-201.89-1357.67-699.8c-3.41-17.66-6.5-35.48-9.3-53.41
	c3.95,29.32,8.62,58.34,14.16,86.96c95.85,495.3,439.22,872.51,1351.89,695.87c749.9-145.14,1331.1-435.3,1860.65-699.69
	c973.65-486.1,1772.97-885.16,3125.58-137.67c523.83,289.49,928.91,374.56,1241.89,325.86v5.17
	c-313.84,48.55-719.75-36.85-1244.27-326.71c-1350.35-746.24-2148.62-347.69-3121,137.77
	c-529.84,264.53-1111.34,554.85-1861.94,700.13c-916.43,177.37-1261.31-201.89-1357.67-699.8c-3.41-17.66-6.5-35.48-9.3-53.42
	c3.94,29.32,8.62,58.34,14.16,86.96c95.85,495.3,439.22,872.52,1351.89,695.87c749.9-145.14,1331.1-435.3,1860.65-699.69
	c973.65-486.09,1772.97-885.15,3125.58-137.67c523.83,289.49,928.91,374.56,1241.89,325.85v5.18
	c-313.84,48.55-719.75-36.85-1244.27-326.71c-1350.35-746.24-2148.62-347.69-3121,137.77
	c-529.84,264.53-1111.34,554.85-1861.94,700.13c-916.43,177.37-1261.31-201.89-1357.67-699.8c-3.41-17.66-6.5-35.48-9.3-53.42
	c3.94,29.33,8.62,58.35,14.16,86.97c95.85,495.3,439.22,872.51,1351.89,695.87c749.9-145.14,1331.1-435.3,1860.65-699.7
	c973.65-486.1,1772.97-885.15,3125.58-137.67c523.83,289.49,928.91,374.56,1241.89,325.86v5.17
	c-313.84,48.55-719.75-36.85-1244.27-326.71C6405.39-9.81,5607.12,388.74,4634.73,874.2
	c-529.84,264.53-1111.34,554.84-1861.94,700.12c-916.43,177.37-1261.31-201.88-1357.67-699.8c-3.41-17.66-6.51-35.47-9.3-53.42
	c3.94,29.33,8.62,58.35,14.16,86.97c95.85,495.3,439.22,872.51,1351.89,695.87c749.9-145.14,1331.1-435.3,1860.65-699.69
	c973.65-486.1,1772.97-885.16,3125.58-137.67c523.83,289.49,928.91,374.56,1241.89,325.86v5.18
	c-313.84,48.55-719.75-36.85-1244.27-326.71c-1350.35-746.24-2148.62-347.7-3121,137.77
	c-529.84,264.53-1111.34,554.84-1861.94,700.12c-916.43,177.37-1261.31-201.88-1357.67-699.8c-3.41-17.66-6.49-35.48-9.3-53.42
	c3.94,29.33,8.62,58.35,14.16,86.97c95.85,495.3,439.22,872.51,1351.89,695.87c749.9-145.14,1331.1-435.3,1860.65-699.69
	c973.65-486.1,1772.97-885.15,3125.58-137.67c523.83,289.49,928.91,374.56,1241.89,325.85v5.18
	c-313.84,48.55-719.75-36.85-1244.27-326.71c-1350.35-746.24-2148.62-347.7-3121,137.77
	c-529.84,264.53-1111.34,554.84-1861.94,700.12c-916.43,177.37-1261.31-201.88-1357.67-699.8
	c-22.94-118.51-31.75-243.74-30.84-369.77c-0.08-11.48-0.07-22.98,0-34.47c-0.08-11.48-0.08-22.98,0-34.47
	c-0.07-11.48-0.08-22.96,0-34.47c-0.08-11.48-0.07-22.97,0-34.47c-0.08-11.48-0.07-22.97,0-34.47c-0.07-11.48-0.08-22.97,0-34.47
	c-0.08-11.48-0.07-22.97,0-34.47c-0.08-11.48-0.07-22.97,0-34.47c-0.08-11.48-0.08-22.97,0-34.47c-0.08-11.48-0.08-22.97,0-34.46
	c-0.08-11.48-0.08-22.98,0-34.47c-0.08-11.48-0.07-22.98,0-34.47c-0.08-11.48-0.08-22.98,0-34.47c-0.08-11.48-0.08-22.98,0-34.47
	c-0.08-11.48-0.08-22.97,0-34.47c-0.08-11.48-0.08-22.97,0-34.47c-0.05-7.39-0.07-14.8-0.05-22.2h41.1
	c-1.34,9.02-2.64,18.08-3.92,27.17c1.35-9.1,2.74-18.16,4.15-27.17h5.01c-2.94,18.78-5.78,37.71-8.49,56.79l0.03,0.17
	c2.89-19.16,5.88-38.15,8.99-56.96h5c-3.86,23.41-7.58,47.14-11.11,71.09l0.12,0.58c3.77-24.19,7.7-48.1,11.78-71.68h5.02
	c-4.83,27.92-9.47,56.3-13.84,85.05l0.23,1.05c4.68-29.17,9.6-57.89,14.71-86.11H1448.02z"/>
<path class="st1" d="M6029.97,2505.45c-41.37-38.38-52.77-67.96-40.07-90.71c43.1-77.18,368.97-71.34,739.75-64.68
	c374.67,6.71,795.37,14.26,1014.45-61.37c115.39-39.83,174.5-102.83,140.47-201.38c-35.75-103.57-12.28-182.48,51.63-235.14
	c56.21-46.31,143.77-72.15,249.72-76.45c105.69-4.29,229.82,12.82,359.52,52.36c2.83,0.87,5.66,1.77,8.5,2.66
	c-10.13-3.33-20.24-6.59-30.31-9.66c-129.13-39.38-252.71-56.42-357.9-52.14c-104.9,4.26-191.43,29.73-246.79,75.33
	c-62.27,51.3-85.08,128.38-50.1,229.72c35.19,101.92-25.26,166.83-143.52,207.66c-219.92,75.92-641.06,68.36-1016.13,61.64
	c-369.22-6.62-693.71-12.44-735.36,62.16C5960.55,2429.21,5976.61,2461.63,6029.97,2505.45 M6050.36,2517.16
	c-41.38-38.38-52.78-67.95-40.07-90.7c43.1-77.18,368.96-71.34,739.75-64.69c374.67,6.72,795.36,14.26,1014.45-61.37
	c115.39-39.83,174.5-102.83,140.47-201.38c-35.76-103.57-12.28-182.48,51.63-235.13c56.21-46.32,143.76-72.16,249.72-76.46
	c105.68-4.29,229.82,12.83,359.52,52.37c2.83,0.87,5.66,1.77,8.5,2.67c-10.13-3.34-20.24-6.6-30.31-9.66
	c-129.14-39.38-252.71-56.42-357.9-52.15c-104.9,4.26-191.43,29.73-246.8,75.33c-62.27,51.3-85.08,128.38-50.09,229.72
	c35.18,101.92-25.26,166.83-143.52,207.65c-219.92,75.92-641.07,68.36-1016.13,61.64c-369.22-6.63-693.71-12.45-735.37,62.15
	C5980.94,2440.91,5997,2473.34,6050.36,2517.16z M6070.74,2528.87c-41.38-38.38-52.76-67.96-40.07-90.7
	c43.09-77.18,368.96-71.34,739.75-64.69c374.68,6.72,795.37,14.26,1014.44-61.37c115.4-39.83,174.5-102.84,140.48-201.39
	c-35.76-103.57-12.28-182.48,51.62-235.13c56.21-46.31,143.77-72.16,249.73-76.46c105.68-4.3,229.82,12.82,359.51,52.36
	c2.83,0.86,5.67,1.78,8.5,2.66c-10.13-3.35-20.24-6.6-30.31-9.66c-129.14-39.38-252.72-56.42-357.9-52.15
	c-104.91,4.26-191.44,29.73-246.79,75.33c-62.27,51.3-85.08,128.38-50.09,229.72c35.19,101.92-25.26,166.83-143.52,207.65
	c-219.92,75.92-641.07,68.37-1016.14,61.64c-369.21-6.62-693.71-12.45-735.36,62.15
	C6001.32,2452.63,6017.38,2485.05,6070.74,2528.87z M6091.12,2540.58c-41.37-38.38-52.77-67.96-40.07-90.71
	c43.1-77.18,368.96-71.34,739.75-64.69c374.67,6.71,795.37,14.26,1014.45-61.37c115.39-39.83,174.5-102.83,140.47-201.39
	c-35.76-103.57-12.28-182.47,51.63-235.13c56.21-46.31,143.77-72.15,249.72-76.46c105.69-4.3,229.82,12.82,359.52,52.37
	c2.83,0.86,5.66,1.77,8.5,2.66c-10.13-3.35-20.24-6.59-30.31-9.66c-129.13-39.38-252.71-56.42-357.9-52.15
	c-104.9,4.27-191.43,29.73-246.79,75.33c-62.27,51.3-85.08,128.37-50.1,229.72c35.19,101.91-25.26,166.83-143.52,207.65
	c-219.92,75.92-641.06,68.37-1016.13,61.64c-369.22-6.62-693.71-12.44-735.37,62.16
	C6021.71,2464.34,6037.76,2496.76,6091.12,2540.58z M6111.5,2552.29c-41.37-38.37-52.77-67.96-40.07-90.71
	c43.09-77.18,368.96-71.34,739.75-64.68c374.67,6.71,795.36,14.26,1014.45-61.37c115.39-39.83,174.49-102.83,140.47-201.38
	c-35.76-103.57-12.28-182.48,51.63-235.14c56.21-46.31,143.76-72.15,249.72-76.46c105.68-4.3,229.82,12.82,359.51,52.36
	c2.83,0.87,5.67,1.77,8.5,2.66c-10.13-3.34-20.24-6.59-30.31-9.66c-129.14-39.38-252.71-56.41-357.9-52.14
	c-104.9,4.26-191.43,29.73-246.8,75.33c-62.27,51.3-85.08,128.38-50.09,229.72c35.19,101.92-25.26,166.83-143.52,207.66
	c-219.92,75.92-641.07,68.36-1016.13,61.64c-369.22-6.62-693.71-12.44-735.37,62.16C6042.08,2476.04,6058.15,2508.47,6111.5,2552.29
	z M6131.89,2564c-41.37-38.38-52.77-67.95-40.08-90.7c43.1-77.18,368.97-71.34,739.75-64.69c374.68,6.72,795.37,14.26,1014.44-61.38
	c115.39-39.83,174.5-102.83,140.47-201.38c-35.75-103.57-12.28-182.48,51.63-235.13c56.21-46.32,143.77-72.16,249.72-76.46
	c105.69-4.3,229.82,12.83,359.52,52.36c2.83,0.87,5.66,1.77,8.5,2.67c-10.14-3.35-20.24-6.6-30.32-9.66
	c-129.13-39.38-252.71-56.42-357.89-52.15c-104.9,4.26-191.44,29.73-246.79,75.33c-62.27,51.3-85.08,128.38-50.1,229.72
	c35.19,101.92-25.26,166.83-143.52,207.65c-219.92,75.92-641.06,68.36-1016.13,61.64c-369.21-6.63-693.71-12.45-735.36,62.15
	C6062.46,2487.75,6078.53,2520.18,6131.89,2564z M6152.27,2575.71c-41.38-38.38-52.78-67.96-40.07-90.7
	c43.1-77.18,368.96-71.34,739.75-64.69c374.67,6.72,795.37,14.26,1014.45-61.37c115.39-39.83,174.5-102.84,140.47-201.39
	c-35.76-103.57-12.28-182.48,51.63-235.13c56.21-46.31,143.76-72.16,249.72-76.46c105.68-4.29,229.82,12.82,359.52,52.37
	c2.83,0.86,5.66,1.77,8.5,2.66c-10.13-3.35-20.24-6.6-30.31-9.66c-129.14-39.38-252.71-56.42-357.9-52.15
	c-104.9,4.26-191.44,29.73-246.79,75.33c-62.27,51.3-85.09,128.38-50.1,229.72c35.19,101.92-25.26,166.83-143.52,207.65
	c-219.92,75.92-641.06,68.37-1016.13,61.64c-369.22-6.62-693.71-12.45-735.37,62.15
	C6082.85,2499.47,6098.92,2531.89,6152.27,2575.71z M6172.65,2587.42c-41.37-38.38-52.77-67.96-40.07-90.71
	c43.09-77.18,368.96-71.34,739.75-64.69c374.67,6.71,795.36,14.26,1014.44-61.37c115.4-39.83,174.5-102.83,140.47-201.39
	c-35.76-103.57-12.28-182.47,51.63-235.13c56.21-46.31,143.77-72.15,249.72-76.46c105.69-4.29,229.82,12.82,359.51,52.36
	c2.83,0.87,5.67,1.77,8.5,2.66c-10.12-3.35-20.24-6.59-30.31-9.66c-129.14-39.38-252.72-56.42-357.9-52.15
	c-104.9,4.27-191.43,29.73-246.8,75.33c-62.27,51.3-85.08,128.37-50.09,229.72c35.19,101.91-25.26,166.83-143.52,207.65
	c-219.92,75.92-641.07,68.37-1016.14,61.64c-369.21-6.62-693.7-12.44-735.36,62.16C6103.24,2511.18,6119.3,2543.6,6172.65,2587.42z
	 M6193.04,2599.13c-41.37-38.38-52.78-67.95-40.08-90.71c43.1-77.18,368.96-71.34,739.75-64.68
	c374.67,6.71,795.37,14.26,1014.44-61.37c115.39-39.83,174.5-102.83,140.47-201.38c-35.76-103.57-12.28-182.48,51.63-235.14
	c56.21-46.31,143.77-72.15,249.72-76.46c105.69-4.29,229.83,12.82,359.52,52.37c2.83,0.87,5.66,1.77,8.5,2.66
	c-10.12-3.34-20.24-6.59-30.31-9.66c-129.13-39.38-252.71-56.41-357.9-52.14c-104.9,4.26-191.43,29.73-246.79,75.33
	c-62.27,51.3-85.08,128.38-50.1,229.72c35.19,101.92-25.26,166.83-143.52,207.66c-219.91,75.92-641.06,68.36-1016.13,61.64
	c-369.22-6.62-693.71-12.44-735.36,62.16C6123.62,2522.88,6139.69,2555.31,6193.04,2599.13z M6213.42,2610.84
	c-41.37-38.38-52.78-67.96-40.07-90.7c43.09-77.18,368.96-71.34,739.75-64.69c374.67,6.72,795.36,14.26,1014.45-61.37
	c115.39-39.83,174.5-102.83,140.47-201.38c-35.76-103.57-12.28-182.48,51.63-235.13c56.21-46.32,143.76-72.16,249.72-76.46
	c105.68-4.29,229.82,12.83,359.52,52.37c2.83,0.87,5.66,1.77,8.5,2.67c-10.13-3.34-20.24-6.6-30.31-9.66
	c-129.14-39.38-252.71-56.42-357.9-52.15c-104.9,4.26-191.44,29.73-246.79,75.33c-62.27,51.3-85.08,128.38-50.09,229.72
	c35.19,101.92-25.26,166.83-143.52,207.65c-219.92,75.92-641.07,68.36-1016.13,61.64c-369.22-6.63-693.71-12.45-735.37,62.15
	C6144,2534.59,6160.07,2567.02,6213.42,2610.84z M6233.8,2622.55c-41.37-38.38-52.77-67.96-40.07-90.7
	c43.09-77.18,368.96-71.34,739.74-64.69c374.68,6.72,795.37,14.26,1014.45-61.37c115.39-39.83,174.5-102.84,140.48-201.39
	c-35.76-103.57-12.28-182.48,51.62-235.13c56.21-46.31,143.77-72.16,249.73-76.46c105.69-4.29,229.82,12.82,359.51,52.37
	c2.83,0.86,5.67,1.77,8.5,2.66c-10.13-3.34-20.24-6.6-30.31-9.66c-129.14-39.38-252.72-56.42-357.89-52.15
	c-104.91,4.26-191.44,29.73-246.8,75.33c-62.27,51.3-85.08,128.38-50.09,229.72c35.19,101.91-25.26,166.83-143.53,207.65
	c-219.91,75.92-641.06,68.37-1016.13,61.64c-369.21-6.62-693.71-12.44-735.36,62.15C6164.38,2546.31,6180.45,2578.72,6233.8,2622.55
	z M6254.19,2634.26c-41.38-38.39-52.78-67.96-40.07-90.71c43.1-77.18,368.96-71.34,739.75-64.69
	c374.67,6.71,795.37,14.26,1014.44-61.37c115.39-39.83,174.5-102.83,140.47-201.39c-35.76-103.57-12.28-182.47,51.63-235.13
	c56.21-46.31,143.77-72.15,249.73-76.45c105.69-4.3,229.83,12.82,359.52,52.36c2.83,0.87,5.66,1.77,8.5,2.66
	c-10.12-3.35-20.24-6.59-30.31-9.66c-129.13-39.38-252.71-56.42-357.9-52.15c-104.9,4.27-191.43,29.73-246.79,75.34
	c-62.27,51.3-85.08,128.37-50.1,229.72c35.19,101.91-25.26,166.83-143.52,207.65c-219.91,75.92-641.06,68.37-1016.13,61.64
	c-369.22-6.62-693.71-12.44-735.37,62.16C6184.77,2558.02,6200.84,2590.44,6254.19,2634.26z M6274.57,2645.97
	c-41.37-38.38-52.77-67.95-40.07-90.71c43.09-77.18,368.96-71.34,739.75-64.68c374.67,6.71,795.36,14.26,1014.44-61.37
	c115.4-39.83,174.5-102.83,140.48-201.38c-35.76-103.57-12.28-182.48,51.63-235.14c56.22-46.31,143.76-72.15,249.73-76.46
	c105.68-4.3,229.82,12.82,359.51,52.37c2.83,0.87,5.67,1.77,8.5,2.66c-10.13-3.34-20.24-6.59-30.31-9.66
	c-129.14-39.38-252.72-56.41-357.9-52.14c-104.9,4.26-191.43,29.73-246.79,75.33c-62.27,51.3-85.08,128.38-50.09,229.72
	c35.19,101.92-25.26,166.83-143.52,207.66c-219.92,75.92-641.07,68.36-1016.13,61.64c-369.22-6.62-693.71-12.44-735.37,62.16
	C6205.15,2569.72,6221.22,2602.15,6274.57,2645.97z M6294.95,2657.68c-41.37-38.38-52.78-67.96-40.07-90.7
	c43.1-77.18,368.97-71.34,739.75-64.69c374.68,6.72,795.37,14.26,1014.45-61.38c115.39-39.83,174.5-102.83,140.47-201.38
	c-35.75-103.57-12.28-182.48,51.63-235.13c56.21-46.32,143.77-72.16,249.72-76.46c105.69-4.29,229.83,12.83,359.52,52.37
	c2.83,0.87,5.66,1.77,8.5,2.67c-10.13-3.35-20.24-6.6-30.31-9.66c-129.14-39.38-252.71-56.42-357.89-52.15
	c-104.91,4.26-191.44,29.73-246.8,75.33c-62.27,51.3-85.08,128.38-50.1,229.72c35.19,101.92-25.25,166.83-143.52,207.65
	c-219.92,75.92-641.06,68.36-1016.13,61.65c-369.21-6.63-693.71-12.45-735.36,62.15C6225.53,2581.43,6241.6,2613.85,6294.95,2657.68
	z M6315.34,2669.39c-41.38-38.38-52.78-67.96-40.07-90.7c43.1-77.18,368.96-71.34,739.75-64.69
	c374.67,6.71,795.37,14.26,1014.44-61.37c115.39-39.83,174.5-102.84,140.47-201.39c-35.76-103.57-12.28-182.48,51.63-235.13
	c56.21-46.31,143.77-72.16,249.72-76.46c105.68-4.29,229.83,12.82,359.52,52.37c2.83,0.86,5.66,1.77,8.49,2.66
	c-10.12-3.34-20.24-6.6-30.31-9.66c-129.14-39.38-252.71-56.42-357.9-52.15c-104.9,4.26-191.43,29.73-246.79,75.33
	c-62.27,51.3-85.09,128.37-50.1,229.72c35.19,101.91-25.26,166.83-143.52,207.65c-219.91,75.92-641.06,68.37-1016.13,61.64
	c-369.22-6.62-693.71-12.44-735.37,62.15C6245.92,2593.15,6261.99,2625.56,6315.34,2669.39z M6335.72,2681.1
	c-41.37-38.38-52.77-67.95-40.07-90.71c43.09-77.18,368.96-71.34,739.75-64.69c374.67,6.72,795.36,14.27,1014.44-61.37
	c115.4-39.83,174.5-102.83,140.48-201.39c-35.76-103.57-12.28-182.47,51.62-235.13c56.21-46.31,143.77-72.15,249.73-76.46
	c105.68-4.29,229.82,12.82,359.51,52.36c2.83,0.87,5.67,1.77,8.5,2.66c-10.13-3.34-20.24-6.59-30.31-9.66
	c-129.14-39.38-252.72-56.42-357.9-52.15c-104.9,4.27-191.43,29.73-246.79,75.34c-62.27,51.3-85.08,128.37-50.09,229.72
	c35.19,101.91-25.26,166.83-143.52,207.65c-219.92,75.92-641.07,68.37-1016.14,61.64c-369.21-6.62-693.7-12.45-735.36,62.16
	C6266.3,2604.85,6282.37,2637.28,6335.72,2681.1z M6356.1,2692.81c-41.37-38.38-52.78-67.95-40.07-90.71
	c43.1-77.18,368.96-71.34,739.75-64.68c374.67,6.71,795.37,14.26,1014.45-61.38c115.39-39.83,174.5-102.83,140.47-201.38
	c-35.76-103.57-12.28-182.48,51.63-235.14c56.21-46.31,143.77-72.15,249.72-76.46c105.69-4.3,229.82,12.82,359.52,52.36
	c2.83,0.87,5.66,1.78,8.5,2.66c-10.13-3.34-20.24-6.59-30.31-9.66c-129.13-39.38-252.71-56.42-357.9-52.14
	c-104.9,4.26-191.43,29.73-246.79,75.33c-62.27,51.3-85.08,128.38-50.1,229.72c35.19,101.92-25.26,166.84-143.52,207.66
	c-219.92,75.92-641.06,68.36-1016.13,61.64c-369.22-6.62-693.71-12.44-735.36,62.16C6286.68,2616.56,6302.75,2648.99,6356.1,2692.81
	z M6376.48,2704.52c-41.37-38.38-52.77-67.96-40.07-90.7c43.09-77.18,368.96-71.34,739.75-64.69
	c374.67,6.72,795.36,14.26,1014.44-61.38c115.39-39.83,174.5-102.83,140.47-201.38c-35.76-103.57-12.28-182.48,51.63-235.13
	c56.21-46.32,143.76-72.16,249.72-76.46c105.69-4.29,229.82,12.83,359.52,52.36c2.83,0.87,5.66,1.77,8.49,2.67
	c-10.12-3.35-20.24-6.6-30.31-9.66c-129.14-39.38-252.71-56.42-357.9-52.15c-104.9,4.26-191.43,29.73-246.8,75.33
	c-62.27,51.3-85.08,128.38-50.09,229.72c35.19,101.92-25.26,166.83-143.52,207.65c-219.92,75.92-641.07,68.36-1016.13,61.64
	c-369.22-6.63-693.71-12.45-735.37,62.15C6307.07,2628.27,6323.14,2660.69,6376.48,2704.52z M6396.87,2716.23
	c-41.37-38.38-52.77-67.96-40.07-90.7c43.09-77.18,368.96-71.34,739.74-64.69c374.68,6.71,795.37,14.26,1014.45-61.37
	c115.39-39.83,174.5-102.84,140.47-201.39c-35.75-103.57-12.28-182.48,51.63-235.13c56.21-46.31,143.77-72.16,249.73-76.46
	c105.68-4.3,229.82,12.82,359.51,52.36c2.83,0.86,5.67,1.77,8.5,2.66c-10.14-3.34-20.24-6.6-30.31-9.66
	c-129.14-39.38-252.72-56.42-357.9-52.15c-104.9,4.26-191.44,29.73-246.79,75.33c-62.27,51.3-85.08,128.37-50.09,229.72
	c35.18,101.91-25.26,166.83-143.53,207.65c-219.91,75.92-641.06,68.37-1016.13,61.64c-369.21-6.62-693.71-12.44-735.36,62.15
	C6327.45,2639.98,6343.52,2672.4,6396.87,2716.23z M6417.26,2727.94c-41.37-38.38-52.78-67.95-40.07-90.71
	c43.1-77.18,368.96-71.34,739.75-64.69c374.67,6.72,795.37,14.27,1014.45-61.37c115.39-39.83,174.5-102.83,140.47-201.39
	c-35.76-103.57-12.28-182.47,51.63-235.13c56.21-46.31,143.76-72.15,249.72-76.46c105.69-4.3,229.82,12.82,359.52,52.37
	c2.83,0.87,5.66,1.78,8.5,2.66c-10.13-3.35-20.24-6.59-30.31-9.66c-129.13-39.38-252.71-56.42-357.9-52.15
	c-104.9,4.27-191.43,29.73-246.79,75.34c-62.27,51.3-85.08,128.37-50.1,229.72c35.19,101.91-25.26,166.83-143.52,207.65
	c-219.92,75.92-641.06,68.37-1016.13,61.64c-369.22-6.62-693.71-12.45-735.37,62.16
	C6347.83,2651.69,6363.91,2684.12,6417.26,2727.94z M6437.64,2739.65c-41.37-38.38-52.77-67.96-40.07-90.71
	c43.09-77.18,368.96-71.34,739.75-64.68c374.67,6.71,795.36,14.26,1014.44-61.38c115.4-39.83,174.5-102.83,140.47-201.38
	c-35.76-103.57-12.28-182.48,51.63-235.14c56.21-46.31,143.76-72.15,249.72-76.46c105.68-4.3,229.82,12.82,359.51,52.37
	c2.83,0.87,5.67,1.77,8.5,2.66c-10.13-3.33-20.24-6.59-30.31-9.66c-129.14-39.38-252.72-56.42-357.9-52.14
	c-104.9,4.26-191.43,29.73-246.8,75.33c-62.27,51.3-85.08,128.38-50.09,229.72c35.18,101.92-25.26,166.84-143.52,207.66
	c-219.92,75.92-641.07,68.36-1016.13,61.64c-369.22-6.62-693.71-12.44-735.37,62.16C6368.22,2663.4,6384.28,2695.82,6437.64,2739.65
	z M6458.02,2751.36c-41.37-38.38-52.78-67.96-40.08-90.7c43.1-77.18,368.97-71.34,739.75-64.69
	c374.67,6.72,795.37,14.26,1014.44-61.38c115.39-39.83,174.5-102.83,140.47-201.38c-35.75-103.57-12.28-182.48,51.63-235.13
	c56.21-46.32,143.77-72.16,249.72-76.46c105.69-4.3,229.82,12.82,359.52,52.37c2.83,0.87,5.66,1.78,8.5,2.67
	c-10.14-3.35-20.24-6.59-30.32-9.66c-129.13-39.38-252.71-56.42-357.89-52.15c-104.91,4.26-191.44,29.73-246.79,75.33
	c-62.28,51.3-85.08,128.38-50.1,229.72c35.19,101.91-25.26,166.83-143.52,207.65c-219.92,75.92-641.06,68.36-1016.13,61.64
	c-369.21-6.63-693.71-12.44-735.36,62.15C6388.6,2675.11,6404.67,2707.53,6458.02,2751.36z M5953.44,2393.73
	c-13.27,23.77,2.79,56.19,56.15,100.02c-41.37-38.38-52.77-67.96-40.07-90.71c43.09-77.18,368.96-71.34,739.75-64.69
	c374.67,6.72,795.36,14.26,1014.44-61.37c115.4-39.83,174.5-102.83,140.48-201.39c-35.76-103.57-12.28-182.47,51.63-235.13
	c56.21-46.31,143.76-72.15,249.72-76.46c105.68-4.3,229.82,12.82,359.51,52.37c2.83,0.86,5.67,1.77,8.5,2.66
	c-10.13-3.34-20.24-6.59-30.31-9.66c-129.14-39.38-252.72-56.42-357.9-52.14c-104.9,4.26-191.43,29.72-246.79,75.33
	c-62.28,51.3-85.08,128.38-50.09,229.72c35.19,101.91-25.26,166.83-143.52,207.65c-219.92,75.92-641.07,68.37-1016.14,61.64
	C6319.59,2324.95,5995.1,2319.13,5953.44,2393.73z M7009.95,4000c-11.33-380.27-142.13-980.14-784.75-1364.25l-1.33-0.77
	c-6.97-3.96-13.78-7.86-20.39-11.71c-6.96-3.95-13.77-7.86-20.38-11.71c-6.98-3.96-13.78-7.87-20.39-11.71
	c-178.23-101.11-237.06-166.48-213.58-208.52c43.1-77.18,368.96-71.34,739.75-64.69c374.67,6.72,795.37,14.26,1014.44-61.37
	c115.39-39.83,174.5-102.84,140.47-201.39c-35.76-103.57-12.28-182.48,51.63-235.13c56.21-46.31,143.76-72.16,249.72-76.46
	c105.69-4.29,229.83,12.82,359.52,52.37c104.07,31.74,211.73,77.92,316.33,139.12c6.81,3.83,13.61,7.73,20.38,11.71
	c6.81,3.84,13.6,7.75,20.39,11.71c6.8,3.84,13.6,7.74,20.38,11.71c6.8,3.84,13.61,7.75,20.38,11.72c6.8,3.83,13.6,7.74,20.39,11.71
	c6.8,3.84,13.6,7.74,20.38,11.71c6.8,3.84,13.6,7.75,20.38,11.71c6.8,3.84,13.6,7.75,20.38,11.72c5.32,2.99,10.62,6.03,15.94,9.11
	v41c-9.34-3.08-18.65-6.05-27.94-8.87c-129.14-39.38-252.71-56.42-357.9-52.15c-104.9,4.26-191.43,29.73-246.79,75.34
	c-62.27,51.3-85.09,128.37-50.1,229.72c35.19,101.91-25.26,166.83-143.52,207.65c-219.92,75.92-641.07,68.37-1016.13,61.64
	c-369.22-6.62-693.71-12.45-735.37,62.15c-13.27,23.78,2.8,56.19,56.15,100.02c-41.37-38.38-52.78-67.96-40.07-90.7
	c43.1-77.18,368.96-71.34,739.75-64.69c374.67,6.71,795.37,14.26,1014.45-61.37c115.39-39.83,174.5-102.84,140.47-201.39
	c-35.76-103.57-12.28-182.48,51.63-235.13c56.21-46.31,143.76-72.16,249.72-76.45c105.68-4.29,229.82,12.82,359.52,52.36l6.13,1.92
	v5.12l-7.56-2.33c-129.14-39.38-252.72-56.42-357.9-52.15c-104.91,4.27-191.44,29.73-246.8,75.33
	c-62.27,51.3-85.08,128.38-50.09,229.72c35.18,101.91-25.26,166.83-143.52,207.65c-219.92,75.92-641.07,68.37-1016.14,61.64
	c-369.21-6.62-693.7-12.45-735.36,62.16c-13.28,23.77,2.79,56.19,56.15,100.02c-41.37-38.38-52.77-67.95-40.07-90.71
	c43.09-77.18,368.96-71.34,739.75-64.69c374.67,6.72,795.36,14.27,1014.44-61.37c115.4-39.83,174.5-102.83,140.47-201.39
	c-35.76-103.57-12.28-182.47,51.62-235.13c56.21-46.31,143.77-72.15,249.73-76.46c101.8-4.14,220.74,11.6,345.26,48.11v5.13
	c-124.49-36.65-243.38-52.44-345.07-48.31c-104.9,4.26-191.43,29.73-246.79,75.33c-62.28,51.3-85.08,128.38-50.1,229.72
	c35.19,101.92-25.26,166.84-143.52,207.66c-219.92,75.92-641.06,68.36-1016.13,61.64c-369.22-6.62-693.71-12.44-735.37,62.16
	c-13.27,23.77,2.8,56.19,56.16,100.02c-41.38-38.38-52.78-67.96-40.08-90.71c43.1-77.18,368.96-71.34,739.75-64.68
	c374.67,6.71,795.37,14.26,1014.44-61.38c115.39-39.83,174.5-102.83,140.47-201.38c-35.76-103.57-12.28-182.48,51.63-235.14
	c56.21-46.31,143.77-72.15,249.72-76.46c96.24-3.91,207.78,9.94,324.88,42.31v5.09c-117.07-32.48-228.55-46.37-324.69-42.47
	c-104.9,4.26-191.43,29.73-246.79,75.33c-62.27,51.3-85.08,128.37-50.09,229.72c35.19,101.92-25.26,166.83-143.52,207.65
	c-219.92,75.92-641.07,68.36-1016.13,61.64c-369.22-6.63-693.71-12.44-735.37,62.15c-13.27,23.77,2.79,56.19,56.15,100.02
	c-41.37-38.38-52.77-67.96-40.07-90.7c43.09-77.18,368.96-71.34,739.75-64.69c374.67,6.71,795.36,14.26,1014.45-61.38
	c115.39-39.83,174.5-102.83,140.47-201.38c-35.76-103.57-12.28-182.48,51.63-235.13c56.21-46.32,143.76-72.16,249.72-76.46
	c90.64-3.68,194.85,8.39,304.5,36.83v5.09c-109.62-28.56-213.78-40.67-304.3-36.99c-104.91,4.26-191.44,29.73-246.8,75.34
	c-62.27,51.3-85.08,128.37-50.09,229.72c35.19,101.91-25.26,166.83-143.53,207.65c-219.91,75.92-641.06,68.37-1016.13,61.64
	c-369.21-6.62-693.71-12.45-735.36,62.15c-13.28,23.77,2.79,56.19,56.14,100.02c-41.37-38.38-52.78-67.96-40.07-90.7
	c43.1-77.18,368.97-71.34,739.75-64.69c374.68,6.72,795.37,14.26,1014.45-61.37c115.39-39.83,174.5-102.84,140.47-201.39
	c-35.75-103.57-12.28-182.48,51.62-235.13c56.21-46.31,143.77-72.16,249.72-76.46c85.01-3.46,181.95,6.94,284.12,31.72v5.07
	c-102.13-24.87-199.02-35.31-283.92-31.86c-104.9,4.27-191.43,29.73-246.79,75.33c-62.27,51.3-85.09,128.38-50.1,229.72
	c35.19,101.92-25.26,166.83-143.52,207.65c-219.91,75.92-641.06,68.37-1016.13,61.64c-369.22-6.62-693.71-12.45-735.37,62.16
	c-13.27,23.77,2.8,56.19,56.15,100.02c-41.37-38.38-52.78-67.95-40.08-90.71c43.1-77.18,368.96-71.34,739.75-64.69
	c374.67,6.72,795.37,14.26,1014.44-61.37c115.39-39.83,174.5-102.83,140.47-201.39c-35.76-103.57-12.28-182.47,51.63-235.13
	c56.21-46.31,143.76-72.15,249.72-76.46c79.33-3.23,169.05,5.61,263.73,26.95v5.05c-94.63-21.41-184.3-30.29-263.54-27.07
	c-104.9,4.26-191.43,29.73-246.79,75.33c-62.27,51.3-85.08,128.38-50.09,229.72c35.19,101.92-25.26,166.84-143.52,207.66
	c-219.92,75.92-641.07,68.36-1016.14,61.64c-369.21-6.62-693.7-12.44-735.36,62.16c-13.27,23.77,2.79,56.19,56.15,100.02
	c-41.37-38.38-52.77-67.96-40.07-90.71c43.09-77.18,368.96-71.34,739.75-64.68c374.67,6.71,795.36,14.26,1014.44-61.38
	c115.4-39.83,174.5-102.83,140.48-201.38c-35.76-103.57-12.28-182.48,51.63-235.14c56.21-46.31,143.76-72.15,249.72-76.46
	c73.61-3,156.19,4.41,243.35,22.54v5.03c-87.12-18.19-169.63-25.62-243.15-22.64c-104.91,4.26-191.44,29.73-246.8,75.33
	c-62.27,51.3-85.08,128.37-50.1,229.72c35.19,101.91-25.26,166.83-143.52,207.65c-219.92,75.92-641.06,68.36-1016.13,61.64
	c-369.21-6.63-693.71-12.44-735.36,62.15c-13.28,23.77,2.79,56.19,56.15,100.02c-41.37-38.38-52.78-67.96-40.07-90.7
	c43.1-77.18,368.97-71.34,739.75-64.69c374.67,6.71,795.37,14.26,1014.45-61.38c115.39-39.83,174.5-102.83,140.47-201.38
	c-35.75-103.57-12.28-182.48,51.63-235.13c56.21-46.32,143.77-72.16,249.72-76.46c67.86-2.75,143.32,3.31,222.97,18.48v5.01
	c-79.61-15.21-155.01-21.31-222.77-18.56c-104.9,4.26-191.43,29.73-246.8,75.34c-62.27,51.3-85.08,128.37-50.09,229.72
	c35.19,101.91-25.26,166.83-143.52,207.65c-219.91,75.92-641.07,68.37-1016.13,61.64c-369.22-6.62-693.71-12.45-735.37,62.15
	c-13.27,23.77,2.8,56.19,56.15,100.02c-41.37-38.38-52.78-67.96-40.07-90.7c43.1-77.18,368.96-71.34,739.75-64.69
	c374.67,6.72,795.36,14.26,1014.45-61.37c115.39-39.83,174.5-102.84,140.47-201.39c-35.76-103.57-12.28-182.48,51.63-235.13
	c56.21-46.31,143.76-72.16,249.72-76.46c62.04-2.53,130.43,2.33,202.58,14.77v5.01c-72.1-12.48-140.43-17.37-202.39-14.85
	c-104.91,4.27-191.44,29.73-246.79,75.33c-62.28,51.3-85.08,128.38-50.09,229.72c35.19,101.92-25.26,166.83-143.52,207.65
	c-219.92,75.92-641.07,68.37-1016.14,61.64c-369.21-6.62-693.71-12.45-735.36,62.16c-13.28,23.77,2.79,56.19,56.15,100.02
	c-41.37-38.38-52.77-67.96-40.07-90.71c43.09-77.18,368.96-71.34,739.74-64.69c374.68,6.72,795.37,14.26,1014.45-61.37
	c115.4-39.83,174.5-102.83,140.48-201.39c-35.76-103.57-12.28-182.47,51.62-235.13c56.21-46.31,143.77-72.15,249.73-76.46
	c56.16-2.29,117.53,1.47,182.2,11.44v4.98c-64.6-10-125.92-13.78-182.01-11.49c-104.9,4.26-191.43,29.73-246.79,75.33
	c-62.27,51.3-85.08,128.38-50.1,229.72c35.19,101.92-25.26,166.84-143.52,207.66c-219.92,75.92-641.06,68.36-1016.13,61.64
	c-369.22-6.62-693.71-12.44-735.37,62.16c-13.27,23.77,2.8,56.19,56.15,100.02c-41.37-38.38-52.78-67.96-40.07-90.71
	c43.1-77.18,368.96-71.34,739.75-64.68c374.67,6.71,795.37,14.26,1014.45-61.38c115.39-39.83,174.5-102.83,140.47-201.38
	c-35.76-103.57-12.28-182.48,51.63-235.13c56.21-46.31,143.77-72.15,249.72-76.46c50.23-2.04,104.63,0.76,161.82,8.5v4.97
	c-57.13-7.76-111.47-10.57-161.62-8.54c-104.9,4.26-191.43,29.73-246.8,75.34c-62.27,51.3-85.08,128.37-50.09,229.72
	c35.19,101.91-25.26,166.83-143.52,207.65c-219.92,75.92-641.07,68.36-1016.13,61.64c-369.22-6.63-693.71-12.45-735.37,62.15
	c-13.27,23.77,2.79,56.19,56.14,100.02c-41.37-38.38-52.77-67.96-40.07-90.7c43.09-77.18,368.96-71.34,739.75-64.69
	c374.67,6.71,795.36,14.26,1014.44-61.38c115.39-39.83,174.5-102.83,140.47-201.38c-35.76-103.57-12.28-182.48,51.63-235.13
	c56.21-46.32,143.77-72.16,249.72-76.46c44.22-1.79,91.68,0.16,141.43,5.94v4.96c-49.69-5.8-97.08-7.76-141.24-5.97
	c-104.9,4.26-191.44,29.73-246.79,75.33c-62.27,51.3-85.08,128.38-50.1,229.72c35.19,101.91-25.26,166.83-143.52,207.65
	c-219.91,75.92-641.06,68.37-1016.13,61.64c-369.21-6.62-693.71-12.45-735.36,62.15c-13.27,23.77,2.79,56.19,56.15,100.01
	c-41.37-38.38-52.78-67.95-40.08-90.7c43.1-77.18,368.97-71.34,739.75-64.69c374.68,6.72,795.37,14.26,1014.44-61.37
	c115.39-39.83,174.5-102.84,140.47-201.39c-35.75-103.57-12.28-182.48,51.63-235.13c56.21-46.31,143.77-72.16,249.72-76.46
	c38.15-1.56,78.7-0.31,121.05,3.76v4.97c-42.29-4.09-82.78-5.35-120.86-3.8c-104.9,4.27-191.44,29.73-246.79,75.33
	c-62.27,51.3-85.09,128.38-50.1,229.72c35.19,101.92-25.26,166.83-143.52,207.65c-219.92,75.92-641.06,68.37-1016.13,61.64
	c-369.22-6.62-693.71-12.45-735.37,62.16c-13.26,23.77,2.8,56.19,56.15,100.02c-41.37-38.39-52.78-67.96-40.07-90.71
	c43.1-77.18,368.96-71.34,739.75-64.69c374.67,6.72,795.37,14.26,1014.45-61.37c115.39-39.83,174.5-102.83,140.47-201.39
	c-35.76-103.57-12.28-182.47,51.63-235.13c56.21-46.31,143.76-72.15,249.72-76.46c31.99-1.3,65.66-0.63,100.67,2.02v4.94
	c-34.95-2.65-68.56-3.32-100.47-2.02c-104.9,4.26-191.43,29.73-246.8,75.33c-62.27,51.3-85.08,128.38-50.09,229.72
	c35.19,101.92-25.26,166.83-143.52,207.66c-219.91,75.92-641.07,68.36-1016.14,61.64c-369.21-6.62-693.7-12.44-735.36,62.16
	c-13.27,23.77,2.78,56.19,56.15,100.02c-41.37-38.38-52.77-67.96-40.07-90.71c43.09-77.18,368.96-71.34,739.75-64.68
	c374.67,6.71,795.36,14.26,1014.44-61.38c115.39-39.83,174.5-102.83,140.47-201.38c-35.76-103.57-12.28-182.48,51.63-235.13
	c56.21-46.31,143.76-72.15,249.72-76.46c25.73-1.04,52.55-0.83,80.28,0.69v4.94c-27.67-1.52-54.42-1.74-80.09-0.7
	c-104.9,4.26-191.43,29.73-246.79,75.34c-62.27,51.3-85.08,128.37-50.1,229.72c35.19,101.91-25.26,166.83-143.52,207.65
	c-219.91,75.92-641.06,68.36-1016.13,61.64c-369.22-6.63-693.71-12.45-735.36,62.15c-13.28,23.77,2.79,56.19,56.15,100.02
	c-41.38-38.37-52.78-67.96-40.08-90.7c43.1-77.18,368.96-71.34,739.75-64.69c374.67,6.72,795.37,14.26,1014.45-61.37
	c115.39-39.83,174.5-102.83,140.47-201.38c-35.75-103.57-12.28-182.48,51.63-235.13c56.21-46.32,143.77-72.16,249.73-76.46
	c19.37-0.79,39.37-0.85,59.9-0.19v4.92c-20.47-0.65-40.4-0.59-59.71,0.2c-104.9,4.26-191.43,29.73-246.79,75.33
	c-62.27,51.3-85.08,128.38-50.09,229.72c35.19,101.92-25.26,166.83-143.52,207.65c-219.92,75.92-641.07,68.37-1016.13,61.64
	c-369.22-6.62-693.71-12.45-735.37,62.15c-20.64,36.97,29.64,94.86,180.84,184l3.9,2.18c5.59,3.12,10.98,6.31,16.42,9.49l3.96,2.22
	c5.58,3.11,10.97,6.32,16.42,9.49l3.96,2.22c455.08,254.14,668.87,613.03,764.8,940h-5.04
	c-71.55-242.99-208.52-503.55-461.72-725.27c247.45,223.05,380.6,483.39,449.7,725.27h-5.02
	c-70.57-246.32-207.75-511.69-465.06-736.98c251.46,226.66,384.83,491.8,452.95,736.98h-4.94
	c-69.55-249.59-207.01-519.83-468.38-748.7c255.46,230.28,389.08,500.28,456.19,748.7h-4.95
	c-68.5-252.84-206.17-527.96-471.62-760.4c259.49,233.9,393.26,508.79,459.31,760.4h-5c-67.39-256.03-205.13-536.07-474.7-772.11
	c263.53,237.54,397.36,517.33,462.32,772.11h-4.93c-66.26-259.17-204.1-544.17-477.78-783.82
	c267.56,241.17,401.5,525.94,465.32,783.82h-4.99c-65.08-262.27-202.91-552.27-480.71-795.54
	c271.63,244.84,405.48,534.58,468.13,795.54h-4.96c-63.86-265.33-201.6-560.35-483.55-807.24
	c275.69,248.51,409.46,543.27,470.89,807.24h-4.89c-62.6-268.32-200.3-568.43-486.39-818.95
	c279.77,252.19,413.43,552.01,473.62,818.95h-4.98c-61.31-271.28-198.75-576.48-489.02-830.66
	c283.87,255.88,417.28,560.8,476.17,830.66h-4.92c-59.98-274.18-197.17-584.53-491.63-842.37
	c287.98,259.59,421.15,569.66,478.72,842.37h-4.93c-58.62-277.02-195.53-592.56-494.18-854.08
	c292.12,263.31,424.92,578.56,481.13,854.08h-4.94c-57.22-279.82-193.7-600.57-496.58-865.79
	c296.26,267.05,428.66,587.53,483.47,865.79h-4.88c-55.79-282.54-191.87-608.58-498.97-877.5
	c300.42,270.79,432.39,596.55,485.79,877.5h-4.96c-54.32-285.22-189.85-616.56-501.21-889.21
	c304.62,274.58,435.98,605.62,487.91,889.21h-4.9c-52.82-287.82-187.77-624.54-503.4-900.92
	c308.81,278.36,439.6,614.77,490.04,900.92h-4.87c-51.3-290.37-185.65-632.49-505.56-912.63
	c313.03,282.17,443.15,623.98,492.07,912.63h-4.92c-49.73-292.85-183.31-640.42-507.54-924.34c317.29,286,446.62,633.25,494,924.34
	h-4.86c-48.15-295.26-180.96-648.34-509.51-936.05c321.54,289.83,450.12,642.61,495.91,936.05h-4.92
	c-46.54-297.6-178.46-656.23-511.37-947.76c325.84,293.71,453.48,652.03,497.66,947.76h-4.89
	c-44.88-299.86-175.85-664.1-513.15-959.47c330.15,297.6,456.83,661.53,499.38,959.47h-4.84
	c-43.22-302.04-173.23-671.97-514.91-971.18c334.49,301.51,460.13,671.1,501.02,971.18h-4.9
	c-41.51-304.15-170.37-679.79-516.51-982.89c338.86,305.45,463.36,680.76,502.56,982.89h-4.85
	c-39.8-306.18-167.5-687.6-518.09-994.6c343.23,309.39,466.6,690.5,504.09,994.6h-4.9c-38.05-308.11-164.5-695.38-519.57-1006.31
	c347.67,313.38,469.69,700.32,505.45,1006.31h-4.86c-36.27-309.98-161.38-703.14-520.97-1018.01
	c352.12,317.39,472.81,710.24,506.8,1018.01h-4.84c-34.49-311.73-158.22-710.88-522.34-1029.73
	c356.6,321.44,475.83,720.26,508.05,1029.73h-4.87c-32.68-313.4-154.85-718.56-523.56-1041.44
	c361.12,325.51,478.8,730.38,509.22,1041.44h-4.84c-30.84-314.97-151.47-726.25-524.77-1053.15
	c365.66,329.6,481.76,740.6,510.36,1053.15h-4.88c-28.98-316.43-147.9-733.89-525.86-1064.85
	c370.26,333.74,484.61,750.9,511.36,1064.85h-4.84c-27.12-317.79-144.26-741.5-526.9-1076.57
	c374.86,337.9,487.46,761.34,512.37,1076.57h-4.88c-25.22-319.03-140.52-749.08-527.87-1088.28
	c379.54,342.12,490.18,771.88,513.21,1088.28h-4.86c-23.31-320.16-136.62-756.62-528.74-1099.98
	c384.24,346.34,492.91,782.55,514.05,1099.98h-4.83c-21.41-321.16-132.69-764.13-529.61-1111.69
	c388.99,350.62,495.54,793.34,514.79,1111.69h-4.86c-19.47-322.04-128.54-771.58-530.31-1123.41
	c393.79,354.96,498.12,804.27,515.46,1123.41h-4.82c-17.53-322.78-124.36-779.03-531.03-1135.12
	c398.62,359.31,500.66,815.33,516.07,1135.12h-4.87c-15.57-323.38-119.97-786.38-531.59-1146.82
	c403.52,363.73,503.11,826.53,516.59,1146.82h-4.83c-13.61-323.83-115.52-793.74-532.13-1158.53
	c408.44,368.16,505.52,837.89,517.07,1158.53h-4.88c-11.65-324.14-110.92-801.01-532.58-1170.25
	c413.47,372.7,507.85,849.42,517.43,1170.25H7009.95z"/>
<path class="st0" d="M1395.24,4000h20.22c75.21-17.32,152.25-15.64,228.15,0h22.61C1576.31,3978.33,1484.34,3975.56,1395.24,4000
	 M1320.61,4000h19.04c26.68-7.22,51.46-14.18,73.89-20.72c115.47-33.63,236.15-20.52,351.02,20.72h14.23
	c-119.52-45.18-245.83-60.63-366.62-25.45C1384.86,3982.5,1354.09,3991.09,1320.61,4000z M1236.53,4000h20.79
	c68.63-16.92,130.24-33.61,180.25-48.18c138.17-40.24,283.8-13.56,418.03,48.18h11.65c-137.85-65.36-288.31-94.48-431.05-52.91
	C1381.53,3963.01,1312.98,3981.48,1236.53,4000z M1141,4000h23.03c115.61-25.62,220.41-53.16,297.57-75.64
	c153.76-44.79,316.77-6.69,463.01,70.36c3.3,1.74,6.59,3.5,9.86,5.28h10.27c-5.92-3.27-11.86-6.49-17.83-9.63
	c-147.27-77.6-311.54-115.92-466.69-70.74C1378.27,3943.49,1265.15,3973.08,1141,4000z M1028.59,4000h26.68
	c166.54-31.87,324.46-72.26,430.36-103.1c153.77-44.79,316.77-6.7,463.01,70.36c19.46,10.26,38.61,21.21,57.42,32.74h9.37
	c-21.06-13.14-42.58-25.55-64.49-37.09c-147.28-77.61-311.54-115.92-466.68-70.74C1373.01,3924.56,1204.33,3967.5,1028.59,4000z
	 M882.3,4000h35.4c221.42-32.42,452.07-89.81,591.96-130.56c153.76-44.79,316.77-6.7,463.01,70.36
	c34.35,18.1,67.78,38.36,99.94,60.2h8.72c-34.14-23.49-69.73-45.25-106.37-64.55c-147.27-77.61-311.54-115.92-466.68-70.74
	C1361.22,3907.53,1113.71,3968.79,882.3,4000z M0,3615.06v6.85c109.57,114.07,187.75,246.43,157.58,378.09h5.08
	C192.85,3865.54,112.02,3730.69,0,3615.06z M0,3563.58v6.6c125.85,123.28,220.09,270.67,178.06,416.36
	c-1.31,4.57-2.47,9.06-3.46,13.46h5.05c0.92-3.96,1.96-8,3.15-12.11C225.77,3838.94,128.55,3688.61,0,3563.58z M0,3513.33v6.45
	c137.55,127.68,246.76,284.47,202.09,439.3c-4.19,14.53-6.69,28.17-7.59,40.92h4.94c0.9-12.32,3.33-25.49,7.39-39.58
	C252.44,3802.32,140.12,3642.64,0,3513.33z M0,3464.21v6.37c148.48,131.39,273.36,297.29,226.13,461.04
	c-6.95,24.09-9.23,45.7-7.34,64.96c0.11,1.14,0.24,2.29,0.39,3.42h4.97c-0.17-1.29-0.33-2.59-0.46-3.9
	c-1.83-18.65,0.4-39.65,7.17-63.13C279.04,3765.91,150.93,3597.11,0,3464.21z M0,3416.06v6.23
	c158.65,134.42,299.92,309.34,250.15,481.86c-6.95,24.09-9.23,45.7-7.33,64.96c1.09,11.05,3.55,21.34,7.28,30.88h5.35
	c-4-9.65-6.62-20.09-7.73-31.36c-1.84-18.65,0.39-39.65,7.17-63.13C305.61,3729.65,160.98,3551.85,0,3416.06z M0,3368.7v6.2
	c167.99,136.78,326.44,320.61,274.18,501.79c-6.95,24.09-9.23,45.7-7.34,64.95c2.23,22.57,10.15,41.91,23,58.35h6.42
	c-13.78-16.41-22.25-35.89-24.51-58.82c-1.83-18.65,0.4-39.65,7.17-63.13C332.16,3693.48,170.2,3506.74,0,3368.7z M0,3322.13v6.09
	c176.47,138.47,352.97,331.19,298.21,521.01c-6.95,24.09-9.23,45.7-7.34,64.95c3.61,36.66,22.26,64.79,52.62,85.81h8.99
	c-32.83-20.65-53.01-48.88-56.7-86.29c-1.83-18.65,0.4-39.64,7.17-63.13C358.69,3657.34,178.54,3461.74,0,3322.13z M0,3276.17v6.07
	c183.98,139.48,379.48,341.1,322.24,539.54c-6.95,24.09-9.22,45.7-7.33,64.95c5.51,55.94,46.02,92.06,109.77,113.27h16.86
	l-3.41-0.97c-68.7-20.01-112.7-55.73-118.32-112.78c-1.84-18.65,0.39-39.64,7.17-63.13C385.22,3621.2,185.89,3416.66,0,3276.17z
	 M0,3230.86v5.99c190.45,139.77,406.01,350.35,346.27,557.46c-6.95,24.1-9.23,45.71-7.34,64.96c5.85,59.4,51.16,96.44,121.85,117.03
	c69.98,20.39,165.02,24.63,271.19,18.54c271.44-15.6,616.31-98.86,801.71-152.86c153.76-44.79,316.77-6.7,463.01,70.36
	c48.37,25.49,94.9,55.24,138.65,87.66h8.24c-45.49-34.1-94.04-65.38-144.6-92.01c-147.28-77.61-311.54-115.92-466.68-70.74
	c-185.17,53.93-529.58,137.08-800.6,152.66c-105.68,6.06-200.16,1.87-269.55-18.34c-68.69-20.01-112.69-55.73-118.32-112.78
	c-1.83-18.65,0.4-39.64,7.17-63.12C411.78,3584.99,192.2,3371.52,0,3230.86z M0,3186.07v5.94
	c195.72,139.3,432.58,358.97,370.3,574.84c-6.95,24.1-9.23,45.71-7.34,64.96c5.85,59.4,51.16,96.44,121.85,117.03
	c69.98,20.38,165.01,24.63,271.19,18.53c271.44-15.6,616.31-98.85,801.71-152.85c153.77-44.79,316.77-6.7,463.01,70.36
	c61.74,32.53,120.48,72.01,174.29,115.12h7.83c-55.33-44.81-115.99-85.84-179.82-119.48c-147.28-77.6-311.54-115.92-466.69-70.74
	c-185.17,53.93-529.59,137.08-800.61,152.66c-105.68,6.06-200.15,1.87-269.54-18.34c-68.69-20.01-112.69-55.73-118.32-112.78
	c-1.83-18.65,0.4-39.64,7.17-63.13C438.35,3548.69,197.3,3326.12,0,3186.07z M0,3141.8v5.91
	c199.67,137.99,459.18,366.87,394.33,591.68c-6.95,24.1-9.23,45.71-7.33,64.96c5.85,59.4,51.16,96.44,121.84,117.03
	c69.98,20.39,165.02,24.63,271.19,18.53c271.45-15.6,616.31-98.85,801.71-152.85c153.76-44.79,316.77-6.7,463.01,70.36
	c74.63,39.32,144.89,88.79,207.34,142.58h7.51c-63.8-55.47-135.88-106.54-212.56-146.94c-147.27-77.6-311.54-115.92-466.68-70.73
	c-185.17,53.93-529.58,137.08-800.61,152.66c-105.68,6.07-200.15,1.87-269.54-18.34c-68.7-20.01-112.7-55.73-118.32-112.78
	c-1.84-18.65,0.39-39.64,7.17-63.13C464.97,3512.23,201.05,3280.41,0,3141.8z M0,3098.01v5.86
	c202.06,135.74,485.84,374.12,418.36,608.06c-6.95,24.1-9.23,45.7-7.34,64.96c5.85,59.4,51.16,96.44,121.85,117.03
	c69.98,20.39,165.02,24.63,271.19,18.53c271.44-15.6,616.31-98.85,801.71-152.85c153.76-44.79,316.77-6.7,463.01,70.36
	c87.18,45.94,168.38,105.71,238.14,170.04h7.25c-70.94-65.99-153.92-127.41-243.1-174.4c-147.28-77.6-311.54-115.92-466.69-70.74
	c-185.17,53.93-529.58,137.08-800.6,152.66c-105.69,6.07-200.16,1.87-269.55-18.34c-68.69-20.01-112.69-55.73-118.32-112.78
	c-1.83-18.65,0.4-39.64,7.17-63.12C491.67,3475.53,203.22,3234.21,0,3098.01z M0,3054.65c203.52,132.7,518.45,383.87,447.12,631.16
	c-6.77,23.48-9,44.48-7.17,63.13c5.63,57.04,49.63,92.76,118.32,112.78c69.39,20.21,163.87,24.4,269.54,18.33
	c271.02-15.58,615.44-98.73,800.61-152.66c155.15-45.19,319.4-6.86,466.68,70.74c101.44,53.46,194.84,125.58,271.66,201.86h-6.99
	c-75.79-74.66-167.49-145.08-266.96-197.5c-146.24-77.06-309.25-115.15-463.01-70.36c-185.4,54-530.26,137.26-801.71,152.85
	c-106.18,6.1-201.2,1.85-271.19-18.53c-70.69-20.59-116-57.63-121.85-117.03c-1.89-19.26,0.39-40.86,7.34-64.96
	C512.6,3441.09,202.62,3192.9,0,3060.49V3054.65z"/>
</svg>
