<?xml version="1.0" encoding="utf-8"?>
<!-- Generator: Adobe Illustrator 25.4.1, SVG Export Plug-In . SVG Version: 6.00 Build 0)  -->
<svg version="1.1" id="Layer_1" xmlns="http://www.w3.org/2000/svg" xmlns:xlink="http://www.w3.org/1999/xlink" x="0px" y="0px"
	 viewBox="0 0 7000 4000" style="enable-background:new 0 0 7000 4000;" xml:space="preserve">
<style type="text/css">
	.st0{fill-rule:evenodd;clip-rule:evenodd;fill:#F5F5F5;}
	
		.st1{clip-path:url(#SVGID_00000119117881043685410300000000526031497952675761_);fill:url(#SVGID_00000081648286089119707850000001441587453408163996_);}
	
		.st2{clip-path:url(#SVGID_00000110452017553863487120000015876903826353345411_);fill:url(#SVGID_00000150086297540555171270000013552794675221829557_);}
	
		.st3{clip-path:url(#SVGID_00000075868354426709441300000017212939953559558791_);fill:url(#SVGID_00000106857621043116027930000014731132142141964195_);}
	
		.st4{clip-path:url(#SVGID_00000094611804789389692100000017437910372412743598_);fill:url(#SVGID_00000163060161951999421720000009629188152677151932_);}
	
		.st5{clip-path:url(#SVGID_00000067946956670657913890000004223032969144748938_);fill:url(#SVGID_00000036936692444739750780000000812159858213821617_);}
	
		.st6{clip-path:url(#SVGID_00000027586753012519712270000001710189782400728484_);fill:url(#SVGID_00000015331531970562228490000003499157562981291153_);}
	
		.st7{clip-path:url(#SVGID_00000080886199525394486460000012130075318846194079_);fill:url(#SVGID_00000160898794433569099370000010247410966412537262_);}
	
		.st8{clip-path:url(#SVGID_00000085954860298578910680000004072639197029480356_);fill:url(#SVGID_00000115482310518090491730000002387734861307460031_);}
	
		.st9{clip-path:url(#SVGID_00000055685884966902217160000012562847590241260713_);fill:url(#SVGID_00000153669821423776018950000001879247901537227910_);}
	
		.st10{clip-path:url(#SVGID_00000098193067755469234080000008340270261382291883_);fill:url(#SVGID_00000038388592860497638860000009517003437386987170_);}
	
		.st11{clip-path:url(#SVGID_00000060030329248557982880000003030878110105444788_);fill:url(#SVGID_00000085231544455477935240000012141109574230919085_);}
	
		.st12{clip-path:url(#SVGID_00000146480892738878865230000016944844125500185516_);fill:url(#SVGID_00000037652121266190214650000005975128858595628210_);}
	
		.st13{clip-path:url(#SVGID_00000105390212810707215440000008782668939654746006_);fill:url(#SVGID_00000125589367803710244520000001722631730012755072_);}
	
		.st14{clip-path:url(#SVGID_00000053532327037725504200000003514038370032149166_);fill:url(#SVGID_00000034807691399668052490000008138194376599064459_);}
	
		.st15{clip-path:url(#SVGID_00000079450204696405871790000003756189773608463504_);fill:url(#SVGID_00000167395746908631891280000007266877361905248189_);}
	
		.st16{clip-path:url(#SVGID_00000172427590802339018930000004184678440852339641_);fill:url(#SVGID_00000167385578183817548780000012782179259359835831_);}
	
		.st17{clip-path:url(#SVGID_00000004519271767262715310000009013396881267998371_);fill:url(#SVGID_00000131352069316447239340000008035999853262343578_);}
	
		.st18{clip-path:url(#SVGID_00000117676964680812489810000001638523593371392426_);fill:url(#SVGID_00000176757073472053978910000002164869894900593042_);}
	
		.st19{clip-path:url(#SVGID_00000121247969965984952950000010697747928787883186_);fill:url(#SVGID_00000086694227573838171540000010612016451913909649_);}
	
		.st20{clip-path:url(#SVGID_00000133495419398741474860000009146489811497170341_);fill:url(#SVGID_00000064323800501603136770000009322060138658212002_);}
	
		.st21{clip-path:url(#SVGID_00000085253119123961447100000013122990570338743439_);fill:url(#SVGID_00000042009323513547365540000006404963505135258533_);}
	
		.st22{clip-path:url(#SVGID_00000010291952276719390780000014690634650878713775_);fill:url(#SVGID_00000161634098988491717420000011551765238021342093_);}
	
		.st23{clip-path:url(#SVGID_00000006695420340697339860000009391287282609847967_);fill:url(#SVGID_00000154422471883769013510000015768946379475443866_);}
	
		.st24{clip-path:url(#SVGID_00000116220407711730552000000009211027313877719168_);fill:url(#SVGID_00000176030447851355380860000005176255114433842089_);}
	
		.st25{clip-path:url(#SVGID_00000166650816124285734550000010410617580167613826_);fill:url(#SVGID_00000026867772233565240440000013500917776548136377_);}
	
		.st26{clip-path:url(#SVGID_00000155140873301206865730000010873958123548168879_);fill:url(#SVGID_00000121987463596877875530000013442940789017365396_);}
	
		.st27{clip-path:url(#SVGID_00000106858386520659232180000001511266533630152576_);fill:url(#SVGID_00000065775152119487740090000010881375005017805231_);}
	
		.st28{clip-path:url(#SVGID_00000019637232745859236490000016535438796558018442_);fill:url(#SVGID_00000093894625097794362690000011018405418494039732_);}
	
		.st29{clip-path:url(#SVGID_00000068639423469333616400000010712234537789670281_);fill:url(#SVGID_00000080922992831037226830000012702180936964904622_);}
	
		.st30{clip-path:url(#SVGID_00000137839402939336588230000005253712928336475064_);fill:url(#SVGID_00000147220758027348499340000014241514073556285859_);}
	
		.st31{clip-path:url(#SVGID_00000116940909889911788060000001803659659609006264_);fill:url(#SVGID_00000162352763807734313730000014269271498263944604_);}
	
		.st32{clip-path:url(#SVGID_00000140002183610135508790000016669367549719624363_);fill:url(#SVGID_00000142898550321884489910000003208096027134571163_);}
	
		.st33{clip-path:url(#SVGID_00000148650607222484682100000008124991653059330487_);fill:url(#SVGID_00000091702270575725466690000013563649554467810947_);}
	
		.st34{clip-path:url(#SVGID_00000166671980146422809700000010507192927221346218_);fill:url(#SVGID_00000075868586436311076030000001590726367376970175_);}
	
		.st35{clip-path:url(#SVGID_00000032606548804501195530000013708432561782948226_);fill:url(#SVGID_00000141435436232574823470000001585918751542829960_);}
	
		.st36{clip-path:url(#SVGID_00000057127593585358479970000004715731006838503358_);fill:url(#SVGID_00000157273011939514834430000010982198645551544469_);}
	
		.st37{clip-path:url(#SVGID_00000010270059030089435740000009190518548268533120_);fill:url(#SVGID_00000040537822951155932050000002746851409564008867_);}
	
		.st38{clip-path:url(#SVGID_00000139983890267113378990000010873412786378922113_);fill:url(#SVGID_00000033358199925622912520000014571174106021373324_);}
	
		.st39{clip-path:url(#SVGID_00000065779601274238476070000004568065298788400776_);fill:url(#SVGID_00000090276976955541227120000006540606059504061876_);}
	
		.st40{clip-path:url(#SVGID_00000013161825376031730910000017452375764684092296_);fill:url(#SVGID_00000057845952677566382230000000096864902214985400_);}
	
		.st41{clip-path:url(#SVGID_00000062166639106909094590000003046992781382385086_);fill:url(#SVGID_00000082364490426751109350000017603713529047493258_);}
	
		.st42{clip-path:url(#SVGID_00000030447478965796904760000007881514160838080945_);fill:url(#SVGID_00000029018855781351456460000008131587701968862616_);}
	
		.st43{clip-path:url(#SVGID_00000000905593303146373160000000692076603954238601_);fill:url(#SVGID_00000054254571540693445750000018255411591691002285_);}
	
		.st44{clip-path:url(#SVGID_00000119805524477794966620000012771742525927927216_);fill:url(#SVGID_00000083786487343878326180000000961082490970180511_);}
	
		.st45{clip-path:url(#SVGID_00000060026442066777984270000002436239632848748708_);fill:url(#SVGID_00000073696089636748327130000003110548553816497538_);}
	
		.st46{clip-path:url(#SVGID_00000147904114155153694570000003268279446367089319_);fill:url(#SVGID_00000106840767011767430370000014419409244267016356_);}
	
		.st47{clip-path:url(#SVGID_00000044161073514162062000000014244744987798880950_);fill:url(#SVGID_00000126304189115203813240000008972899810653553574_);}
	
		.st48{clip-path:url(#SVGID_00000101064291712846709890000007555171042843327921_);fill:url(#SVGID_00000000215399507167066160000004491521445319685271_);}
	
		.st49{clip-path:url(#SVGID_00000087395000433186847030000007936037451845536663_);fill:url(#SVGID_00000013903391005994735800000003912517196285681792_);}
	
		.st50{clip-path:url(#SVGID_00000014631355327306750600000004841100759249844621_);fill:url(#SVGID_00000103264471828898393470000009252618402024579975_);}
	
		.st51{clip-path:url(#SVGID_00000176030455872821103790000014845675720153828492_);fill:url(#SVGID_00000094609841526421109800000008792726557696699580_);}
	
		.st52{clip-path:url(#SVGID_00000102524774432789100020000004098254259312792495_);fill:url(#SVGID_00000104676446431316018740000017712023084210684544_);}
</style>
<rect x="1.08" y="1.69" class="st0" width="6998.8" height="3999.33"/>
<g>
	<defs>
		<path id="SVGID_1_" d="M2841.27,1.69c-3.03,8.67-6.18,17.21-9.48,25.58c-116.62,295.85-399.34,404.25-926.7,319.5
			c-525.59-84.47-721.53,26.18-716.68,254.62c4.86,229.07,210.85,576.45,488.88,964.5c205.91,287.39,319.55,614.46,327.23,894.61
			c4.23,154.39-23.73,294.56-86.16,406.03c-62.46,111.55-159.44,194.36-293.2,233.92c-146.12,43.22-336.14,34.82-573.02-44.12
			c-253.62-84.52-466.26-77.69-631.21-5.73c-134.72,58.78-237.66,161.03-305.12,292.46c-67.5,131.5-99.5,292.21-92.33,467.82
			c2.52,61.74,9.89,125.32,22.26,190.12h-2.54c-12.33-64.76-19.7-128.31-22.21-190.02c-7.18-176.05,24.91-337.18,92.59-469.05
			c67.72-131.94,171.07-234.6,306.35-293.62c165.49-72.2,378.75-79.09,633,5.65c236.37,78.77,425.87,87.18,571.52,44.1
			c133.09-39.37,229.56-121.76,291.73-232.75c62.2-111.07,90.05-250.8,85.83-404.74c-7.65-279.68-121.14-606.24-326.76-893.22
			c-278.29-388.42-484.47-736.23-489.35-965.91c-4.89-230.3,191.85-341.96,719.59-257.15c525.96,84.52,807.85-23.36,923.97-317.94
			c3.18-8.08,6.22-16.32,9.15-24.67H2841.27z"/>
	</defs>
	<clipPath id="SVGID_00000109019617362958599640000009189113661574948286_">
		<use xlink:href="#SVGID_1_"  style="overflow:visible;"/>
	</clipPath>
	
		<linearGradient id="SVGID_00000153700468480724295860000016292406885446075016_" gradientUnits="userSpaceOnUse" x1="284.4087" y1="3818.5801" x2="2897.6489" y2="-335.6759">
		<stop  offset="0" style="stop-color:#39D4FF"/>
		<stop  offset="0.53" style="stop-color:#FFF100"/>
		<stop  offset="1" style="stop-color:#FF00E9"/>
	</linearGradient>
	
		<rect x="13.8" y="1.69" style="clip-path:url(#SVGID_00000109019617362958599640000009189113661574948286_);fill:url(#SVGID_00000153700468480724295860000016292406885446075016_);" width="2827.47" height="3999.33"/>
</g>
<g>
	<defs>
		<path id="SVGID_00000085967945076019865790000009614417558384305282_" d="M2871.63,1.69c-5.91,17.36-12.28,34.16-19.17,50.35
			c-124.52,292.61-410.05,393.38-934.95,294.5c-523.14-98.55-721.98,6.8-723.27,235.29c-1.29,229.11,195.29,581.9,462.81,977.28
			c198.12,292.82,302.94,622.82,303.09,903.08c0.08,154.44-31.63,293.81-97.02,403.57c-65.45,109.84-164.6,190.01-299.38,225.97
			c-147.22,39.29-336.95,25.78-571.63-59.49c-251.26-91.3-464.01-90.18-630.83-22.67c-136.26,55.14-241.9,154.59-312.86,284.16
			c-18.05,32.96-33.86,67.87-47.35,104.5v-7.16c13.01-34.45,28.08-67.37,45.15-98.54c71.24-130.07,177.31-229.92,314.12-285.29
			c167.37-67.73,380.74-68.89,632.62,22.64c234.16,85.09,423.38,98.58,570.13,59.42c134.1-35.78,232.76-115.54,297.87-224.82
			c65.16-109.35,96.75-248.29,96.67-402.3c-0.15-279.78-104.82-609.27-302.66-901.67c-267.76-395.75-464.53-748.97-463.23-978.69
			c1.29-230.34,200.96-336.69,726.23-237.74c523.51,98.62,808.19-1.66,932.18-293.02c6.76-15.88,13.01-32.36,18.83-49.38H2871.63z"
			/>
	</defs>
	<clipPath id="SVGID_00000018222909148905534320000012566756033060529590_">
		<use xlink:href="#SVGID_00000085967945076019865790000009614417558384305282_"  style="overflow:visible;"/>
	</clipPath>
	
		<linearGradient id="SVGID_00000045616453073074328450000017378036948243377038_" gradientUnits="userSpaceOnUse" x1="154.8893" y1="3737.105" x2="2768.1323" y2="-417.1554">
		<stop  offset="0" style="stop-color:#39D4FF"/>
		<stop  offset="0.53" style="stop-color:#FFF100"/>
		<stop  offset="1" style="stop-color:#FF00E9"/>
	</linearGradient>
	
		<rect x="1.08" y="1.69" style="clip-path:url(#SVGID_00000018222909148905534320000012566756033060529590_);fill:url(#SVGID_00000045616453073074328450000017378036948243377038_);" width="2870.55" height="3396.53"/>
</g>
<g>
	<defs>
		<path id="SVGID_00000092453227559135384470000005373602286484302761_" d="M2901.39,1.69c-9.05,27.43-19.15,53.49-30.41,78.09
			c-132.33,289.15-420.46,382.22-942.52,269.29c-520.3-112.56-721.9-12.58-729.31,215.79c-7.44,229,179.6,586.93,436.4,989.35
			c190.18,298.04,286.12,630.73,278.74,910.89c-4.07,154.38-39.51,292.85-107.83,400.81c-68.37,108.04-169.65,185.53-305.34,217.85
			c-148.23,35.31-337.52,16.72-569.82-74.82c-248.72-98.01-461.42-102.6-629.99-39.6C175.58,3016.35,74.38,3100.98,1.08,3212.5
			v-4.55c73.41-110.39,174.29-194.2,299.35-240.94c169.13-63.22,382.44-58.64,631.78,39.62c231.79,91.34,420.58,109.91,568.33,74.71
			c135.01-32.16,235.78-109.26,303.8-216.75c68.07-107.56,103.37-245.6,107.43-399.55c7.37-279.7-88.43-611.87-278.34-909.47
			c-257.04-402.79-444.26-761.17-436.8-990.78c7.48-230.23,209.92-331.17,732.36-218.15c520.67,112.64,807.94,20.04,939.7-267.9
			c11.11-24.28,21.1-49.99,30.05-77.04H2901.39z"/>
	</defs>
	<clipPath id="SVGID_00000129189536196543415310000010070699791947201421_">
		<use xlink:href="#SVGID_00000092453227559135384470000005373602286484302761_"  style="overflow:visible;"/>
	</clipPath>
	
		<linearGradient id="SVGID_00000035519913841230471560000001976417834605379245_" gradientUnits="userSpaceOnUse" x1="123.6956" y1="3717.4783" x2="2736.9429" y2="-436.7891">
		<stop  offset="0" style="stop-color:#39D4FF"/>
		<stop  offset="0.53" style="stop-color:#FFF100"/>
		<stop  offset="1" style="stop-color:#FF00E9"/>
	</linearGradient>
	
		<rect x="1.08" y="1.69" style="clip-path:url(#SVGID_00000129189536196543415310000010070699791947201421_);fill:url(#SVGID_00000035519913841230471560000001976417834605379245_);" width="2900.3" height="3210.8"/>
</g>
<g>
	<defs>
		<path id="SVGID_00000095331790082581455980000015051291725649788820_" d="M2930.41,1.69c-12.4,38.98-26.73,75.26-43.16,108.75
			c-140.05,285.5-430.57,370.8-949.41,243.89c-517.09-126.49-721.3-31.97-734.85,196.13c-13.58,228.71,163.77,591.54,409.69,1000.71
			c182.11,303.03,269.07,638.17,254.17,918.04c-8.21,154.23-47.35,291.7-118.54,397.78c-71.24,106.16-174.56,180.9-311.07,209.57
			c-149.12,31.32-337.85,7.66-567.61-90.09c-245.99-104.65-458.5-114.96-628.7-56.5c-93.07,31.96-173.5,84.5-239.85,153.41v-3.6
			c66.28-68.28,146.42-120.38,239.04-152.19c170.76-58.65,383.88-48.34,630.48,56.57c229.26,97.53,417.48,121.17,566.12,89.94
			c135.82-28.53,238.62-102.89,309.5-208.52c70.94-105.7,109.94-242.73,118.13-396.52c14.87-279.39-71.97-614.02-253.82-916.62
			c-246.14-409.55-423.66-772.83-410.04-1002.15c13.66-229.94,218.74-325.41,737.95-198.41c517.46,126.57,807.1,41.72,946.55-242.56
			c16.27-33.16,30.47-69.07,42.78-107.64H2930.41z"/>
	</defs>
	<clipPath id="SVGID_00000085944777714262685890000000400926722694955953_">
		<use xlink:href="#SVGID_00000095331790082581455980000015051291725649788820_"  style="overflow:visible;"/>
	</clipPath>
	
		<linearGradient id="SVGID_00000062899450740538224300000012102948472568854460_" gradientUnits="userSpaceOnUse" x1="110.5199" y1="3709.1934" x2="2723.7656" y2="-445.0714">
		<stop  offset="0" style="stop-color:#39D4FF"/>
		<stop  offset="0.53" style="stop-color:#FFF100"/>
		<stop  offset="1" style="stop-color:#FF00E9"/>
	</linearGradient>
	
		<rect x="1.08" y="1.69" style="clip-path:url(#SVGID_00000085944777714262685890000000400926722694955953_);fill:url(#SVGID_00000062899450740538224300000012102948472568854460_);" width="2929.33" height="3106.2"/>
</g>
<g>
	<defs>
		<path id="SVGID_00000126322257647175145180000010638194517854515585_" d="M2958.63,1.69c-15.98,52.08-35.01,99.53-57.41,142.25
			c-147.67,281.64-440.38,359.11-955.61,218.32c-513.51-140.32-720.19-51.32-739.86,176.33
			c-19.72,228.26,147.84,595.73,382.67,1011.35c173.91,307.81,251.85,645.17,229.44,924.53
			c-12.35,153.96-55.17,290.32-129.18,394.45c-74.06,104.21-179.36,176.15-316.59,201.15c-149.91,27.31-337.93-1.41-564.98-105.3
			c-243.1-111.22-455.24-127.22-626.95-73.36c-65.8,20.64-125.67,51.55-179.07,91.29v-3.12c53.24-39.37,112.85-70.03,178.32-90.57
			c172.28-54.04,385.04-38.02,628.74,73.47c226.55,103.65,414.07,132.33,563.5,105.11c136.54-24.88,241.29-96.45,314.99-200.13
			c73.75-103.76,116.42-239.7,128.73-393.21c22.37-278.89-55.45-615.73-229.13-923.1c-235.05-416.01-402.75-783.92-382.98-1012.8
			c19.83-229.49,227.4-319.42,743.01-178.53c513.87,140.42,805.69,63.38,952.73-217.06c22.23-42.39,41.13-89.46,57.02-141.1H2958.63
			z"/>
	</defs>
	<clipPath id="SVGID_00000063618164827884840660000008028661963877303741_">
		<use xlink:href="#SVGID_00000126322257647175145180000010638194517854515585_"  style="overflow:visible;"/>
	</clipPath>
	
		<linearGradient id="SVGID_00000163047911996651045150000016103378156417207939_" gradientUnits="userSpaceOnUse" x1="118.2621" y1="3714.0645" x2="2731.5159" y2="-440.2129">
		<stop  offset="0" style="stop-color:#39D4FF"/>
		<stop  offset="0.53" style="stop-color:#FFF100"/>
		<stop  offset="1" style="stop-color:#FF00E9"/>
	</linearGradient>
	
		<rect x="1.08" y="1.69" style="clip-path:url(#SVGID_00000063618164827884840660000008028661963877303741_);fill:url(#SVGID_00000163047911996651045150000016103378156417207939_);" width="2957.55" height="3095.7"/>
</g>
<g>
	<defs>
		<path id="SVGID_00000085250783512956263260000011193855355532768156_" d="M2985.99,1.69c-19.8,66.8-44.03,126.36-73.21,178.56
			c-155.17,277.57-449.86,347.16-961.13,192.59c-509.56-154.06-718.55-70.64-744.32,156.4
			c-25.84,227.66,131.79,599.48,355.38,1021.26c165.59,312.37,234.43,651.7,204.54,930.36c-16.48,153.56-62.95,288.73-139.73,390.84
			c-76.84,102.19-184.02,171.27-321.88,192.57c-150.59,23.28-337.77-10.48-561.96-120.42c-240.02-117.7-451.66-139.4-624.76-90.17
			c-41.55,11.82-80.88,27.73-117.85,47.38v-2.83c36.78-19.44,75.88-35.21,117.16-46.96c173.67-49.4,385.93-27.68,626.55,90.32
			c223.69,109.7,410.37,143.4,560.47,120.2c137.16-21.2,243.81-89.93,320.25-191.6c76.51-101.75,122.81-236.49,139.24-389.62
			c29.85-278.19-38.9-617-204.25-928.92c-223.8-422.18-381.57-794.45-355.66-1022.71c25.98-228.88,235.89-313.21,747.53-158.52
			c509.93,154.17,803.71,84.98,958.22-191.4c28.99-51.86,53.09-111.01,72.8-177.34H2985.99z"/>
	</defs>
	<clipPath id="SVGID_00000017505151512062400860000013275681708834201994_">
		<use xlink:href="#SVGID_00000085250783512956263260000011193855355532768156_"  style="overflow:visible;"/>
	</clipPath>
	
		<linearGradient id="SVGID_00000042702680207033092170000006734595017438648985_" gradientUnits="userSpaceOnUse" x1="125.8478" y1="3718.833" x2="2739.0974" y2="-435.4377">
		<stop  offset="0" style="stop-color:#39D4FF"/>
		<stop  offset="0.53" style="stop-color:#FFF100"/>
		<stop  offset="1" style="stop-color:#FF00E9"/>
	</linearGradient>
	
		<rect x="1.08" y="1.69" style="clip-path:url(#SVGID_00000017505151512062400860000013275681708834201994_);fill:url(#SVGID_00000042702680207033092170000006734595017438648985_);" width="2984.91" height="3085.86"/>
</g>
<g>
	<defs>
		<path id="SVGID_00000072269138921459842250000018172222905998548148_" d="M3012.42,1.69c-23.92,83.2-53.78,155.82-90.53,217.59
			c-162.57,273.3-459.02,334.95-965.96,166.71c-505.24-167.68-716.4-89.9-748.25,136.36c-31.95,226.88,115.64,602.8,327.83,1030.44
			c157.14,316.7,216.85,657.76,179.48,935.52c-20.59,153.07-70.67,286.94-150.17,386.95c-79.56,100.08-188.56,166.27-326.93,183.87
			c-151.17,19.22-337.37-19.55-558.52-135.47c-236.77-124.11-447.76-151.48-622.12-106.91c-19.18,4.9-37.91,10.68-56.18,17.3v-2.67
			c18.08-6.51,36.6-12.21,55.56-17.06c174.93-44.72,386.53-17.3,623.9,107.11c220.66,115.67,406.37,154.37,557.04,135.21
			c137.68-17.51,246.13-83.36,325.29-182.94c79.21-99.65,129.11-233.1,149.65-385.74c37.3-277.29-22.32-617.81-179.25-934.07
			c-212.38-428.03-360.09-804.41-328.06-1031.89c32.12-228.1,244.21-306.76,751.51-138.4c505.6,167.8,801.13,106.53,963.01-165.61
			c36.54-61.42,66.26-133.62,90.09-216.31H3012.42z"/>
	</defs>
	<clipPath id="SVGID_00000119815973815960720330000013481622770130383541_">
		<use xlink:href="#SVGID_00000072269138921459842250000018172222905998548148_"  style="overflow:visible;"/>
	</clipPath>
	
		<linearGradient id="SVGID_00000034086453273936011460000004404529058079048620_" gradientUnits="userSpaceOnUse" x1="133.2387" y1="3723.4849" x2="2746.4922" y2="-430.7923">
		<stop  offset="0" style="stop-color:#39D4FF"/>
		<stop  offset="0.53" style="stop-color:#FFF100"/>
		<stop  offset="1" style="stop-color:#FF00E9"/>
	</linearGradient>
	
		<rect x="1.08" y="1.69" style="clip-path:url(#SVGID_00000119815973815960720330000013481622770130383541_);fill:url(#SVGID_00000034086453273936011460000004404529058079048620_);" width="3011.34" height="3076.65"/>
</g>
<g>
	<defs>
		<path id="SVGID_00000044881930159280558070000000185780324803407545_" d="M3037.99,1.69c-28.41,101.35-64.45,187.9-109.54,259.28
			c-169.85,268.84-467.84,322.51-970.08,140.72c-500.56-181.19-713.72-109.1-751.64,116.22
			c-38.03,225.94,99.42,605.69,300.05,1038.86c148.58,320.81,199.11,663.35,154.3,940c-24.7,152.46-78.35,284.93-160.51,382.78
			c-82.21,97.92-192.95,161.15-331.75,175.02c-151.61,15.16-336.71-28.6-554.67-150.42c-230.72-128.95-438.78-162.68-613.06-124.88
			v-2.57c174.75-37.73,383.22-3.88,614.29,125.27c217.48,121.54,402.08,165.22,553.21,150.11
			c138.1-13.81,248.28-76.72,330.08-174.13c81.85-97.48,135.32-229.55,159.95-381.58c44.73-276.19-5.73-618.19-154.1-938.54
			c-200.82-433.58-338.37-813.79-300.25-1040.33c38.23-227.15,252.36-300.09,754.96-118.16c500.91,181.32,797.99,128,967.11-139.69
			c44.87-71.02,80.76-157.13,109.07-257.94H3037.99z"/>
	</defs>
	<clipPath id="SVGID_00000074428860914390393760000007414489853795128718_">
		<use xlink:href="#SVGID_00000044881930159280558070000000185780324803407545_"  style="overflow:visible;"/>
	</clipPath>
	
		<linearGradient id="SVGID_00000106856228667187412650000011195825580180452271_" gradientUnits="userSpaceOnUse" x1="140.4589" y1="3728.0244" x2="2753.6912" y2="-426.2189">
		<stop  offset="0" style="stop-color:#39D4FF"/>
		<stop  offset="0.53" style="stop-color:#FFF100"/>
		<stop  offset="1" style="stop-color:#FF00E9"/>
	</linearGradient>
	
		<rect x="1.08" y="1.69" style="clip-path:url(#SVGID_00000074428860914390393760000007414489853795128718_);fill:url(#SVGID_00000106856228667187412650000011195825580180452271_);" width="3036.91" height="3068.03"/>
</g>
<g>
	<defs>
		<path id="SVGID_00000026864884483700054110000017908904496885719220_" d="M3062.66,1.69c-33.38,121.25-76.05,222.67-130.25,303.56
			c-177,264.18-476.33,309.83-973.5,114.62c-495.51-194.56-710.53-128.22-754.49,96c-44.08,224.84,83.12,608.14,272.04,1046.54
			c139.92,324.67,181.23,668.45,129.01,943.8c-28.78,151.74-85.97,282.73-170.73,378.34c-84.81,95.67-197.21,155.9-336.33,166.05
			c-151.98,11.08-335.83-37.63-550.44-165.25c-200.68-119.34-385.68-163.93-546.89-149.9v-2.51
			c161.67-14.03,347.1,30.68,548.17,150.25c214.14,127.35,397.5,175.96,548.98,164.91c138.43-10.09,250.25-70.02,334.63-165.21
			c84.44-95.26,141.44-225.84,170.14-377.15c52.14-274.89,10.87-618.14-128.84-942.35c-189.1-438.81-316.4-822.58-272.2-1048.02
			c44.31-226.04,260.32-293.21,757.85-97.85c495.87,194.7,794.27,149.38,970.51-113.68c53.95-80.53,96.47-181.48,129.75-302.16
			H3062.66z"/>
	</defs>
	<clipPath id="SVGID_00000127026331835432488240000009180469237538654131_">
		<use xlink:href="#SVGID_00000026864884483700054110000017908904496885719220_"  style="overflow:visible;"/>
	</clipPath>
	
		<linearGradient id="SVGID_00000154412282605520996460000015559507628679952809_" gradientUnits="userSpaceOnUse" x1="147.484" y1="3732.4431" x2="2760.7302" y2="-421.8224">
		<stop  offset="0" style="stop-color:#39D4FF"/>
		<stop  offset="0.53" style="stop-color:#FFF100"/>
		<stop  offset="1" style="stop-color:#FF00E9"/>
	</linearGradient>
	
		<rect x="1.08" y="1.69" style="clip-path:url(#SVGID_00000127026331835432488240000009180469237538654131_);fill:url(#SVGID_00000154412282605520996460000015559507628679952809_);" width="3061.58" height="3059.99"/>
</g>
<g>
	<defs>
		<path id="SVGID_00000114781652303293273590000000395325918419577014_" d="M3086.56,1.69c-38.93,142.96-88.83,260.11-152.87,350.36
			c-184.03,259.34-484.48,296.93-976.24,88.44c-490.1-207.8-706.83-147.25-756.8,75.71c-50.09,223.58,66.76,610.15,243.86,1053.47
			c131.14,328.32,163.22,673.08,103.62,946.93c-32.84,150.92-93.53,280.32-180.82,373.62c-87.35,93.36-201.32,150.56-340.67,156.96
			c-152.21,7-334.69-46.64-545.8-179.98c-172.22-108.77-334.02-160.35-479.76-165.3v-2.51c146.19,4.95,308.45,56.65,481.09,165.69
			c210.64,133.04,392.64,186.56,544.37,179.59c138.64-6.38,252.03-63.28,338.94-156.16c86.97-92.96,147.45-221.96,180.2-372.44
			c59.49-273.39,27.46-617.61-103.5-945.46c-177.25-443.73-294.2-830.78-243.97-1054.95c50.37-224.77,268.11-286.1,760.22-77.46
			c490.46,207.94,789.96,170.65,973.21-87.58c63.78-89.88,113.5-206.55,152.34-348.91H3086.56z"/>
	</defs>
	<clipPath id="SVGID_00000147903291405328142780000011695404870389423765_">
		<use xlink:href="#SVGID_00000114781652303293273590000000395325918419577014_"  style="overflow:visible;"/>
	</clipPath>
	
		<linearGradient id="SVGID_00000119118404817443904800000012468863577255226767_" gradientUnits="userSpaceOnUse" x1="154.3533" y1="3736.7664" x2="2767.6047" y2="-417.5073">
		<stop  offset="0" style="stop-color:#39D4FF"/>
		<stop  offset="0.53" style="stop-color:#FFF100"/>
		<stop  offset="1" style="stop-color:#FF00E9"/>
	</linearGradient>
	
		<rect x="1.08" y="1.69" style="clip-path:url(#SVGID_00000147903291405328142780000011695404870389423765_);fill:url(#SVGID_00000119118404817443904800000012468863577255226767_);" width="3085.48" height="3052.48"/>
</g>
<g>
	<defs>
		<path id="SVGID_00000157297891658524529300000005356621828056863385_" d="M3109.77,1.69c-45.24,166.5-102.93,300.23-177.55,399.61
			c-190.93,254.3-492.28,283.82-978.25,62.2c-484.36-220.88-702.63-166.18-758.56,55.36c-56.08,222.15,50.36,611.73,215.48,1059.64
			c122.29,331.72,145.1,677.21,78.17,949.37c-36.89,149.98-101.03,277.71-190.79,368.62c-89.83,90.99-205.29,145.1-344.75,147.76
			c-152.35,2.91-333.33-55.6-540.79-194.56c-144.96-97.1-283.42-152.05-411.64-171.38v-2.54
			c128.68,19.34,267.62,74.42,413.05,171.84c206.99,138.65,387.48,197.04,539.34,194.14c138.76-2.65,253.65-56.49,343.02-147.01
			c89.44-90.59,153.36-217.92,190.14-367.47c66.82-271.7,44.03-616.66-78.08-947.91c-165.28-448.33-271.79-838.37-215.56-1061.11
			c56.38-223.34,275.69-278.81,762.02-57.03c484.7,221.03,785.1,191.79,975.21-61.42c74.33-99,131.85-232.23,176.98-398.1H3109.77z"
			/>
	</defs>
	<clipPath id="SVGID_00000084507367710148942340000005809968404678305414_">
		<use xlink:href="#SVGID_00000157297891658524529300000005356621828056863385_"  style="overflow:visible;"/>
	</clipPath>
	
		<linearGradient id="SVGID_00000114049429570257561970000008002583150714470281_" gradientUnits="userSpaceOnUse" x1="161.0866" y1="3741.001" x2="2774.3403" y2="-413.2766">
		<stop  offset="0" style="stop-color:#39D4FF"/>
		<stop  offset="0.53" style="stop-color:#FFF100"/>
		<stop  offset="1" style="stop-color:#FF00E9"/>
	</linearGradient>
	
		<rect x="1.08" y="1.69" style="clip-path:url(#SVGID_00000084507367710148942340000005809968404678305414_);fill:url(#SVGID_00000114049429570257561970000008002583150714470281_);" width="3108.69" height="3045.47"/>
</g>
<g>
	<defs>
		<path id="SVGID_00000132806719620024804980000016334216105705251970_" d="M3132.35,1.69
			c-52.42,191.83-118.53,343.03-204.41,451.22c-197.69,249.09-499.72,270.5-979.57,35.92c-478.25-233.8-697.92-184.99-759.78,34.98
			c-62.02,220.56,33.92,612.86,186.96,1065.04c113.33,334.88,126.86,680.86,52.64,951.12c-40.89,148.94-108.44,274.9-200.61,363.37
			c-92.24,88.54-209.12,139.53-348.6,138.45c-152.38-1.18-331.71-64.53-535.36-209.01c-118.67-84.2-233.61-138.96-342.55-168.03
			v-2.6c109.41,29.1,224.84,84.04,344,168.58c203.21,144.16,382.06,207.37,533.94,208.55c138.78,1.08,255.07-49.66,346.84-137.75
			c91.84-88.15,159.16-213.72,199.94-362.23c74.08-269.8,60.57-615.25-52.6-949.66c-153.18-452.61-249.18-845.37-186.99-1066.51
			c62.36-221.75,283.08-271.31,763.27-36.56c478.6,233.97,779.68,212.81,976.52-35.21c85.56-107.81,151.48-258.49,203.78-449.67
			H3132.35z"/>
	</defs>
	<clipPath id="SVGID_00000147938339561638197350000009781218540358946731_">
		<use xlink:href="#SVGID_00000132806719620024804980000016334216105705251970_"  style="overflow:visible;"/>
	</clipPath>
	
		<linearGradient id="SVGID_00000050663729609039692700000003981258098005854127_" gradientUnits="userSpaceOnUse" x1="168.212" y1="3745.4817" x2="2781.4541" y2="-408.7774">
		<stop  offset="0" style="stop-color:#39D4FF"/>
		<stop  offset="0.53" style="stop-color:#FFF100"/>
		<stop  offset="1" style="stop-color:#FF00E9"/>
	</linearGradient>
	
		<rect x="1.08" y="1.69" style="clip-path:url(#SVGID_00000147938339561638197350000009781218540358946731_);fill:url(#SVGID_00000050663729609039692700000003981258098005854127_);" width="3131.27" height="3041.18"/>
</g>
<g>
	<defs>
		<path id="SVGID_00000160161074473240318000000009699350579854280577_" d="M3154.48,1.69
			c-60.66,218.97-135.88,388.48-233.67,505.13c-204.3,243.69-506.8,256.99-980.18,9.6c-471.8-246.55-692.7-203.66-760.44,14.57
			c-67.92,218.82,17.46,613.54,158.3,1069.67c104.31,337.8,108.53,684.02,27.09,952.19c-44.88,147.79-115.79,271.89-210.3,357.86
			c-94.58,86.03-212.79,133.86-352.19,129.04c-152.28-5.28-329.86-73.42-529.56-223.31c-93.1-69.88-184.32-120.87-272.44-154.85
			v-2.69c88.61,34.06,180.34,85.27,273.95,155.54c199.25,149.56,376.35,217.55,528.14,222.8c138.71,4.81,256.31-42.79,350.41-128.38
			c94.17-85.65,164.83-209.37,209.58-356.73c81.3-267.72,77.07-613.4-27.08-950.73c-140.97-456.56-226.4-851.75-158.3-1071.15
			c68.29-219.99,290.26-263.61,763.99-16.05c472.14,246.74,773.68,233.67,977.11-8.98c97.47-116.26,172.48-285.24,233-503.53
			H3154.48z"/>
	</defs>
	<clipPath id="SVGID_00000049907290942093576130000005754532987292907414_">
		<use xlink:href="#SVGID_00000160161074473240318000000009699350579854280577_"  style="overflow:visible;"/>
	</clipPath>
	
		<linearGradient id="SVGID_00000071545083896763894790000018256517848276727178_" gradientUnits="userSpaceOnUse" x1="176.5254" y1="3750.7119" x2="2789.7671" y2="-403.5464">
		<stop  offset="0" style="stop-color:#39D4FF"/>
		<stop  offset="0.53" style="stop-color:#FFF100"/>
		<stop  offset="1" style="stop-color:#FF00E9"/>
	</linearGradient>
	
		<rect x="1.08" y="1.69" style="clip-path:url(#SVGID_00000049907290942093576130000005754532987292907414_);fill:url(#SVGID_00000071545083896763894790000018256517848276727178_);" width="3153.4" height="3042.9"/>
</g>
<g>
	<defs>
		<path id="SVGID_00000071521194208155727870000008159681319803802753_" d="M3176.29,1.69
			c-70.12,247.91-155.18,436.57-265.56,561.27c-210.78,238.12-513.52,243.29-980.09-16.71c-465.01-259.13-686.98-222.18-760.55-5.86
			c-73.77,216.92,0.97,613.8,129.52,1073.54c95.2,340.49,90.12,686.7,1.52,952.58c-48.83,146.52-123.04,268.68-219.84,352.08
			c-96.86,83.46-216.3,128.1-355.52,119.53c-152.09-9.36-327.77-82.25-523.37-237.44c-68.04-53.99-135.32-97.43-201.31-131.11v-2.82
			c66.5,33.83,134.3,77.55,202.87,131.96c195.17,154.86,370.37,227.58,521.96,236.91c138.53,8.53,257.38-35.9,353.74-118.94
			c96.44-83.09,170.39-204.86,219.08-350.97c88.47-265.44,93.51-611.11-1.54-951.11c-128.67-460.18-203.45-857.53-129.48-1075.02
			c74.17-218.08,297.23-255.73,764.15,4.46c465.34,259.32,767.12,254.35,976.99,17.25c110.03-124.3,194.88-312.41,264.85-559.61
			H3176.29z"/>
	</defs>
	<clipPath id="SVGID_00000109750437578938260170000013642659115823318144_">
		<use xlink:href="#SVGID_00000071521194208155727870000008159681319803802753_"  style="overflow:visible;"/>
	</clipPath>
	
		<linearGradient id="SVGID_00000148635143762048401270000000519908079800773252_" gradientUnits="userSpaceOnUse" x1="184.81" y1="3755.9265" x2="2798.0493" y2="-398.328">
		<stop  offset="0" style="stop-color:#39D4FF"/>
		<stop  offset="0.53" style="stop-color:#FFF100"/>
		<stop  offset="1" style="stop-color:#FF00E9"/>
	</linearGradient>
	
		<rect x="1.08" y="1.69" style="clip-path:url(#SVGID_00000109750437578938260170000013642659115823318144_);fill:url(#SVGID_00000148635143762048401270000000519908079800773252_);" width="3175.2" height="3045"/>
</g>
<g>
	<defs>
		<path id="SVGID_00000065062214695629151620000002577507672507719100_" d="M3197.95,1.69c-80.99,278.61-176.7,487.26-300.28,619.54
			c-217.09,232.37-519.87,229.41-979.29-43.03c-457.88-271.52-680.76-240.55-760.12-26.28c-79.57,214.86-15.5,613.6,100.65,1076.63
			c86.02,342.91,71.65,688.86-24.06,952.27c-52.75,145.17-130.21,265.28-229.2,346.05c-99.06,80.83-219.66,122.25-358.6,109.94
			c-151.79-13.44-325.45-91.01-516.81-251.41c-43.3-36.3-86.4-68.11-129.15-95.67v-2.98c43.28,27.82,86.91,59.99,130.75,96.74
			c190.94,160.04,364.13,237.44,515.42,250.84c138.25,12.24,258.24-28.98,356.8-109.39c98.63-80.48,175.83-200.23,228.43-344.97
			c95.55-262.96,109.88-608.38,23.98-950.81c-116.26-463.47-180.35-862.68-100.57-1078.11c80-216.01,303.99-247.66,763.75,24.98
			c458.21,271.72,760.02,274.86,976.18,43.48c123.21-131.89,218.69-339.96,299.52-617.84H3197.95z"/>
	</defs>
	<clipPath id="SVGID_00000129207172637742395320000011868577952927565753_">
		<use xlink:href="#SVGID_00000065062214695629151620000002577507672507719100_"  style="overflow:visible;"/>
	</clipPath>
	
		<linearGradient id="SVGID_00000106142538974120216860000012764198772334899130_" gradientUnits="userSpaceOnUse" x1="193.1225" y1="3761.156" x2="2806.3733" y2="-393.1167">
		<stop  offset="0" style="stop-color:#39D4FF"/>
		<stop  offset="0.53" style="stop-color:#FFF100"/>
		<stop  offset="1" style="stop-color:#FF00E9"/>
	</linearGradient>
	
		<rect x="1.08" y="1.69" style="clip-path:url(#SVGID_00000129207172637742395320000011868577952927565753_);fill:url(#SVGID_00000106142538974120216860000012764198772334899130_);" width="3196.87" height="3047.45"/>
</g>
<g>
	<defs>
		<path id="SVGID_00000163065660382705370050000006566316981872817576_" d="M3219.63,1.69c-93.45,311.04-200.68,540.5-338.09,679.87
			c-223.25,226.46-525.83,215.38-977.78-69.3c-450.43-283.72-674.06-258.74-759.14-46.67c-85.31,212.64-31.98,612.96,71.71,1078.95
			c76.78,345.1,53.14,690.53-49.62,951.28c-56.62,143.7-137.29,261.7-238.41,339.78c-101.2,78.13-222.86,116.3-361.43,100.27
			c-151.37-17.51-322.88-99.72-509.87-265.2c-18.66-16.52-37.31-32.16-55.93-46.96v-3.19c19.17,15.19,38.37,31.26,57.59,48.27
			c186.58,165.11,357.62,247.13,508.5,264.59c137.87,15.95,258.92-22.03,359.61-99.78c100.75-77.8,181.14-195.43,237.61-338.71
			c102.58-260.3,126.18-605.21,49.5-949.83c-103.78-466.42-157.12-867.2-71.58-1080.41c85.77-213.78,310.53-239.4,762.8,45.48
			c450.75,283.92,752.36,295.16,974.65,69.67c137-138.97,243.99-367.84,337.26-678.12H3219.63z"/>
	</defs>
	<clipPath id="SVGID_00000155866680162926079120000010520327181577346205_">
		<use xlink:href="#SVGID_00000163065660382705370050000006566316981872817576_"  style="overflow:visible;"/>
	</clipPath>
	
		<linearGradient id="SVGID_00000167390140555042041940000017137561812044825504_" gradientUnits="userSpaceOnUse" x1="201.515" y1="3766.4316" x2="2814.7529" y2="-387.8205">
		<stop  offset="0" style="stop-color:#39D4FF"/>
		<stop  offset="0.53" style="stop-color:#FFF100"/>
		<stop  offset="1" style="stop-color:#FF00E9"/>
	</linearGradient>
	
		<rect x="1.08" y="1.69" style="clip-path:url(#SVGID_00000155866680162926079120000010520327181577346205_);fill:url(#SVGID_00000167390140555042041940000017137561812044825504_);" width="3218.55" height="3050.21"/>
</g>
<g>
	<defs>
		<path id="SVGID_00000001643731130873297820000009722143496435097004_" d="M3241.53,1.69
			c-107.7,345.15-227.39,596.25-379.19,742.18c-229.25,220.38-531.43,201.18-975.57-95.53
			c-442.64-295.71-666.87-276.74-757.62-67.03c-90.99,210.27-48.42,611.88,42.71,1080.48c67.5,347.04,34.58,691.72-75.14,949.6
			c-60.46,142.13-144.26,257.92-247.44,333.25c-103.26,75.39-225.91,110.28-364,90.54c-145.77-20.85-308.73-102.6-484.21-261.89
			v-3.38c175.72,159.94,338.8,241.95,484.56,262.79c137.39,19.65,259.42-15.07,362.16-90.08
			c102.81-75.07,186.33-190.5,246.62-332.21c109.53-257.45,142.38-601.6,74.99-948.15c-91.22-469.04-133.79-871.12-42.56-1081.95
			c91.48-211.4,316.85-230.97,761.31,65.95c442.97,295.92,744.16,315.25,972.44,95.81c151.38-145.52,270.81-396.01,378.31-740.37
			H3241.53z"/>
	</defs>
	<clipPath id="SVGID_00000056422267522874346730000009923285009280871316_">
		<use xlink:href="#SVGID_00000001643731130873297820000009722143496435097004_"  style="overflow:visible;"/>
	</clipPath>
	
		<linearGradient id="SVGID_00000161613544268324107830000006769524157281681799_" gradientUnits="userSpaceOnUse" x1="210.0383" y1="3771.7969" x2="2823.2742" y2="-382.4524">
		<stop  offset="0" style="stop-color:#39D4FF"/>
		<stop  offset="0.53" style="stop-color:#FFF100"/>
		<stop  offset="1" style="stop-color:#FF00E9"/>
	</linearGradient>
	
		<rect x="1.08" y="1.69" style="clip-path:url(#SVGID_00000056422267522874346730000009923285009280871316_);fill:url(#SVGID_00000161613544268324107830000006769524157281681799_);" width="3240.45" height="3053.24"/>
</g>
<g>
	<defs>
		<path id="SVGID_00000139998027327951260580000005864053837323096201_" d="M3263.83,1.69
			c-123.93,380.9-257.09,654.46-423.86,806.37c-235.08,214.15-536.64,186.84-972.65-121.69
			c-434.54-307.49-659.2-294.54-755.54-87.35c-96.6,207.75-64.83,610.36,13.69,1081.24c58.15,348.72,15.99,692.39-100.61,947.25
			c-64.26,140.44-151.14,253.94-256.31,326.48c-105.25,72.59-228.79,104.18-366.3,80.74c-123.52-21.06-258.3-86.55-401.18-206.62
			v-3.27c143.12,120.63,278.04,186.35,401.61,207.42c136.81,23.33,259.73-8.1,364.45-80.32
			c104.79-72.28,191.37-185.43,255.45-325.47c116.4-254.42,158.48-597.56,100.41-945.8c-78.59-471.32-110.35-874.39-13.49-1082.71
			c97.13-208.87,322.94-222.39,759.26,86.36c434.86,307.71,735.44,335.12,969.52,121.88c166.32-151.5,299.21-424.44,422.93-804.52
			H3263.83z"/>
	</defs>
	<clipPath id="SVGID_00000147197180372389717530000016970266436519742621_">
		<use xlink:href="#SVGID_00000139998027327951260580000005864053837323096201_"  style="overflow:visible;"/>
	</clipPath>
	
		<linearGradient id="SVGID_00000171690363114930449650000010421743631830556824_" gradientUnits="userSpaceOnUse" x1="218.7639" y1="3777.281" x2="2832.0061" y2="-376.9781">
		<stop  offset="0" style="stop-color:#39D4FF"/>
		<stop  offset="0.53" style="stop-color:#FFF100"/>
		<stop  offset="1" style="stop-color:#FF00E9"/>
	</linearGradient>
	
		<rect x="1.08" y="1.69" style="clip-path:url(#SVGID_00000147197180372389717530000016970266436519742621_);fill:url(#SVGID_00000171690363114930449650000010421743631830556824_);" width="3262.75" height="3056.49"/>
</g>
<g>
	<defs>
		<path id="SVGID_00000123429510522947323610000009364017122241606282_" d="M3286.76,1.69
			c-142.34,418.23-290.08,715.07-472.36,872.37c-240.75,207.76-541.46,172.36-969.03-147.76
			c-426.14-319.05-651.06-312.14-752.92-107.6c-102.15,205.09-81.2,608.4-15.34,1081.22c48.77,350.16-2.6,692.58-126,944.2
			c-68.01,138.67-157.9,249.8-264.98,319.49c-107.16,69.74-231.5,98-368.34,70.87c-99.57-19.74-205.75-68.84-316.71-152.62v-3.14
			c111.19,84.24,217.53,133.54,317.2,153.3c136.14,26.99,259.85-1.12,366.47-70.52c106.69-69.43,196.28-180.22,264.09-318.49
			c123.2-251.21,174.47-593.09,125.77-942.76c-65.91-473.25-86.83-877.04,15.59-1082.67c102.69-206.19,328.78-213.64,756.66,106.71
			c426.44,319.28,726.17,354.75,965.9,147.87c181.8-156.89,329.25-453.09,471.36-870.48H3286.76z"/>
	</defs>
	<clipPath id="SVGID_00000133520590544241479750000003754438482948291496_">
		<use xlink:href="#SVGID_00000123429510522947323610000009364017122241606282_"  style="overflow:visible;"/>
	</clipPath>
	
		<linearGradient id="SVGID_00000182525374805336091890000002857783671675838099_" gradientUnits="userSpaceOnUse" x1="227.7513" y1="3782.9351" x2="2840.9993" y2="-371.3333">
		<stop  offset="0" style="stop-color:#39D4FF"/>
		<stop  offset="0.53" style="stop-color:#FFF100"/>
		<stop  offset="1" style="stop-color:#FF00E9"/>
	</linearGradient>
	
		<rect x="1.08" y="1.69" style="clip-path:url(#SVGID_00000133520590544241479750000003754438482948291496_);fill:url(#SVGID_00000182525374805336091890000002857783671675838099_);" width="3285.68" height="3059.92"/>
</g>
<g>
	<defs>
		<path id="SVGID_00000073701186799459044060000004099896191462949033_" d="M3310.55,1.69
			c-163.14,457.07-326.64,778.03-524.96,940.09c-246.24,201.22-545.89,157.77-964.71-173.72
			c-417.42-330.37-642.44-329.51-749.76-127.79c-107.61,202.27-97.5,606.01-44.37,1080.42c39.35,351.34-21.2,692.25-151.31,940.48
			c-71.71,136.8-164.55,245.47-273.46,312.26c-108.99,66.84-234.05,91.75-370.1,60.96c-73.96-16.74-151.16-49.95-230.79-101.83
			v-2.98c79.85,52.23,157.24,85.6,231.35,102.37c135.36,30.64,259.79,5.85,368.23-60.65c108.52-66.55,201.05-174.88,272.55-311.28
			c129.89-247.81,190.32-588.2,151.03-939.05c-53.18-474.85-63.26-879.05,44.65-1081.86c108.19-203.36,334.4-204.74,753.53,126.99
			c417.72,330.61,716.39,374.12,961.58,173.75c197.81-161.65,361-481.95,523.88-938.15H3310.55z"/>
	</defs>
	<clipPath id="SVGID_00000150060803932097582510000013867592152667712642_">
		<use xlink:href="#SVGID_00000073701186799459044060000004099896191462949033_"  style="overflow:visible;"/>
	</clipPath>
	
		<linearGradient id="SVGID_00000143580305252191614690000002428991199756868742_" gradientUnits="userSpaceOnUse" x1="237.0766" y1="3788.8032" x2="2850.3115" y2="-365.4443">
		<stop  offset="0" style="stop-color:#39D4FF"/>
		<stop  offset="0.53" style="stop-color:#FFF100"/>
		<stop  offset="1" style="stop-color:#FF00E9"/>
	</linearGradient>
	
		<rect x="1.08" y="1.69" style="clip-path:url(#SVGID_00000150060803932097582510000013867592152667712642_);fill:url(#SVGID_00000143580305252191614690000002428991199756868742_);" width="3309.46" height="3063.5"/>
</g>
<g>
	<defs>
		<path id="SVGID_00000166668967699414643870000014695010243810170514_" d="M3335.41,1.69
			c-186.54,497.37-367.06,843.26-581.94,1009.44c-251.55,194.54-549.93,143.05-959.7-199.56
			c-408.4-341.46-633.36-346.63-746.06-147.86c-113,199.31-113.73,603.16-73.36,1078.83c29.9,352.28-39.77,691.44-176.51,936.08
			c-75.35,134.82-171.08,240.96-281.74,304.81c-110.74,63.89-236.42,85.43-371.59,50.99c-46.75-11.91-94.63-30.52-143.43-56.39
			v-2.83c49.01,26.09,97.1,44.84,144.04,56.8c134.49,34.26,259.55,12.83,369.73-50.74c110.27-63.61,205.68-169.42,280.81-303.85
			c136.51-244.24,206.06-582.88,176.19-934.66c-40.41-476.11-39.63-880.44,73.68-1080.28c113.62-200.38,339.78-195.68,749.85,147.17
			c408.69,341.71,706.08,393.21,956.56,199.51C2966.29,843.4,3146.49,498.17,3332.75,1.69H3335.41z"/>
	</defs>
	<clipPath id="SVGID_00000093172664405320589350000004205330666956004224_">
		<use xlink:href="#SVGID_00000166668967699414643870000014695010243810170514_"  style="overflow:visible;"/>
	</clipPath>
	
		<linearGradient id="SVGID_00000168819624324108754240000014358255127556475573_" gradientUnits="userSpaceOnUse" x1="246.8143" y1="3794.9265" x2="2860.0605" y2="-359.3391">
		<stop  offset="0" style="stop-color:#39D4FF"/>
		<stop  offset="0.53" style="stop-color:#FFF100"/>
		<stop  offset="1" style="stop-color:#FF00E9"/>
	</linearGradient>
	
		<rect x="1.08" y="1.69" style="clip-path:url(#SVGID_00000093172664405320589350000004205330666956004224_);fill:url(#SVGID_00000168819624324108754240000014358255127556475573_);" width="3334.33" height="3067.17"/>
</g>
<g>
	<defs>
		<path id="SVGID_00000097492662390767962820000002965876120008070817_" d="M3361.64,1.69
			c-212.76,539.06-411.66,910.71-643.61,1080.34c-256.68,187.71-553.57,128.23-954-225.26
			c-399.08-352.3-623.83-363.51-741.83-167.84c-118.32,196.21-129.88,599.9-102.3,1076.48c20.44,352.95-58.32,690.12-201.56,931
			c-78.94,132.75-177.48,236.28-289.83,297.13c-112.42,60.89-238.63,79.05-372.83,41c-18.06-5.12-36.26-11.26-54.6-18.45v-2.68
			c18.56,7.31,36.99,13.54,55.27,18.73c133.53,37.86,259.11,19.79,370.96-40.8c111.93-60.63,210.15-163.84,288.86-296.21
			c143-240.48,221.63-577.14,201.22-929.59c-27.61-477.02-15.98-881.18,102.66-1077.9c118.95-197.26,344.91-186.49,745.62,167.25
			c399.37,352.55,695.27,412.02,950.86,225.11C2947.92,910.8,3146.49,539.82,3358.94,1.69H3361.64z"/>
	</defs>
	<clipPath id="SVGID_00000152985246217596867230000000334927524626887049_">
		<use xlink:href="#SVGID_00000097492662390767962820000002965876120008070817_"  style="overflow:visible;"/>
	</clipPath>
	
		<linearGradient id="SVGID_00000164501350335682147650000010764125183843843761_" gradientUnits="userSpaceOnUse" x1="257.0493" y1="3801.3689" x2="2870.2983" y2="-352.9012">
		<stop  offset="0" style="stop-color:#39D4FF"/>
		<stop  offset="0.53" style="stop-color:#FFF100"/>
		<stop  offset="1" style="stop-color:#FF00E9"/>
	</linearGradient>
	
		<rect x="1.08" y="1.69" style="clip-path:url(#SVGID_00000152985246217596867230000000334927524626887049_);fill:url(#SVGID_00000164501350335682147650000010764125183843843761_);" width="3360.56" height="3070.91"/>
</g>
<g>
	<defs>
		<path id="SVGID_00000149355158205815165790000016183364382890108851_" d="M3389.46,1.69
			C3147.45,583.72,2928.7,982,2679.19,1154.38c-261.63,180.75-556.81,113.32-947.6-250.78
			C1342.11,540.7,1117.75,523.46,994.54,715.9C871,908.85,848.6,1312.09,863.38,1789.23c10.95,353.37-76.83,688.3-226.49,925.26
			c-82.48,130.58-183.77,231.43-297.7,289.24c-103.78,52.66-218.03,69.61-338.1,40.83v-2.58c119.68,28.82,233.55,11.99,336.97-40.49
			c113.52-57.6,214.47-158.14,296.72-288.34c149.41-236.55,237.03-570.97,226.1-923.84c-14.79-477.6,7.69-881.3,131.56-1074.77
			c124.2-193.99,349.79-177.16,740.87,187.21c389.76,363.15,683.96,430.54,944.48,250.56
			c248.89-171.96,467.29-569.54,708.96-1150.62H3389.46z"/>
	</defs>
	<clipPath id="SVGID_00000039845042634097573850000007131754112464048570_">
		<use xlink:href="#SVGID_00000149355158205815165790000016183364382890108851_"  style="overflow:visible;"/>
	</clipPath>
	
		<linearGradient id="SVGID_00000008143595979179957110000004426720445933059473_" gradientUnits="userSpaceOnUse" x1="267.1829" y1="3807.7434" x2="2880.4343" y2="-346.5305">
		<stop  offset="0" style="stop-color:#39D4FF"/>
		<stop  offset="0.53" style="stop-color:#FFF100"/>
		<stop  offset="1" style="stop-color:#FF00E9"/>
	</linearGradient>
	
		<rect x="1.08" y="1.69" style="clip-path:url(#SVGID_00000039845042634097573850000007131754112464048570_);fill:url(#SVGID_00000008143595979179957110000004426720445933059473_);" width="3388.37" height="3071.65"/>
</g>
<g>
	<defs>
		<path id="SVGID_00000036957965586504822160000015049891332541287573_" d="M3419.34,1.69c-1.55,3.48-3.11,6.74-4.65,10.25
			c-272.66,620.62-511.66,1042.69-777.73,1216.13c-266.39,173.67-559.66,98.34-940.54-276.14
			c-379.59-373.21-603.41-396.47-731.74-207.41C836,934.1,802.78,1336.59,804.75,1813.97c1.46,353.53-95.28,685.99-251.26,918.84
			c-85.96,128.32-189.91,226.41-305.36,281.15c-77.81,36.89-160.82,54.08-247.05,47.57V3059c85.86,6.51,168.51-10.59,245.98-47.32
			c115.02-54.54,218.64-152.32,304.35-280.27c155.71-232.45,252.29-564.4,250.83-917.44c-1.97-477.82,31.34-880.77,160.36-1070.85
			c129.37-190.59,354.42-167.7,735.58,207.04c379.87,373.48,672.15,448.75,937.41,275.82c265.58-173.14,504.33-594.85,776.8-1215.04
			c1.39-3.17,2.8-6.11,4.19-9.25H3419.34z"/>
	</defs>
	<clipPath id="SVGID_00000029016570264929440900000003043008646895140025_">
		<use xlink:href="#SVGID_00000036957965586504822160000015049891332541287573_"  style="overflow:visible;"/>
	</clipPath>
	
		<linearGradient id="SVGID_00000158014682159375008750000002859108344796613823_" gradientUnits="userSpaceOnUse" x1="276.6905" y1="3813.7244" x2="2889.9446" y2="-340.5534">
		<stop  offset="0" style="stop-color:#39D4FF"/>
		<stop  offset="0.53" style="stop-color:#FFF100"/>
		<stop  offset="1" style="stop-color:#FF00E9"/>
	</linearGradient>
	
		<rect x="1.08" y="1.69" style="clip-path:url(#SVGID_00000029016570264929440900000003043008646895140025_);fill:url(#SVGID_00000158014682159375008750000002859108344796613823_);" width="3418.25" height="3066.34"/>
</g>
<g>
	<defs>
		<path id="SVGID_00000079447676641689772640000008004398248842996637_" d="M3454.72,1.69c-17.86,33.57-35.65,69.01-53.36,106.55
			c-289.23,613.07-539.47,1028.57-810.1,1194.81c-270.95,166.45-562.09,83.27-932.78-301.29
			c-369.43-383.26-592.55-412.53-725.91-226.98c-133.72,186.05-177.74,587.5-188.59,1064.75
			c-8.03,353.45-113.66,683.19-275.83,911.77c-89.37,125.97-195.92,221.23-312.8,272.85c-49.74,21.96-101.34,36.02-154.27,41.18
			v-2.52c52.59-5.15,103.85-19.13,153.26-40.95c116.44-51.42,222.65-146.4,311.76-272c161.9-228.2,267.35-557.43,275.38-910.38
			c10.86-477.7,54.98-879.62,189.05-1066.15c134.44-187.04,358.8-158.13,729.75,226.71c369.7,383.55,659.86,466.64,929.66,300.9
			c270.13-165.94,520.12-581.1,809.14-1193.75c17.52-37.14,35.14-72.22,52.81-105.48H3454.72z"/>
	</defs>
	<clipPath id="SVGID_00000049192666315645966020000008959822680875767449_">
		<use xlink:href="#SVGID_00000079447676641689772640000008004398248842996637_"  style="overflow:visible;"/>
	</clipPath>
	
		<linearGradient id="SVGID_00000168805834731774572370000007853820440374978181_" gradientUnits="userSpaceOnUse" x1="288.7571" y1="3821.3115" x2="2902.0088" y2="-332.9626">
		<stop  offset="0" style="stop-color:#39D4FF"/>
		<stop  offset="0.53" style="stop-color:#FFF100"/>
		<stop  offset="1" style="stop-color:#FF00E9"/>
	</linearGradient>
	
		<rect x="1.08" y="1.69" style="clip-path:url(#SVGID_00000049192666315645966020000008959822680875767449_);fill:url(#SVGID_00000168805834731774572370000007853820440374978181_);" width="3453.64" height="3063.63"/>
</g>
<g>
	<defs>
		<path id="SVGID_00000097468222071586648930000008180501020448247969_" d="M3500.54,1.69c-38.88,60.13-77.79,128.1-116.57,204.88
			c-305.58,605.08-566.89,1013.71-841.88,1172.64c-275.33,159.11-564.13,68.15-924.36-326.23
			c-359.02-393.05-581.26-428.29-719.55-246.39c-138.67,182.39-193.44,582.51-217.11,1059.3
			c-17.52,353.11-131.97,679.9-300.21,904.04c-92.72,123.52-201.79,215.89-320,264.35c-19.68,8.07-39.62,14.91-59.77,20.49v-2.6
			c19.83-5.51,39.45-12.26,58.82-20.2c117.79-48.28,226.5-140.37,318.96-263.54c167.96-223.76,282.21-550.04,299.71-902.65
			c23.68-477.24,78.57-877.82,217.61-1060.69c139.41-183.38,362.92-148.44,723.4,246.22c359.27,393.33,647.1,484.18,921.25,325.74
			c274.49-158.63,535.53-566.93,840.89-1171.59c38.51-76.25,77.15-143.88,115.77-203.75H3500.54z"/>
	</defs>
	<clipPath id="SVGID_00000178164065913057049600000002723344642207525015_">
		<use xlink:href="#SVGID_00000097468222071586648930000008180501020448247969_"  style="overflow:visible;"/>
	</clipPath>
	
		<linearGradient id="SVGID_00000137122645380006016140000005395794007304952483_" gradientUnits="userSpaceOnUse" x1="302.7902" y1="3830.1418" x2="2916.0381" y2="-324.1261">
		<stop  offset="0" style="stop-color:#39D4FF"/>
		<stop  offset="0.53" style="stop-color:#FFF100"/>
		<stop  offset="1" style="stop-color:#FF00E9"/>
	</linearGradient>
	
		<rect x="1.08" y="1.69" style="clip-path:url(#SVGID_00000178164065913057049600000002723344642207525015_);fill:url(#SVGID_00000137122645380006016140000005395794007304952483_);" width="3499.46" height="3053.07"/>
</g>
<g>
	<defs>
		<path id="SVGID_00000148625769363216910580000010163555584359537299_" d="M4159.81,1.69c3.04,8.67,6.19,17.21,9.48,25.58
			c116.62,295.85,399.34,404.25,926.7,319.5c525.59-84.47,721.53,26.18,716.68,254.62c-4.86,229.07-210.85,576.45-488.88,964.5
			c-205.91,287.39-319.55,614.46-327.22,894.61c-4.23,154.39,23.73,294.56,86.16,406.03c62.46,111.55,159.44,194.36,293.2,233.92
			c146.12,43.22,336.14,34.82,573.02-44.12c253.62-84.52,466.26-77.69,631.21-5.73c134.72,58.78,237.66,161.03,305.12,292.46
			c67.5,131.5,99.5,292.21,92.33,467.82c-2.52,61.74-9.89,125.32-22.26,190.12h2.54c12.33-64.76,19.69-128.31,22.21-190.02
			c7.18-176.05-24.91-337.18-92.59-469.05c-67.72-131.94-171.07-234.6-306.36-293.62c-165.49-72.2-378.75-79.09-633,5.65
			c-236.37,78.77-425.87,87.18-571.52,44.1c-133.09-39.37-229.56-121.76-291.73-232.75c-62.2-111.07-90.05-250.8-85.83-404.74
			c7.65-279.68,121.14-606.24,326.76-893.22c278.29-388.42,484.47-736.23,489.35-965.91c4.89-230.3-191.85-341.96-719.59-257.15
			c-525.97,84.52-807.85-23.36-923.97-317.94c-3.19-8.08-6.22-16.32-9.16-24.67H4159.81z"/>
	</defs>
	<clipPath id="SVGID_00000061430066333888043200000000772817260147703739_">
		<use xlink:href="#SVGID_00000148625769363216910580000010163555584359537299_"  style="overflow:visible;"/>
	</clipPath>
	
		<linearGradient id="SVGID_00000160161852716239576440000003190173315246663841_" gradientUnits="userSpaceOnUse" x1="6816.6299" y1="3753.4333" x2="3956.7866" y2="-277.3985">
		<stop  offset="0" style="stop-color:#39D4FF"/>
		<stop  offset="0.53" style="stop-color:#FFF100"/>
		<stop  offset="1" style="stop-color:#FF00E9"/>
	</linearGradient>
	
		<rect x="4159.81" y="1.69" style="clip-path:url(#SVGID_00000061430066333888043200000000772817260147703739_);fill:url(#SVGID_00000160161852716239576440000003190173315246663841_);" width="2827.48" height="3999.33"/>
</g>
<g>
	<defs>
		<path id="SVGID_00000080172781098034544820000012559196236748321975_" d="M4129.45,1.69c5.91,17.36,12.28,34.16,19.17,50.35
			c124.52,292.61,410.05,393.38,934.95,294.5c523.14-98.55,721.98,6.8,723.27,235.29c1.29,229.11-195.29,581.9-462.81,977.28
			c-198.12,292.82-302.94,622.82-303.09,903.08c-0.08,154.44,31.63,293.81,97.02,403.57c65.45,109.84,164.6,190.01,299.38,225.97
			c147.22,39.29,336.95,25.78,571.63-59.49c251.26-91.3,464.01-90.18,630.83-22.67c136.26,55.14,241.9,154.59,312.86,284.16
			c18.05,32.96,33.86,67.87,47.35,104.5v-7.16c-13.01-34.45-28.08-67.37-45.15-98.54c-71.24-130.07-177.31-229.92-314.12-285.29
			c-167.37-67.73-380.74-68.89-632.62,22.64c-234.16,85.09-423.38,98.58-570.13,59.42c-134.1-35.78-232.76-115.54-297.87-224.82
			c-65.16-109.35-96.75-248.29-96.67-402.3c0.15-279.78,104.82-609.27,302.66-901.67c267.76-395.75,464.53-748.97,463.23-978.69
			c-1.29-230.34-200.96-336.69-726.23-237.74c-523.51,98.62-808.19-1.66-932.18-293.02c-6.76-15.88-13.01-32.36-18.83-49.38H4129.45
			z"/>
	</defs>
	<clipPath id="SVGID_00000019659856813833111980000008937265865085437839_">
		<use xlink:href="#SVGID_00000080172781098034544820000012559196236748321975_"  style="overflow:visible;"/>
	</clipPath>
	
		<linearGradient id="SVGID_00000160186387113309596620000007829867802987957895_" gradientUnits="userSpaceOnUse" x1="6953.0015" y1="3656.6807" x2="4093.1772" y2="-374.1248">
		<stop  offset="0" style="stop-color:#39D4FF"/>
		<stop  offset="0.53" style="stop-color:#FFF100"/>
		<stop  offset="1" style="stop-color:#FF00E9"/>
	</linearGradient>
	
		<rect x="4129.45" y="1.69" style="clip-path:url(#SVGID_00000019659856813833111980000008937265865085437839_);fill:url(#SVGID_00000160186387113309596620000007829867802987957895_);" width="2870.55" height="3396.53"/>
</g>
<g>
	<defs>
		<path id="SVGID_00000121994837471379308150000006259987407180838557_" d="M4099.7,1.69c9.05,27.43,19.15,53.49,30.41,78.09
			c132.33,289.15,420.46,382.22,942.52,269.29c520.3-112.56,721.9-12.58,729.31,215.79c7.44,229-179.6,586.93-436.4,989.35
			c-190.19,298.04-286.12,630.73-278.74,910.89c4.07,154.38,39.51,292.85,107.83,400.81c68.37,108.04,169.64,185.53,305.33,217.85
			c148.23,35.31,337.52,16.72,569.82-74.82c248.72-98.01,461.42-102.6,629.99-39.6c125.73,46.99,226.93,131.62,300.23,243.14v-4.55
			c-73.41-110.39-174.29-194.2-299.35-240.94c-169.13-63.22-382.44-58.64-631.78,39.62c-231.79,91.34-420.58,109.91-568.33,74.71
			c-135.01-32.16-235.78-109.26-303.8-216.75c-68.07-107.56-103.37-245.6-107.43-399.55c-7.37-279.7,88.43-611.87,278.34-909.47
			c257.04-402.79,444.26-761.17,436.8-990.78c-7.48-230.23-209.92-331.17-732.36-218.15c-520.67,112.64-807.94,20.04-939.7-267.9
			c-11.11-24.28-21.1-49.99-30.05-77.04H4099.7z"/>
	</defs>
	<clipPath id="SVGID_00000012433879910751847300000003879490893789721766_">
		<use xlink:href="#SVGID_00000121994837471379308150000006259987407180838557_"  style="overflow:visible;"/>
	</clipPath>
	
		<linearGradient id="SVGID_00000100342485640906510240000015999209326174377872_" gradientUnits="userSpaceOnUse" x1="6986.9312" y1="3632.6064" x2="4127.106" y2="-398.2001">
		<stop  offset="0" style="stop-color:#39D4FF"/>
		<stop  offset="0.53" style="stop-color:#FFF100"/>
		<stop  offset="1" style="stop-color:#FF00E9"/>
	</linearGradient>
	
		<rect x="4099.7" y="1.69" style="clip-path:url(#SVGID_00000012433879910751847300000003879490893789721766_);fill:url(#SVGID_00000100342485640906510240000015999209326174377872_);" width="2900.3" height="3210.8"/>
</g>
<g>
	<defs>
		<path id="SVGID_00000048467233948347480950000000977247687749192580_" d="M4070.67,1.69c12.4,38.98,26.73,75.26,43.16,108.75
			c140.04,285.5,430.57,370.8,949.41,243.89c517.09-126.49,721.3-31.97,734.85,196.13c13.58,228.71-163.77,591.54-409.69,1000.71
			c-182.11,303.03-269.07,638.17-254.18,918.04c8.21,154.23,47.35,291.7,118.54,397.78c71.24,106.16,174.56,180.9,311.07,209.57
			c149.12,31.32,337.85,7.66,567.61-90.09c245.99-104.65,458.5-114.96,628.7-56.5c93.06,31.96,173.5,84.5,239.85,153.41v-3.6
			c-66.28-68.28-146.42-120.38-239.04-152.19c-170.76-58.65-383.88-48.34-630.48,56.57c-229.26,97.53-417.48,121.17-566.12,89.94
			c-135.82-28.53-238.62-102.89-309.5-208.52c-70.94-105.7-109.94-242.73-118.13-396.52c-14.87-279.39,71.96-614.02,253.82-916.62
			c246.14-409.55,423.66-772.83,410.04-1002.15c-13.66-229.94-218.74-325.41-737.95-198.41
			c-517.46,126.57-807.1,41.72-946.55-242.56c-16.27-33.16-30.47-69.07-42.78-107.64H4070.67z"/>
	</defs>
	<clipPath id="SVGID_00000154392560290018550340000017212646679409788040_">
		<use xlink:href="#SVGID_00000048467233948347480950000000977247687749192580_"  style="overflow:visible;"/>
	</clipPath>
	
		<linearGradient id="SVGID_00000002370472519415325390000018324252934760570248_" gradientUnits="userSpaceOnUse" x1="7001.9585" y1="3621.9409" x2="4142.1274" y2="-408.8739">
		<stop  offset="0" style="stop-color:#39D4FF"/>
		<stop  offset="0.53" style="stop-color:#FFF100"/>
		<stop  offset="1" style="stop-color:#FF00E9"/>
	</linearGradient>
	
		<rect x="4070.67" y="1.69" style="clip-path:url(#SVGID_00000154392560290018550340000017212646679409788040_);fill:url(#SVGID_00000002370472519415325390000018324252934760570248_);" width="2929.33" height="3106.2"/>
</g>
<g>
	<defs>
		<path id="SVGID_00000173130809089587714960000002836930722409482371_" d="M4042.45,1.69c15.98,52.08,35.02,99.53,57.42,142.25
			c147.67,281.64,440.38,359.11,955.61,218.32c513.51-140.32,720.19-51.32,739.86,176.33c19.72,228.26-147.84,595.73-382.67,1011.35
			c-173.91,307.81-251.84,645.17-229.44,924.53c12.35,153.96,55.17,290.32,129.18,394.45c74.07,104.21,179.36,176.15,316.6,201.15
			c149.91,27.31,337.93-1.41,564.98-105.3c243.1-111.22,455.24-127.22,626.95-73.36c65.8,20.64,125.67,51.55,179.07,91.29v-3.12
			c-53.24-39.37-112.85-70.03-178.32-90.57c-172.28-54.04-385.04-38.02-628.74,73.47c-226.55,103.65-414.07,132.33-563.5,105.11
			c-136.54-24.88-241.3-96.45-314.99-200.13c-73.75-103.76-116.42-239.7-128.73-393.21c-22.37-278.89,55.45-615.73,229.13-923.1
			c235.05-416.01,402.75-783.92,382.98-1012.8c-19.83-229.49-227.4-319.42-743.01-178.53c-513.87,140.42-805.69,63.38-952.73-217.06
			c-22.22-42.39-41.13-89.46-57.02-141.1H4042.45z"/>
	</defs>
	<clipPath id="SVGID_00000132066670425213015260000015652605665101211022_">
		<use xlink:href="#SVGID_00000173130809089587714960000002836930722409482371_"  style="overflow:visible;"/>
	</clipPath>
	
		<linearGradient id="SVGID_00000012445427789714783060000009688247739486548148_" gradientUnits="userSpaceOnUse" x1="6995.0513" y1="3626.8425" x2="4135.2144" y2="-403.9807">
		<stop  offset="0" style="stop-color:#39D4FF"/>
		<stop  offset="0.53" style="stop-color:#FFF100"/>
		<stop  offset="1" style="stop-color:#FF00E9"/>
	</linearGradient>
	
		<rect x="4042.45" y="1.69" style="clip-path:url(#SVGID_00000132066670425213015260000015652605665101211022_);fill:url(#SVGID_00000012445427789714783060000009688247739486548148_);" width="2957.55" height="3095.7"/>
</g>
<g>
	<defs>
		<path id="SVGID_00000116952989478364210320000001567549689143400633_" d="M4015.09,1.69c19.8,66.8,44.03,126.36,73.21,178.56
			c155.17,277.57,449.86,347.16,961.13,192.59c509.56-154.06,718.55-70.64,744.32,156.4c25.84,227.66-131.79,599.48-355.38,1021.26
			c-165.59,312.37-234.43,651.7-204.54,930.36c16.48,153.56,62.95,288.73,139.73,390.84c76.84,102.19,184.02,171.27,321.88,192.57
			c150.59,23.28,337.77-10.48,561.96-120.42c240.02-117.7,451.66-139.4,624.76-90.17c41.55,11.82,80.88,27.73,117.85,47.38v-2.83
			c-36.78-19.44-75.88-35.21-117.16-46.96c-173.67-49.4-385.93-27.68-626.55,90.32c-223.69,109.7-410.37,143.4-560.47,120.2
			c-137.17-21.2-243.81-89.93-320.25-191.6c-76.51-101.75-122.81-236.49-139.24-389.62c-29.85-278.19,38.9-617,204.25-928.92
			c223.8-422.18,381.57-794.45,355.66-1022.71c-25.98-228.88-235.89-313.21-747.53-158.52c-509.92,154.17-803.71,84.98-958.22-191.4
			c-28.99-51.86-53.09-111.01-72.8-177.34H4015.09z"/>
	</defs>
	<clipPath id="SVGID_00000078748364310395557760000011396820402263646111_">
		<use xlink:href="#SVGID_00000116952989478364210320000001567549689143400633_"  style="overflow:visible;"/>
	</clipPath>
	
		<linearGradient id="SVGID_00000033364266322026348300000000293454033256614789_" gradientUnits="userSpaceOnUse" x1="6988.2739" y1="3631.6523" x2="4128.4448" y2="-399.1595">
		<stop  offset="0" style="stop-color:#39D4FF"/>
		<stop  offset="0.53" style="stop-color:#FFF100"/>
		<stop  offset="1" style="stop-color:#FF00E9"/>
	</linearGradient>
	
		<rect x="4015.09" y="1.69" style="clip-path:url(#SVGID_00000078748364310395557760000011396820402263646111_);fill:url(#SVGID_00000033364266322026348300000000293454033256614789_);" width="2984.91" height="3085.86"/>
</g>
<g>
	<defs>
		<path id="SVGID_00000013894233759449608140000011037686015824515242_" d="M3988.66,1.69c23.92,83.2,53.78,155.82,90.53,217.59
			c162.57,273.3,459.02,334.95,965.95,166.71c505.24-167.68,716.4-89.9,748.25,136.36c31.95,226.88-115.64,602.8-327.83,1030.44
			c-157.14,316.7-216.85,657.76-179.48,935.52c20.59,153.07,70.67,286.94,150.17,386.95c79.56,100.08,188.56,166.27,326.93,183.87
			c151.17,19.22,337.37-19.55,558.52-135.47c236.77-124.11,447.76-151.48,622.12-106.91c19.18,4.9,37.91,10.68,56.18,17.3v-2.67
			c-18.08-6.51-36.6-12.21-55.56-17.06c-174.93-44.72-386.53-17.3-623.9,107.11c-220.67,115.67-406.37,154.37-557.04,135.21
			c-137.68-17.51-246.13-83.36-325.29-182.94c-79.21-99.65-129.11-233.1-149.65-385.74c-37.31-277.29,22.32-617.81,179.25-934.07
			c212.38-428.03,360.09-804.41,328.06-1031.89c-32.12-228.1-244.21-306.76-751.51-138.4c-505.6,167.8-801.13,106.53-963.01-165.61
			c-36.54-61.42-66.26-133.62-90.09-216.31H3988.66z"/>
	</defs>
	<clipPath id="SVGID_00000112593321244996594360000017878411530465598858_">
		<use xlink:href="#SVGID_00000013894233759449608140000011037686015824515242_"  style="overflow:visible;"/>
	</clipPath>
	
		<linearGradient id="SVGID_00000024701840301544124030000015866171195645581496_" gradientUnits="userSpaceOnUse" x1="6981.6582" y1="3636.3457" x2="4121.8286" y2="-394.4673">
		<stop  offset="0" style="stop-color:#39D4FF"/>
		<stop  offset="0.53" style="stop-color:#FFF100"/>
		<stop  offset="1" style="stop-color:#FF00E9"/>
	</linearGradient>
	
		<rect x="3988.66" y="1.69" style="clip-path:url(#SVGID_00000112593321244996594360000017878411530465598858_);fill:url(#SVGID_00000024701840301544124030000015866171195645581496_);" width="3011.34" height="3076.65"/>
</g>
<g>
	<defs>
		<path id="SVGID_00000088123191841972690670000009635107680923821494_" d="M3963.09,1.69c28.41,101.35,64.45,187.9,109.54,259.28
			c169.85,268.84,467.84,322.51,970.07,140.72c500.56-181.19,713.73-109.1,751.65,116.22c38.03,225.94-99.42,605.69-300.05,1038.86
			c-148.58,320.81-199.11,663.35-154.3,940c24.7,152.46,78.35,284.93,160.51,382.78c82.21,97.92,192.95,161.15,331.75,175.02
			c151.61,15.16,336.71-28.6,554.67-150.42c230.72-128.95,438.78-162.68,613.06-124.88v-2.57
			c-174.75-37.73-383.22-3.88-614.29,125.27c-217.48,121.54-402.08,165.22-553.21,150.11c-138.1-13.81-248.28-76.72-330.08-174.13
			c-81.86-97.48-135.32-229.55-159.95-381.58c-44.73-276.19,5.73-618.19,154.1-938.54c200.82-433.58,338.37-813.79,300.25-1040.33
			c-38.23-227.15-252.36-300.09-754.96-118.16c-500.91,181.32-797.99,128-967.11-139.69c-44.87-71.02-80.76-157.13-109.07-257.94
			H3963.09z"/>
	</defs>
	<clipPath id="SVGID_00000088835450908868290300000009453412849450367626_">
		<use xlink:href="#SVGID_00000088123191841972690670000009635107680923821494_"  style="overflow:visible;"/>
	</clipPath>
	
		<linearGradient id="SVGID_00000101092052771846818930000008862232359405113519_" gradientUnits="userSpaceOnUse" x1="6975.188" y1="3640.939" x2="4115.3564" y2="-389.8764">
		<stop  offset="0" style="stop-color:#39D4FF"/>
		<stop  offset="0.53" style="stop-color:#FFF100"/>
		<stop  offset="1" style="stop-color:#FF00E9"/>
	</linearGradient>
	
		<rect x="3963.09" y="1.69" style="clip-path:url(#SVGID_00000088835450908868290300000009453412849450367626_);fill:url(#SVGID_00000101092052771846818930000008862232359405113519_);" width="3036.91" height="3068.03"/>
</g>
<g>
	<defs>
		<path id="SVGID_00000166671172701679514540000016275301353139265152_" d="M3938.42,1.69c33.38,121.25,76.05,222.67,130.25,303.56
			c177,264.18,476.33,309.83,973.5,114.62c495.51-194.56,710.53-128.22,754.49,96c44.08,224.84-83.12,608.14-272.04,1046.54
			c-139.92,324.67-181.23,668.45-129.01,943.8c28.78,151.74,85.97,282.73,170.73,378.34c84.81,95.67,197.21,155.9,336.33,166.05
			c151.98,11.08,335.83-37.63,550.44-165.25c200.68-119.34,385.68-163.93,546.89-149.9v-2.51
			c-161.67-14.03-347.1,30.68-548.17,150.25c-214.14,127.35-397.5,175.96-548.98,164.91c-138.43-10.09-250.25-70.02-334.63-165.21
			c-84.44-95.26-141.44-225.84-170.14-377.15c-52.13-274.89-10.87-618.14,128.85-942.35c189.1-438.81,316.4-822.58,272.2-1048.02
			c-44.31-226.04-260.32-293.21-757.86-97.85c-495.87,194.7-794.26,149.38-970.51-113.68c-53.95-80.53-96.47-181.48-129.75-302.16
			H3938.42z"/>
	</defs>
	<clipPath id="SVGID_00000162350681352674505480000014604065748605176499_">
		<use xlink:href="#SVGID_00000166671172701679514540000016275301353139265152_"  style="overflow:visible;"/>
	</clipPath>
	
		<linearGradient id="SVGID_00000177473484186134696650000007942835792479796401_" gradientUnits="userSpaceOnUse" x1="6968.8804" y1="3645.4124" x2="4109.0542" y2="-385.3957">
		<stop  offset="0" style="stop-color:#39D4FF"/>
		<stop  offset="0.53" style="stop-color:#FFF100"/>
		<stop  offset="1" style="stop-color:#FF00E9"/>
	</linearGradient>
	
		<rect x="3938.42" y="1.69" style="clip-path:url(#SVGID_00000162350681352674505480000014604065748605176499_);fill:url(#SVGID_00000177473484186134696650000007942835792479796401_);" width="3061.58" height="3059.99"/>
</g>
<g>
	<defs>
		<path id="SVGID_00000047056995553629414180000017666342738488435895_" d="M3914.52,1.69c38.93,142.96,88.83,260.11,152.87,350.36
			c184.03,259.34,484.48,296.93,976.24,88.44c490.1-207.8,706.83-147.25,756.8,75.71c50.09,223.58-66.77,610.15-243.86,1053.47
			c-131.14,328.32-163.22,673.08-103.62,946.93c32.84,150.92,93.53,280.32,180.82,373.62c87.35,93.36,201.32,150.56,340.66,156.96
			c152.21,7,334.69-46.64,545.8-179.98c172.22-108.77,334.02-160.35,479.76-165.3v-2.51c-146.19,4.95-308.45,56.65-481.09,165.69
			c-210.64,133.04-392.64,186.56-544.37,179.59c-138.64-6.38-252.03-63.28-338.94-156.16c-86.97-92.96-147.46-221.96-180.2-372.44
			c-59.5-273.39-27.46-617.61,103.5-945.46c177.25-443.73,294.2-830.78,243.97-1054.95c-50.37-224.77-268.11-286.1-760.22-77.46
			c-490.46,207.94-789.97,170.65-973.21-87.58c-63.78-89.88-113.5-206.55-152.34-348.91H3914.52z"/>
	</defs>
	<clipPath id="SVGID_00000052077522147514053510000006478870502127712664_">
		<use xlink:href="#SVGID_00000047056995553629414180000017666342738488435895_"  style="overflow:visible;"/>
	</clipPath>
	
		<linearGradient id="SVGID_00000022558421791999159980000011944758323093233853_" gradientUnits="userSpaceOnUse" x1="6962.7041" y1="3649.7959" x2="4102.8594" y2="-381.0378">
		<stop  offset="0" style="stop-color:#39D4FF"/>
		<stop  offset="0.53" style="stop-color:#FFF100"/>
		<stop  offset="1" style="stop-color:#FF00E9"/>
	</linearGradient>
	
		<rect x="3914.52" y="1.69" style="clip-path:url(#SVGID_00000052077522147514053510000006478870502127712664_);fill:url(#SVGID_00000022558421791999159980000011944758323093233853_);" width="3085.48" height="3052.48"/>
</g>
<g>
	<defs>
		<path id="SVGID_00000129906487323273552470000007583128580364062121_" d="M3891.32,1.69c45.24,166.5,102.93,300.23,177.54,399.61
			c190.93,254.3,492.28,283.82,978.25,62.2c484.36-220.88,702.63-166.18,758.56,55.36c56.08,222.15-50.36,611.73-215.48,1059.64
			c-122.29,331.72-145.1,677.21-78.17,949.37c36.89,149.98,101.03,277.71,190.79,368.62c89.83,90.99,205.29,145.1,344.75,147.76
			c152.35,2.91,333.33-55.6,540.79-194.56c144.97-97.1,283.43-152.05,411.65-171.38v-2.54c-128.68,19.34-267.62,74.42-413.05,171.84
			c-206.99,138.65-387.48,197.04-539.34,194.14c-138.76-2.65-253.65-56.49-343.02-147.01c-89.44-90.59-153.36-217.92-190.14-367.47
			c-66.82-271.7-44.03-616.66,78.08-947.91c165.27-448.33,271.79-838.37,215.56-1061.11c-56.38-223.34-275.69-278.81-762.02-57.03
			c-484.7,221.03-785.1,191.79-975.21-61.42c-74.33-99-131.85-232.23-176.98-398.1H3891.32z"/>
	</defs>
	<clipPath id="SVGID_00000147219772816866609590000015554603906953495216_">
		<use xlink:href="#SVGID_00000129906487323273552470000007583128580364062121_"  style="overflow:visible;"/>
	</clipPath>
	
		<linearGradient id="SVGID_00000088843334552074933620000010671355203513348504_" gradientUnits="userSpaceOnUse" x1="6956.6416" y1="3654.0969" x2="4096.7959" y2="-376.7388">
		<stop  offset="0" style="stop-color:#39D4FF"/>
		<stop  offset="0.53" style="stop-color:#FFF100"/>
		<stop  offset="1" style="stop-color:#FF00E9"/>
	</linearGradient>
	
		<rect x="3891.32" y="1.69" style="clip-path:url(#SVGID_00000147219772816866609590000015554603906953495216_);fill:url(#SVGID_00000088843334552074933620000010671355203513348504_);" width="3108.68" height="3045.47"/>
</g>
<g>
	<defs>
		<path id="SVGID_00000098207384298716512010000014888542351898202294_" d="M3868.73,1.69c52.42,191.83,118.53,343.03,204.41,451.22
			c197.69,249.09,499.72,270.5,979.57,35.92c478.25-233.8,697.92-184.99,759.77,34.98c62.02,220.56-33.92,612.86-186.96,1065.04
			c-113.33,334.88-126.86,680.86-52.65,951.12c40.9,148.94,108.45,274.9,200.61,363.37c92.24,88.54,209.12,139.53,348.6,138.45
			c152.38-1.18,331.72-64.53,535.36-209.01c118.67-84.2,233.61-138.96,342.55-168.03v-2.6c-109.41,29.1-224.84,84.04-344,168.58
			c-203.21,144.16-382.06,207.37-533.94,208.55c-138.78,1.08-255.07-49.66-346.84-137.75c-91.84-88.15-159.16-213.72-199.94-362.23
			c-74.08-269.8-60.57-615.25,52.6-949.66c153.18-452.61,249.18-845.37,187-1066.51c-62.36-221.75-283.08-271.31-763.28-36.56
			c-478.59,233.97-779.68,212.81-976.52-35.21c-85.56-107.81-151.48-258.49-203.78-449.67H3868.73z"/>
	</defs>
	<clipPath id="SVGID_00000178187928934990466310000016341158371665176481_">
		<use xlink:href="#SVGID_00000098207384298716512010000014888542351898202294_"  style="overflow:visible;"/>
	</clipPath>
	
		<linearGradient id="SVGID_00000131350075177927487500000016483436300019786394_" gradientUnits="userSpaceOnUse" x1="6950.1401" y1="3658.7073" x2="4090.3101" y2="-372.106">
		<stop  offset="0" style="stop-color:#39D4FF"/>
		<stop  offset="0.53" style="stop-color:#FFF100"/>
		<stop  offset="1" style="stop-color:#FF00E9"/>
	</linearGradient>
	
		<rect x="3868.73" y="1.69" style="clip-path:url(#SVGID_00000178187928934990466310000016341158371665176481_);fill:url(#SVGID_00000131350075177927487500000016483436300019786394_);" width="3131.27" height="3041.18"/>
</g>
<g>
	<defs>
		<path id="SVGID_00000113321261495480560860000006670394942402511776_" d="M3846.6,1.69c60.66,218.97,135.88,388.48,233.67,505.13
			c204.3,243.69,506.8,256.99,980.18,9.6c471.8-246.55,692.7-203.66,760.44,14.57c67.92,218.82-17.46,613.54-158.3,1069.67
			c-104.31,337.8-108.53,684.02-27.09,952.19c44.88,147.79,115.79,271.89,210.3,357.86c94.58,86.03,212.79,133.86,352.19,129.04
			c152.28-5.28,329.86-73.42,529.56-223.31c93.1-69.88,184.32-120.87,272.44-154.85v-2.69c-88.61,34.06-180.34,85.27-273.95,155.54
			c-199.26,149.56-376.35,217.55-528.15,222.8c-138.7,4.81-256.31-42.79-350.41-128.38c-94.17-85.65-164.83-209.37-209.58-356.73
			c-81.3-267.72-77.07-613.4,27.08-950.73c140.97-456.56,226.4-851.75,158.3-1071.15c-68.29-219.99-290.26-263.61-763.99-16.05
			c-472.14,246.74-773.68,233.67-977.11-8.98c-97.47-116.26-172.48-285.24-233-503.53H3846.6z"/>
	</defs>
	<clipPath id="SVGID_00000152266201407768664150000006998351110598202777_">
		<use xlink:href="#SVGID_00000113321261495480560860000006670394942402511776_"  style="overflow:visible;"/>
	</clipPath>
	
		<linearGradient id="SVGID_00000032640770816853776750000013995739814750723997_" gradientUnits="userSpaceOnUse" x1="6942.377" y1="3664.2183" x2="4082.5515" y2="-366.5891">
		<stop  offset="0" style="stop-color:#39D4FF"/>
		<stop  offset="0.53" style="stop-color:#FFF100"/>
		<stop  offset="1" style="stop-color:#FF00E9"/>
	</linearGradient>
	
		<rect x="3846.6" y="1.69" style="clip-path:url(#SVGID_00000152266201407768664150000006998351110598202777_);fill:url(#SVGID_00000032640770816853776750000013995739814750723997_);" width="3153.4" height="3042.9"/>
</g>
<g>
	<defs>
		<path id="SVGID_00000025417719782551437210000016793574800720861880_" d="M3824.8,1.69c70.12,247.91,155.18,436.57,265.56,561.27
			c210.78,238.12,513.52,243.29,980.09-16.71c465.01-259.13,686.98-222.18,760.55-5.86c73.77,216.92-0.97,613.8-129.52,1073.54
			c-95.2,340.49-90.12,686.7-1.52,952.58c48.83,146.52,123.05,268.68,219.84,352.08c96.86,83.46,216.3,128.1,355.53,119.53
			c152.09-9.36,327.77-82.25,523.37-237.44c68.04-53.99,135.32-97.43,201.31-131.11v-2.82c-66.5,33.83-134.3,77.55-202.87,131.96
			c-195.17,154.86-370.37,227.58-521.96,236.91c-138.53,8.53-257.38-35.9-353.74-118.94c-96.44-83.09-170.39-204.86-219.08-350.97
			c-88.47-265.44-93.52-611.11,1.54-951.11c128.67-460.18,203.45-857.53,129.48-1075.02c-74.17-218.08-297.23-255.73-764.15,4.46
			c-465.34,259.32-767.12,254.35-976.99,17.25C3982.2,437.01,3897.35,248.9,3827.38,1.69H3824.8z"/>
	</defs>
	<clipPath id="SVGID_00000147180575906865091780000013625948075618002578_">
		<use xlink:href="#SVGID_00000025417719782551437210000016793574800720861880_"  style="overflow:visible;"/>
	</clipPath>
	
		<linearGradient id="SVGID_00000123402146074581227080000018267004329431593880_" gradientUnits="userSpaceOnUse" x1="6934.6265" y1="3669.7131" x2="4074.7834" y2="-361.1187">
		<stop  offset="0" style="stop-color:#39D4FF"/>
		<stop  offset="0.53" style="stop-color:#FFF100"/>
		<stop  offset="1" style="stop-color:#FF00E9"/>
	</linearGradient>
	
		<rect x="3824.8" y="1.69" style="clip-path:url(#SVGID_00000147180575906865091780000013625948075618002578_);fill:url(#SVGID_00000123402146074581227080000018267004329431593880_);" width="3175.2" height="3045"/>
</g>
<g>
	<defs>
		<path id="SVGID_00000090294660135084909210000000441480558041737885_" d="M3803.13,1.69c80.99,278.61,176.7,487.26,300.28,619.54
			c217.09,232.37,519.87,229.41,979.29-43.03c457.88-271.52,680.76-240.55,760.12-26.28c79.57,214.86,15.5,613.6-100.65,1076.63
			c-86.02,342.91-71.65,688.86,24.06,952.27c52.75,145.17,130.21,265.28,229.2,346.05c99.06,80.83,219.66,122.25,358.6,109.94
			c151.79-13.44,325.45-91.01,516.81-251.41c43.3-36.3,86.4-68.11,129.15-95.67v-2.98c-43.28,27.82-86.91,59.99-130.75,96.74
			c-190.94,160.04-364.13,237.44-515.42,250.84c-138.24,12.24-258.24-28.98-356.8-109.39c-98.63-80.48-175.83-200.23-228.43-344.97
			c-95.55-262.96-109.88-608.38-23.98-950.81c116.26-463.47,180.35-862.68,100.57-1078.11c-80-216.01-303.99-247.66-763.75,24.98
			c-458.21,271.72-760.02,274.86-976.18,43.48c-123.21-131.89-218.69-339.96-299.52-617.84H3803.13z"/>
	</defs>
	<clipPath id="SVGID_00000111895844394099651110000014071556491101828524_">
		<use xlink:href="#SVGID_00000090294660135084909210000000441480558041737885_"  style="overflow:visible;"/>
	</clipPath>
	
		<linearGradient id="SVGID_00000168826719921573864930000014686364685308446101_" gradientUnits="userSpaceOnUse" x1="6926.8442" y1="3675.2363" x2="4067.0139" y2="-355.5776">
		<stop  offset="0" style="stop-color:#39D4FF"/>
		<stop  offset="0.53" style="stop-color:#FFF100"/>
		<stop  offset="1" style="stop-color:#FF00E9"/>
	</linearGradient>
	
		<rect x="3803.13" y="1.69" style="clip-path:url(#SVGID_00000111895844394099651110000014071556491101828524_);fill:url(#SVGID_00000168826719921573864930000014686364685308446101_);" width="3196.87" height="3047.45"/>
</g>
<g>
	<defs>
		<path id="SVGID_00000137122718835944681640000003304556268191922864_" d="M3781.45,1.69c93.45,311.04,200.68,540.5,338.08,679.87
			c223.25,226.46,525.83,215.38,977.78-69.3c450.43-283.72,674.06-258.74,759.14-46.67c85.31,212.64,31.98,612.96-71.7,1078.95
			c-76.78,345.1-53.14,690.53,49.62,951.28c56.62,143.7,137.29,261.7,238.41,339.78c101.2,78.13,222.86,116.3,361.43,100.27
			c151.37-17.51,322.88-99.72,509.87-265.2c18.66-16.52,37.31-32.16,55.93-46.96v-3.19c-19.17,15.19-38.37,31.26-57.59,48.27
			c-186.58,165.11-357.62,247.13-508.5,264.59c-137.87,15.95-258.92-22.03-359.61-99.78c-100.75-77.8-181.15-195.43-237.61-338.71
			c-102.58-260.3-126.18-605.21-49.5-949.83c103.78-466.42,157.12-867.2,71.58-1080.41c-85.77-213.78-310.53-239.4-762.8,45.48
			c-450.75,283.92-752.36,295.16-974.65,69.67c-137-138.97-243.99-367.84-337.26-678.12H3781.45z"/>
	</defs>
	<clipPath id="SVGID_00000003785514501421429190000006101891629938410647_">
		<use xlink:href="#SVGID_00000137122718835944681640000003304556268191922864_"  style="overflow:visible;"/>
	</clipPath>
	
		<linearGradient id="SVGID_00000173856111194012900230000003954283209644397711_" gradientUnits="userSpaceOnUse" x1="6918.98" y1="3680.8145" x2="4059.1538" y2="-349.9935">
		<stop  offset="0" style="stop-color:#39D4FF"/>
		<stop  offset="0.53" style="stop-color:#FFF100"/>
		<stop  offset="1" style="stop-color:#FF00E9"/>
	</linearGradient>
	
		<rect x="3781.45" y="1.69" style="clip-path:url(#SVGID_00000003785514501421429190000006101891629938410647_);fill:url(#SVGID_00000173856111194012900230000003954283209644397711_);" width="3218.55" height="3050.21"/>
</g>
<g>
	<defs>
		<path id="SVGID_00000136387427872032110280000012927164867523247531_" d="M3759.55,1.69c107.7,345.15,227.39,596.25,379.19,742.18
			c229.25,220.38,531.43,201.18,975.57-95.53c442.64-295.71,666.87-276.74,757.61-67.03c90.99,210.27,48.42,611.88-42.71,1080.48
			c-67.5,347.04-34.58,691.72,75.14,949.6c60.47,142.13,144.27,257.92,247.44,333.25c103.26,75.39,225.91,110.28,364,90.54
			c145.77-20.85,308.73-102.6,484.21-261.89v-3.38c-175.72,159.94-338.8,241.95-484.56,262.79
			c-137.39,19.65-259.42-15.07-362.16-90.08c-102.81-75.07-186.33-190.5-246.62-332.21c-109.53-257.45-142.38-601.6-74.99-948.15
			c91.22-469.04,133.79-871.12,42.56-1081.95c-91.48-211.4-316.85-230.97-761.31,65.95c-442.96,295.92-744.16,315.25-972.44,95.81
			C3989.1,596.55,3869.67,346.06,3762.17,1.69H3759.55z"/>
	</defs>
	<clipPath id="SVGID_00000088818419279102189340000012317168776396358297_">
		<use xlink:href="#SVGID_00000136387427872032110280000012927164867523247531_"  style="overflow:visible;"/>
	</clipPath>
	
		<linearGradient id="SVGID_00000056385435252618935040000004196964766069923712_" gradientUnits="userSpaceOnUse" x1="6910.9863" y1="3686.4895" x2="4051.1619" y2="-344.3162">
		<stop  offset="0" style="stop-color:#39D4FF"/>
		<stop  offset="0.53" style="stop-color:#FFF100"/>
		<stop  offset="1" style="stop-color:#FF00E9"/>
	</linearGradient>
	
		<rect x="3759.55" y="1.69" style="clip-path:url(#SVGID_00000088818419279102189340000012317168776396358297_);fill:url(#SVGID_00000056385435252618935040000004196964766069923712_);" width="3240.45" height="3053.24"/>
</g>
<g>
	<defs>
		<path id="SVGID_00000150786450957160237250000003230811514952286862_" d="M3737.25,1.69c123.93,380.9,257.09,654.46,423.86,806.37
			c235.08,214.15,536.63,186.84,972.65-121.69c434.54-307.49,659.2-294.54,755.54-87.35c96.6,207.75,64.83,610.36-13.69,1081.24
			c-58.15,348.72-15.99,692.39,100.61,947.25c64.26,140.44,151.14,253.94,256.31,326.48c105.25,72.59,228.79,104.18,366.3,80.74
			c123.52-21.06,258.3-86.55,401.18-206.62v-3.27c-143.12,120.63-278.04,186.35-401.61,207.42
			c-136.81,23.33-259.73-8.1-364.45-80.32c-104.79-72.28-191.37-185.43-255.45-325.47c-116.4-254.42-158.48-597.56-100.41-945.8
			c78.59-471.32,110.35-874.39,13.49-1082.71c-97.13-208.87-322.94-222.39-759.26,86.36c-434.86,307.71-735.44,335.12-969.52,121.88
			c-166.31-151.5-299.21-424.44-422.92-804.52H3737.25z"/>
	</defs>
	<clipPath id="SVGID_00000012450270156544278630000016168792798381831844_">
		<use xlink:href="#SVGID_00000150786450957160237250000003230811514952286862_"  style="overflow:visible;"/>
	</clipPath>
	
		<linearGradient id="SVGID_00000029032888522201590180000017658510646752256420_" gradientUnits="userSpaceOnUse" x1="6902.7983" y1="3692.2944" x2="4042.97" y2="-338.5168">
		<stop  offset="0" style="stop-color:#39D4FF"/>
		<stop  offset="0.53" style="stop-color:#FFF100"/>
		<stop  offset="1" style="stop-color:#FF00E9"/>
	</linearGradient>
	
		<rect x="3737.25" y="1.69" style="clip-path:url(#SVGID_00000012450270156544278630000016168792798381831844_);fill:url(#SVGID_00000029032888522201590180000017658510646752256420_);" width="3262.75" height="3056.49"/>
</g>
<g>
	<defs>
		<path id="SVGID_00000072271233524305699410000016827069182807946939_" d="M3714.32,1.69
			c142.34,418.23,290.08,715.07,472.36,872.37c240.74,207.76,541.46,172.36,969.03-147.76c426.14-319.05,651.06-312.14,752.93-107.6
			c102.15,205.09,81.2,608.4,15.34,1081.22c-48.77,350.16,2.6,692.58,126,944.2c68.01,138.67,157.9,249.8,264.98,319.49
			c107.16,69.74,231.5,98,368.33,70.87c99.57-19.74,205.75-68.84,316.71-152.62v-3.14c-111.18,84.24-217.53,133.54-317.2,153.3
			c-136.14,26.99-259.85-1.12-366.47-70.52c-106.69-69.43-196.28-180.22-264.09-318.49c-123.2-251.21-174.47-593.09-125.77-942.76
			c65.91-473.25,86.83-877.04-15.59-1082.67c-102.69-206.19-328.78-213.64-756.66,106.71c-426.44,319.28-726.17,354.75-965.9,147.87
			c-181.8-156.89-329.25-453.09-471.36-870.48H3714.32z"/>
	</defs>
	<clipPath id="SVGID_00000036237424932119218330000003835779685320491919_">
		<use xlink:href="#SVGID_00000072271233524305699410000016827069182807946939_"  style="overflow:visible;"/>
	</clipPath>
	
		<linearGradient id="SVGID_00000092449627399462948520000009963780684588242096_" gradientUnits="userSpaceOnUse" x1="6894.3652" y1="3698.2825" x2="4034.5305" y2="-332.5373">
		<stop  offset="0" style="stop-color:#39D4FF"/>
		<stop  offset="0.53" style="stop-color:#FFF100"/>
		<stop  offset="1" style="stop-color:#FF00E9"/>
	</linearGradient>
	
		<rect x="3714.32" y="1.69" style="clip-path:url(#SVGID_00000036237424932119218330000003835779685320491919_);fill:url(#SVGID_00000092449627399462948520000009963780684588242096_);" width="3285.68" height="3059.92"/>
</g>
<g>
	<defs>
		<path id="SVGID_00000078763621690599071200000010706862785455753115_" d="M3690.53,1.69
			c163.14,457.07,326.64,778.03,524.96,940.09c246.24,201.22,545.89,157.77,964.71-173.72
			c417.42-330.37,642.44-329.51,749.76-127.79c107.61,202.27,97.5,606.01,44.37,1080.42c-39.35,351.34,21.2,692.25,151.31,940.48
			c71.71,136.8,164.55,245.47,273.46,312.26c108.99,66.84,234.05,91.75,370.1,60.96c73.96-16.74,151.16-49.95,230.79-101.83v-2.98
			c-79.85,52.23-157.24,85.6-231.35,102.37c-135.36,30.64-259.79,5.85-368.23-60.65c-108.52-66.55-201.05-174.88-272.55-311.28
			c-129.89-247.81-190.32-588.2-151.03-939.05c53.18-474.85,63.26-879.05-44.65-1081.86c-108.19-203.36-334.4-204.74-753.53,126.99
			c-417.72,330.61-716.39,374.12-961.58,173.75c-197.81-161.65-361-481.95-523.88-938.15H3690.53z"/>
	</defs>
	<clipPath id="SVGID_00000059283866819188261760000010858300232476892307_">
		<use xlink:href="#SVGID_00000078763621690599071200000010706862785455753115_"  style="overflow:visible;"/>
	</clipPath>
	
		<linearGradient id="SVGID_00000067203864690247530310000013555562609641366961_" gradientUnits="userSpaceOnUse" x1="6885.6084" y1="3704.4917" x2="4025.7791" y2="-326.3213">
		<stop  offset="0" style="stop-color:#39D4FF"/>
		<stop  offset="0.53" style="stop-color:#FFF100"/>
		<stop  offset="1" style="stop-color:#FF00E9"/>
	</linearGradient>
	
		<rect x="3690.53" y="1.69" style="clip-path:url(#SVGID_00000059283866819188261760000010858300232476892307_);fill:url(#SVGID_00000067203864690247530310000013555562609641366961_);" width="3309.47" height="3063.5"/>
</g>
<g>
	<defs>
		<path id="SVGID_00000083086709215070309120000007101828592183427483_" d="M3665.67,1.69
			c186.54,497.37,367.06,843.26,581.94,1009.44c251.56,194.54,549.93,143.05,959.71-199.56
			c408.4-341.46,633.36-346.63,746.06-147.86c113,199.31,113.73,603.16,73.36,1078.83c-29.9,352.28,39.77,691.44,176.5,936.08
			c75.35,134.82,171.08,240.96,281.74,304.81c110.74,63.89,236.42,85.43,371.59,50.99c46.75-11.91,94.63-30.52,143.43-56.39v-2.83
			c-49.01,26.09-97.1,44.84-144.04,56.8c-134.49,34.26-259.55,12.83-369.73-50.74c-110.27-63.61-205.68-169.42-280.81-303.85
			c-136.5-244.24-206.05-582.88-176.19-934.66c40.41-476.11,39.63-880.44-73.68-1080.28c-113.62-200.38-339.78-195.68-749.85,147.17
			c-408.69,341.71-706.08,393.21-956.56,199.51C4034.8,843.4,3854.59,498.17,3668.34,1.69H3665.67z"/>
	</defs>
	<clipPath id="SVGID_00000158722177963344553870000003665394847346348980_">
		<use xlink:href="#SVGID_00000083086709215070309120000007101828592183427483_"  style="overflow:visible;"/>
	</clipPath>
	
		<linearGradient id="SVGID_00000133503495042254588930000004240072339387569318_" gradientUnits="userSpaceOnUse" x1="6876.4712" y1="3710.9749" x2="4016.6313" y2="-319.8523">
		<stop  offset="0" style="stop-color:#39D4FF"/>
		<stop  offset="0.53" style="stop-color:#FFF100"/>
		<stop  offset="1" style="stop-color:#FF00E9"/>
	</linearGradient>
	
		<rect x="3665.67" y="1.69" style="clip-path:url(#SVGID_00000158722177963344553870000003665394847346348980_);fill:url(#SVGID_00000133503495042254588930000004240072339387569318_);" width="3334.33" height="3067.17"/>
</g>
<g>
	<defs>
		<path id="SVGID_00000036227406755176607090000012152140090455827389_" d="M3639.44,1.69
			c212.76,539.06,411.66,910.71,643.61,1080.34c256.68,187.71,553.57,128.23,953.99-225.26
			c399.08-352.3,623.83-363.51,741.83-167.84c118.32,196.21,129.89,599.9,102.3,1076.48c-20.44,352.95,58.32,690.12,201.56,931
			c78.94,132.75,177.48,236.28,289.83,297.13c112.42,60.89,238.63,79.05,372.83,41c18.06-5.12,36.26-11.26,54.6-18.45v-2.68
			c-18.56,7.31-36.99,13.54-55.27,18.73c-133.53,37.86-259.11,19.79-370.96-40.8c-111.93-60.63-210.15-163.84-288.86-296.21
			c-143-240.48-221.63-577.14-201.22-929.59c27.61-477.02,15.98-881.18-102.66-1077.9c-118.95-197.26-344.91-186.49-745.62,167.25
			c-399.37,352.55-695.28,412.02-950.87,225.11C4053.16,910.8,3854.59,539.82,3642.14,1.69H3639.44z"/>
	</defs>
	<clipPath id="SVGID_00000176732466096661075530000011172642463338055353_">
		<use xlink:href="#SVGID_00000036227406755176607090000012152140090455827389_"  style="overflow:visible;"/>
	</clipPath>
	
		<linearGradient id="SVGID_00000114768210996369868380000018143188848044847781_" gradientUnits="userSpaceOnUse" x1="6866.8687" y1="3717.7888" x2="4007.0337" y2="-313.0318">
		<stop  offset="0" style="stop-color:#39D4FF"/>
		<stop  offset="0.53" style="stop-color:#FFF100"/>
		<stop  offset="1" style="stop-color:#FF00E9"/>
	</linearGradient>
	
		<rect x="3639.44" y="1.69" style="clip-path:url(#SVGID_00000176732466096661075530000011172642463338055353_);fill:url(#SVGID_00000114768210996369868380000018143188848044847781_);" width="3360.56" height="3070.91"/>
</g>
<g>
	<defs>
		<path id="SVGID_00000010309050407769650480000017337737018142462601_" d="M3611.62,1.69
			c242.01,582.02,460.76,980.31,710.26,1152.68c261.63,180.75,556.81,113.32,947.6-250.78
			c389.48-362.89,613.85-380.13,737.05-187.69c123.54,192.95,145.94,596.19,131.16,1073.34c-10.95,353.37,76.83,688.3,226.49,925.26
			c82.48,130.58,183.77,231.43,297.7,289.24c103.77,52.66,218.03,69.61,338.1,40.83v-2.58c-119.68,28.82-233.55,11.99-336.97-40.49
			c-113.52-57.6-214.47-158.14-296.72-288.34c-149.41-236.55-237.03-570.97-226.1-923.84c14.79-477.6-7.69-881.3-131.56-1074.77
			c-124.2-193.99-349.79-177.16-740.87,187.21c-389.76,363.15-683.96,430.54-944.48,250.56
			C4074.41,980.36,3856.01,582.78,3614.34,1.69H3611.62z"/>
	</defs>
	<clipPath id="SVGID_00000022556052378834945520000011025442334664645013_">
		<use xlink:href="#SVGID_00000010309050407769650480000017337737018142462601_"  style="overflow:visible;"/>
	</clipPath>
	
		<linearGradient id="SVGID_00000016783361491588959120000007550090760614468227_" gradientUnits="userSpaceOnUse" x1="6857.439" y1="3724.4766" x2="3997.616" y2="-306.3271">
		<stop  offset="0" style="stop-color:#39D4FF"/>
		<stop  offset="0.53" style="stop-color:#FFF100"/>
		<stop  offset="1" style="stop-color:#FF00E9"/>
	</linearGradient>
	
		<rect x="3611.62" y="1.69" style="clip-path:url(#SVGID_00000022556052378834945520000011025442334664645013_);fill:url(#SVGID_00000016783361491588959120000007550090760614468227_);" width="3388.38" height="3071.65"/>
</g>
<g>
	<defs>
		<path id="SVGID_00000178176234674153701140000006735829167738327984_" d="M3581.75,1.69c1.55,3.48,3.11,6.74,4.65,10.25
			c272.66,620.62,511.66,1042.69,777.73,1216.13c266.39,173.67,559.66,98.34,940.54-276.14
			c379.6-373.21,603.41-396.47,731.74-207.41c128.68,189.57,161.9,592.06,159.93,1069.43c-1.46,353.53,95.28,685.99,251.26,918.84
			c85.96,128.32,189.91,226.41,305.36,281.15c77.81,36.89,160.82,54.08,247.05,47.57V3059c-85.86,6.51-168.51-10.59-245.98-47.32
			c-115.02-54.54-218.64-152.32-304.35-280.27c-155.71-232.45-252.29-564.4-250.83-917.44c1.97-477.82-31.34-880.77-160.36-1070.85
			c-129.37-190.59-354.42-167.7-735.58,207.04c-379.87,373.48-672.15,448.75-937.41,275.82
			c-265.58-173.14-504.33-594.85-776.8-1215.04c-1.39-3.17-2.8-6.11-4.19-9.25H3581.75z"/>
	</defs>
	<clipPath id="SVGID_00000072965885744251170530000011625886514826346412_">
		<use xlink:href="#SVGID_00000178176234674153701140000006735829167738327984_"  style="overflow:visible;"/>
	</clipPath>
	
		<linearGradient id="SVGID_00000065779667261007753920000007130947886504762773_" gradientUnits="userSpaceOnUse" x1="6848.7549" y1="3730.6375" x2="3988.9265" y2="-300.1735">
		<stop  offset="0" style="stop-color:#39D4FF"/>
		<stop  offset="0.53" style="stop-color:#FFF100"/>
		<stop  offset="1" style="stop-color:#FF00E9"/>
	</linearGradient>
	
		<rect x="3581.75" y="1.69" style="clip-path:url(#SVGID_00000072965885744251170530000011625886514826346412_);fill:url(#SVGID_00000065779667261007753920000007130947886504762773_);" width="3418.25" height="3066.34"/>
</g>
<g>
	<defs>
		<path id="SVGID_00000168835708543223151390000008629334137780944570_" d="M3546.36,1.69c17.86,33.57,35.65,69.01,53.36,106.55
			c289.23,613.07,539.47,1028.57,810.1,1194.81c270.95,166.45,562.1,83.27,932.78-301.29c369.43-383.26,592.55-412.53,725.91-226.98
			c133.72,186.05,177.74,587.5,188.59,1064.75c8.03,353.45,113.66,683.19,275.83,911.77c89.37,125.97,195.92,221.23,312.8,272.85
			c49.74,21.96,101.34,36.02,154.27,41.18v-2.52c-52.59-5.15-103.85-19.13-153.26-40.95c-116.44-51.42-222.65-146.4-311.76-272
			c-161.9-228.2-267.35-557.43-275.38-910.38c-10.86-477.7-54.98-879.62-189.05-1066.15c-134.44-187.04-358.8-158.13-729.75,226.71
			c-369.7,383.55-659.86,466.64-929.66,300.9c-270.13-165.94-520.12-581.1-809.14-1193.75c-17.52-37.14-35.14-72.22-52.81-105.48
			H3546.36z"/>
	</defs>
	<clipPath id="SVGID_00000121980494234936111690000015416434659197546379_">
		<use xlink:href="#SVGID_00000168835708543223151390000008629334137780944570_"  style="overflow:visible;"/>
	</clipPath>
	
		<linearGradient id="SVGID_00000150076406885765905940000015403877984034833557_" gradientUnits="userSpaceOnUse" x1="6837.6279" y1="3738.5349" x2="3977.7964" y2="-292.2806">
		<stop  offset="0" style="stop-color:#39D4FF"/>
		<stop  offset="0.53" style="stop-color:#FFF100"/>
		<stop  offset="1" style="stop-color:#FF00E9"/>
	</linearGradient>
	
		<rect x="3546.36" y="1.69" style="clip-path:url(#SVGID_00000121980494234936111690000015416434659197546379_);fill:url(#SVGID_00000150076406885765905940000015403877984034833557_);" width="3453.64" height="3063.63"/>
</g>
<g>
	<defs>
		<path id="SVGID_00000101074723133276871770000014795450976701164469_" d="M3500.54,1.69c38.88,60.13,77.79,128.1,116.56,204.88
			c305.58,605.08,566.89,1013.71,841.89,1172.64c275.33,159.11,564.13,68.15,924.36-326.23
			c359.02-393.05,581.26-428.29,719.55-246.39c138.67,182.39,193.44,582.51,217.11,1059.3c17.52,353.11,131.96,679.9,300.21,904.04
			c92.72,123.52,201.79,215.89,320.01,264.35c19.68,8.07,39.62,14.91,59.77,20.49v-2.6c-19.83-5.51-39.45-12.26-58.82-20.2
			c-117.79-48.28-226.5-140.37-318.96-263.54c-167.96-223.76-282.21-550.04-299.71-902.65
			c-23.68-477.24-78.57-877.82-217.61-1060.69c-139.41-183.38-362.92-148.44-723.4,246.22
			c-359.27,393.33-647.1,484.18-921.25,325.74c-274.49-158.63-535.53-566.93-840.9-1171.59c-38.51-76.25-77.15-143.88-115.77-203.75
			H3500.54z"/>
	</defs>
	<clipPath id="SVGID_00000000211059247375963760000013532252107674464154_">
		<use xlink:href="#SVGID_00000101074723133276871770000014795450976701164469_"  style="overflow:visible;"/>
	</clipPath>
	
		<linearGradient id="SVGID_00000135691022497684987480000012036846077918404787_" gradientUnits="userSpaceOnUse" x1="6824.8818" y1="3747.5796" x2="3965.0586" y2="-283.2245">
		<stop  offset="0" style="stop-color:#39D4FF"/>
		<stop  offset="0.53" style="stop-color:#FFF100"/>
		<stop  offset="1" style="stop-color:#FF00E9"/>
	</linearGradient>
	
		<rect x="3500.54" y="1.69" style="clip-path:url(#SVGID_00000000211059247375963760000013532252107674464154_);fill:url(#SVGID_00000135691022497684987480000012036846077918404787_);" width="3499.46" height="3053.07"/>
</g>
</svg>
