<?xml version="1.0" encoding="utf-8"?>
<!-- Generator: Adobe Illustrator 25.4.1, SVG Export Plug-In . SVG Version: 6.00 Build 0)  -->
<svg version="1.1" id="illustration" xmlns="http://www.w3.org/2000/svg" xmlns:xlink="http://www.w3.org/1999/xlink" x="0px"
	 y="0px" viewBox="0 0 600 400" style="enable-background:new 0 0 600 400;" xml:space="preserve">
<style type="text/css">
	.st0{display:none;clip-path:url(#SVGID_00000086688470415746269920000001524575021346035642_);fill:#FFFFFF;}
	.st1{clip-path:url(#SVGID_00000086688470415746269920000001524575021346035642_);}
	.st2{fill:#F1F1F4;}
	.st3{clip-path:url(#SVGID_00000086688470415746269920000001524575021346035642_);fill:#E0F3FF;}
	.st4{fill:url(#SVGID_00000085948878733193457460000006486064555700411566_);}
	.st5{fill:url(#SVGID_00000050629844630995111790000000178378183096301482_);}
	.st6{fill:#E5E2FF;}
	.st7{fill:url(#SVGID_00000050664893479688963520000007239068012625602955_);}
	.st8{opacity:0.62;fill:url(#SVGID_00000160163911926709107890000012096001607618378121_);}
	.st9{opacity:0.62;fill:url(#SVGID_00000011027904410049167120000013242385718913974151_);}
	.st10{opacity:0.5;fill:url(#SVGID_00000112594249954453528070000015125368614652543656_);}
	.st11{fill:#FFFFFF;}
	.st12{fill:url(#SVGID_00000113333638385675874420000002986125571758561686_);}
	.st13{opacity:0.5;fill:url(#SVGID_00000122720165753661342500000006065544279034016649_);}
	.st14{opacity:0.5;fill:url(#SVGID_00000106853491808912708520000000039218215141833895_);}
	.st15{fill:url(#SVGID_00000020389162117819640380000015395763818064571572_);}
	.st16{fill:url(#SVGID_00000010305100474794076960000017979177507593192127_);}
	.st17{opacity:0.76;fill:url(#SVGID_00000030484183121889017340000017483074116054578822_);}
	.st18{opacity:0.76;fill:url(#SVGID_00000063605024410857791990000001791518342532004023_);}
	.st19{opacity:0.76;fill:url(#SVGID_00000012438171008052615590000000840211018483963063_);}
	.st20{fill:#FE9083;}
	.st21{fill:url(#SVGID_00000026843890470979987630000003203046093664224133_);}
	.st22{opacity:0.5;fill:url(#SVGID_00000007410494612952608290000005735947074110367649_);}
	.st23{fill:url(#SVGID_00000083771052090254892330000002838743105041391779_);}
	.st24{opacity:0.5;fill:url(#SVGID_00000085932058051054976300000014656315210518501511_);}
	.st25{fill:url(#SVGID_00000004546860867721902310000005339245946954749621_);}
	.st26{fill:url(#SVGID_00000045606862380327899270000005964880287654665864_);}
	.st27{fill:#CB4D7A;}
	.st28{fill:#EE8183;}
	.st29{fill:url(#SVGID_00000109009031334090943330000011811348408120013744_);}
	.st30{opacity:0.6;fill:url(#SVGID_00000037689736937060709460000015042365413243816597_);}
	.st31{fill:url(#SVGID_00000124140648014041993300000003499202946093321106_);}
	.st32{fill:#E28183;}
	.st33{opacity:0.91;fill:url(#SVGID_00000054987515294744033910000009076787791910758334_);}
	.st34{fill:url(#SVGID_00000074427639839383574030000002009349847384171421_);}
	.st35{opacity:0.6;fill:url(#SVGID_00000147201210822227813890000014498583983691010980_);}
	.st36{fill:url(#SVGID_00000017514104848109238370000003648329508778312853_);}
	.st37{fill:url(#SVGID_00000161596767835716810010000008515608370490396811_);}
	.st38{opacity:0.91;fill:url(#SVGID_00000124858104122148432140000001405022545563564473_);}
	.st39{opacity:0.5;fill:url(#SVGID_00000132801714526206566560000005260560711969543297_);}
	.st40{opacity:0.5;fill:url(#SVGID_00000168087332750966796070000014217235431937585811_);}
	.st41{opacity:0.5;fill:url(#SVGID_00000173130447068324530150000003619974888659904155_);}
	.st42{opacity:0.5;fill:url(#SVGID_00000108300909194664935430000007516760289958639006_);}
	.st43{opacity:0.5;fill:url(#SVGID_00000010302219741431180710000015763354141122588304_);}
	.st44{opacity:0.5;fill:url(#SVGID_00000052088935691666837500000013272084693449505466_);}
	.st45{opacity:0.5;fill:url(#SVGID_00000083791282635421581830000001748974504456123284_);}
	.st46{opacity:0.5;fill:url(#SVGID_00000131348595188308649090000016798311488220622998_);}
	.st47{opacity:0.5;fill:url(#SVGID_00000140006762966973087600000001656084280483580852_);}
	.st48{opacity:0.76;fill:url(#SVGID_00000130607058276868865930000006691485675680556724_);}
	.st49{opacity:0.5;fill:url(#SVGID_00000178909458608254635420000009437357392806160773_);}
	.st50{opacity:0.3;fill:url(#SVGID_00000075853499245189307100000003050645783638294447_);}
	.st51{opacity:0.5;fill:url(#SVGID_00000146475018290386227170000013540291960758817212_);}
	.st52{opacity:0.5;fill:url(#SVGID_00000003817250079390700260000016425187565233660080_);}
	.st53{opacity:0.5;fill:url(#SVGID_00000011709478028678611550000002589910087026597266_);}
	.st54{opacity:0.5;fill:url(#SVGID_00000121959737770243335080000016161521779812663483_);}
	.st55{fill:url(#SVGID_00000150790861876238397940000004168171178476718768_);}
	.st56{fill:#EBEFFF;}
	.st57{opacity:0.5;fill:url(#SVGID_00000026851973725138060720000016395260553134565025_);}
	.st58{opacity:0.3;fill:url(#SVGID_00000126295951142620266830000010127205648750448530_);}
	.st59{opacity:0.5;fill:url(#SVGID_00000011000876634164477350000015303825380494647956_);}
	.st60{opacity:0.5;fill:url(#SVGID_00000020384248257874893680000006290673110004859818_);}
	.st61{opacity:0.5;fill:url(#SVGID_00000001643582648531799200000003057801843527131579_);}
	.st62{opacity:0.5;fill:#7A4AC0;}
	.st63{fill:url(#SVGID_00000162352755668888100070000004629799800433254545_);}
	.st64{fill:url(#SVGID_00000140004757406424705370000016484140086611962280_);}
	.st65{fill:url(#SVGID_00000032649517934768808540000009674474807576109711_);}
	.st66{opacity:0.6;fill:url(#SVGID_00000029045387048604626530000006755467630767300238_);}
	.st67{fill:#38368E;}
	.st68{fill:url(#SVGID_00000049941680946611112590000008133273973715111578_);}
	.st69{fill:url(#SVGID_00000080185541070721801070000004476247629509066371_);}
	.st70{fill:#FFEBED;}
	.st71{fill:#7F9EC9;}
	.st72{fill:#131163;}
	.st73{fill:#C6659C;}
	.st74{fill:#CB5F7D;}
	.st75{fill:#9F4A8B;}
	.st76{fill:#FFBCAF;}
	.st77{opacity:0.6;fill:url(#SVGID_00000146473768602423785960000009172546921955589043_);}
	.st78{fill:url(#SVGID_00000109008527427180739270000015298498558954560658_);}
	.st79{fill:#D2726C;}
	.st80{opacity:0.6;fill:url(#SVGID_00000003077769338786063630000007533922203948533172_);}
	.st81{opacity:0.6;fill:url(#SVGID_00000127004781158111881720000017539303067193333173_);}
	.st82{opacity:0.5;fill:url(#SVGID_00000155119431573636280650000001743970387502717058_);}
	.st83{fill:url(#SVGID_00000048476983050693551380000016809237026669281185_);}
	.st84{fill:url(#SVGID_00000132046845801719464070000015356177868725874590_);}
	.st85{fill:url(#SVGID_00000049941454882971456860000011433054927911945602_);}
	.st86{opacity:0.8;fill:url(#SVGID_00000139981574340650553510000017888066025274172563_);}
	.st87{opacity:0.8;fill:url(#SVGID_00000063622300331446472640000014726753214433796269_);}
	.st88{fill:#34C7FF;}
	.st89{fill:url(#SVGID_00000180360633318200748300000008857974544519090846_);}
	.st90{fill:url(#SVGID_00000085217374363196988170000009041176242122642565_);}
	.st91{fill:url(#SVGID_00000101072582838518536770000004939489579278373299_);}
	.st92{opacity:0.6;fill:#36D1F7;}
	.st93{fill:#744CA2;}
	.st94{opacity:0.6;fill:url(#SVGID_00000052085967839644627200000009605704121774189467_);}
	.st95{opacity:0.3;fill:url(#SVGID_00000051371255253542555550000009039659898992340657_);}
	.st96{opacity:0.3;fill:url(#SVGID_00000168076364226201243470000016002017973624534715_);}
	.st97{opacity:0.3;fill:url(#SVGID_00000095310244042744231060000012775136742524556440_);}
	.st98{opacity:0.3;fill:url(#SVGID_00000148631996623142062350000003485533327045964443_);}
	.st99{fill:#D1D4FB;}
	.st100{fill:#E0FFFF;}
	.st101{fill:url(#SVGID_00000170967148713670805790000015973559705611974843_);}
	.st102{fill:url(#SVGID_00000139265764032447435450000001555898430360812470_);}
	.st103{opacity:0.81;fill:url(#SVGID_00000002372527776471425950000012727269398407593124_);}
	.st104{fill:#473DA2;}
	
		.st105{clip-path:url(#SVGID_00000086688470415746269920000001524575021346035642_);fill:url(#SVGID_00000119801981297557804980000007358285286413019010_);}
	
		.st106{clip-path:url(#SVGID_00000086688470415746269920000001524575021346035642_);fill:url(#SVGID_00000034079267941414228080000006184469445349707155_);}
	
		.st107{clip-path:url(#SVGID_00000086688470415746269920000001524575021346035642_);fill:url(#SVGID_00000109727621702927662180000015582902417646681778_);}
	
		.st108{clip-path:url(#SVGID_00000086688470415746269920000001524575021346035642_);fill:url(#SVGID_00000021822946372183407340000006957454454561267875_);}
	
		.st109{clip-path:url(#SVGID_00000086688470415746269920000001524575021346035642_);fill:url(#SVGID_00000179616463799298084970000000347983157533670075_);}
	
		.st110{clip-path:url(#SVGID_00000086688470415746269920000001524575021346035642_);fill:url(#SVGID_00000173871620851394999720000009510394209033942437_);}
	.st111{opacity:0.73;fill:url(#SVGID_00000110467901410191133490000013742946919599014065_);}
	.st112{fill:#953DA2;}
	.st113{opacity:0.73;fill:url(#SVGID_00000059288091623361780300000004353188824995557800_);}
	.st114{fill-rule:evenodd;clip-rule:evenodd;fill:url(#SVGID_00000065060857542332764210000010619890278142056596_);}
	.st115{fill-rule:evenodd;clip-rule:evenodd;fill:url(#SVGID_00000147185533817638951250000009044658713617594303_);}
	.st116{fill-rule:evenodd;clip-rule:evenodd;fill:url(#SVGID_00000019668446102557287700000011726843086766095257_);}
	.st117{opacity:0.5;fill-rule:evenodd;clip-rule:evenodd;fill:#601734;}
	.st118{fill-rule:evenodd;clip-rule:evenodd;fill:#B3D9FF;}
	.st119{clip-path:url(#SVGID_00000086688470415746269920000001524575021346035642_);fill:#FF1D9C;}
	.st120{clip-path:url(#SVGID_00000086688470415746269920000001524575021346035642_);fill:#6877FF;}
	.st121{clip-path:url(#SVGID_00000086688470415746269920000001524575021346035642_);fill:#4F31E0;}
	.st122{fill-rule:evenodd;clip-rule:evenodd;fill:url(#SVGID_00000098223001974707722920000016057861944264941755_);}
	.st123{fill-rule:evenodd;clip-rule:evenodd;fill:url(#SVGID_00000105403732123461079000000009156303168286529943_);}
	.st124{fill-rule:evenodd;clip-rule:evenodd;fill:url(#SVGID_00000104668667534666496700000012017755717468038068_);}
	.st125{fill-rule:evenodd;clip-rule:evenodd;fill:url(#SVGID_00000001650610405023127940000010353094388540015234_);}
</style>
<g>
	<defs>
		<rect id="SVGID_1_" width="600" height="400"/>
	</defs>
	<clipPath id="SVGID_00000112605173573736809360000000876228186122108577_">
		<use xlink:href="#SVGID_1_"  style="overflow:visible;"/>
	</clipPath>
	
		<rect style="display:none;clip-path:url(#SVGID_00000112605173573736809360000000876228186122108577_);fill:#FFFFFF;" width="600" height="400"/>
	<g style="clip-path:url(#SVGID_00000112605173573736809360000000876228186122108577_);">
		<path class="st2" d="M148.21,196.1c0.01-0.25,0.13-0.36,0.36-0.36l6.71,0.2c0.66,0.02,1.23,0.12,1.69,0.3
			c0.46,0.18,0.83,0.43,1.11,0.75s0.47,0.69,0.59,1.14c0.12,0.44,0.17,0.93,0.15,1.47l-0.06,1.84c-0.02,0.54-0.1,1.03-0.24,1.46
			c-0.14,0.43-0.36,0.8-0.66,1.1c-0.3,0.3-0.68,0.52-1.15,0.68c-0.47,0.15-1.04,0.22-1.7,0.2l-3.61-0.11l-0.75-2.11l-0.1,0
			l-0.06,2.09l-2.53-0.08L148.21,196.1z M150.55,202.43l4.29,0.13c0.48,0.01,0.83-0.08,1.04-0.29c0.21-0.21,0.32-0.58,0.34-1.12
			l0.05-1.5c0.02-0.56-0.07-0.94-0.27-1.15c-0.2-0.21-0.54-0.32-1.02-0.33l-4.1-0.12c-0.06,0-0.1,0.02-0.14,0.05
			c-0.03,0.04-0.05,0.08-0.05,0.13L150.55,202.43z"/>
		<path class="st2" d="M162.45,199.93l-0.09,0l-0.08,2.68c0,0.11,0.05,0.17,0.17,0.18l7.54,0.23l-0.07,2.32l-9.89-0.3
			c-0.24-0.01-0.35-0.13-0.35-0.38l0.25-8.21c0.01-0.25,0.13-0.36,0.37-0.36l9.61,0.29c0.25,0.01,0.37,0.13,0.36,0.38l-0.07,2.32
			l-2.37,0.8l-0.1,0l0.04-1.19c0-0.09-0.04-0.14-0.12-0.14l-5.07-0.15c-0.07,0-0.11,0.02-0.13,0.05c-0.02,0.04-0.03,0.08-0.03,0.12
			l-0.03,1.12l4.18,0.13l-0.06,1.82l-3.5-0.11L162.45,199.93z"/>
		<path class="st2" d="M179.21,199.77l-0.1,0l0.03-0.98c0-0.1-0.04-0.15-0.14-0.15l-4.72-0.14c-0.17,0-0.29,0.03-0.36,0.1
			c-0.07,0.07-0.1,0.18-0.11,0.32l-0.01,0.22c-0.01,0.17,0.02,0.28,0.08,0.33c0.06,0.05,0.17,0.09,0.33,0.12l5.53,0.94
			c0.35,0.06,0.65,0.15,0.89,0.25c0.24,0.11,0.44,0.25,0.59,0.42c0.15,0.17,0.25,0.38,0.31,0.63c0.06,0.25,0.08,0.54,0.07,0.88
			l-0.02,0.71c-0.01,0.37-0.07,0.69-0.17,0.97c-0.1,0.28-0.25,0.51-0.46,0.7c-0.21,0.19-0.49,0.32-0.82,0.41
			c-0.34,0.09-0.75,0.12-1.24,0.11l-7.96-0.24l0.07-2.32l7.14,0.22c0.21,0.01,0.36-0.03,0.43-0.1c0.07-0.08,0.11-0.21,0.12-0.41
			l0.01-0.25c0-0.16-0.02-0.27-0.07-0.33c-0.05-0.06-0.15-0.11-0.31-0.13l-5.34-0.84c-0.36-0.06-0.67-0.14-0.92-0.25
			c-0.25-0.11-0.46-0.24-0.62-0.41c-0.16-0.17-0.27-0.37-0.34-0.61c-0.07-0.24-0.09-0.52-0.08-0.85l0.02-0.63
			c0.02-0.65,0.21-1.14,0.56-1.49c0.36-0.35,0.93-0.51,1.74-0.48l7.95,0.24c0.25,0.01,0.38,0.14,0.37,0.4l-0.06,1.84L179.21,199.77z
			"/>
		<path class="st2" d="M182.57,205.72l0.27-8.94l2.53,0.08l-0.27,8.94L182.57,205.72z"/>
		<path class="st2" d="M194.49,202.25c0-0.13,0-0.27-0.01-0.41c-0.01-0.14-0.02-0.27-0.03-0.38l0-0.11l2.51,0.08l-0.13,4.39
			c-0.01,0.23-0.11,0.34-0.32,0.33l-6.73-0.2c-0.66-0.02-1.23-0.12-1.69-0.3c-0.46-0.18-0.83-0.43-1.11-0.75
			c-0.28-0.32-0.48-0.69-0.59-1.14c-0.12-0.44-0.17-0.93-0.15-1.47l0.06-1.84c0.02-0.54,0.1-1.03,0.24-1.46
			c0.14-0.43,0.36-0.8,0.66-1.1c0.3-0.3,0.68-0.52,1.15-0.68c0.47-0.15,1.04-0.22,1.7-0.2l6.69,0.2c0.24,0.01,0.35,0.13,0.35,0.38
			l-0.06,1.93l-2.37,0.79l-0.1,0l0.03-0.86c0-0.08-0.03-0.12-0.11-0.13l-4.27-0.13c-0.25-0.01-0.45,0.01-0.62,0.05
			c-0.17,0.04-0.31,0.11-0.42,0.22c-0.11,0.11-0.19,0.25-0.25,0.44c-0.05,0.18-0.09,0.41-0.1,0.68l-0.05,1.57
			c-0.02,0.54,0.07,0.92,0.27,1.14c0.2,0.22,0.54,0.34,1.02,0.35l4.24,0.13c0.09,0,0.14-0.04,0.14-0.14L194.49,202.25z"/>
		<path class="st2" d="M202.31,197.37c0.19,0.01,0.32,0.04,0.4,0.1c0.08,0.06,0.14,0.15,0.21,0.28l3.2,6.53
			c0.05,0.1,0.13,0.15,0.23,0.15l0.13,0c0.13,0,0.2-0.06,0.2-0.19l0.2-6.73l2.3,0.07l-0.26,8.59c-0.01,0.24-0.12,0.35-0.35,0.34
			l-3.64-0.11c-0.17,0-0.3-0.03-0.38-0.09c-0.09-0.05-0.16-0.15-0.23-0.29l-3.32-6.52c-0.05-0.1-0.12-0.15-0.23-0.15l-0.12,0
			c-0.13,0-0.2,0.06-0.2,0.19l-0.2,6.72l-2.3-0.07l0.26-8.58c0.01-0.25,0.12-0.36,0.35-0.36L202.31,197.37z"/>
	</g>
	
		<ellipse transform="matrix(0.7071 -0.7071 0.7071 0.7071 -59.8047 247.6188)" style="clip-path:url(#SVGID_00000112605173573736809360000000876228186122108577_);fill:#E0F3FF;" cx="269" cy="196" rx="155" ry="155"/>
	<g style="clip-path:url(#SVGID_00000112605173573736809360000000876228186122108577_);">
		
			<linearGradient id="SVGID_00000118389894718044468040000010379458742787734421_" gradientUnits="userSpaceOnUse" x1="139.8369" y1="275.2009" x2="139.8369" y2="204.0119" gradientTransform="matrix(0.906 -0.4233 0.4233 0.906 -75.0515 53.7421)">
			<stop  offset="0" style="stop-color:#DBCCFF"/>
			<stop  offset="1" style="stop-color:#D1BBFF"/>
		</linearGradient>
		<path style="fill:url(#SVGID_00000118389894718044468040000010379458742787734421_);" d="M155.1,185.61
			c-3.81-6.56-10.55-9.26-10.55-9.26l-2.35,1.1l5.29,9.6c-0.71,3.69-3.24,5.72-3.24,5.72l-0.01-0.02c0,0-3.18,0.64-6.47-1.19
			l-3.97-10.22l-2.35,1.1c0,0-2.25,6.9,0.33,14.04c0,0,1,2.31,1.18,2.52c0.93,1.09,3.36,2.34,8.06,2.05l16.2,30.91
			c-1.35,2.32-1.58,5.23-0.36,7.83c1.98,4.24,7.02,6.07,11.26,4.09c4.24-1.98,6.07-7.02,4.09-11.26c-1.22-2.61-3.6-4.3-6.24-4.75
			l-13.31-32.25c3.17-3.34,3.84-5.97,3.6-7.49C156.22,187.8,155.1,185.61,155.1,185.61z M168.42,238.92l-4.29,2.01l-3.88-2.71
			l0.41-4.72l4.29-2.01l3.88,2.71L168.42,238.92z"/>
		
			<linearGradient id="SVGID_00000001633746531551102470000017765608469966837181_" gradientUnits="userSpaceOnUse" x1="139.8327" y1="277.9781" x2="139.8327" y2="206.7891" gradientTransform="matrix(0.906 -0.4233 0.4233 0.906 -75.0515 53.7421)">
			<stop  offset="0" style="stop-color:#B5A6E7"/>
			<stop  offset="1" style="stop-color:#7760BF"/>
		</linearGradient>
		<path style="fill:url(#SVGID_00000001633746531551102470000017765608469966837181_);" d="M156.27,188.13
			c-3.81-6.56-10.55-9.26-10.55-9.26l-2.35,1.1l5.29,9.6c-0.71,3.69-3.24,5.72-3.24,5.72l-0.01-0.02c0,0-3.18,0.64-6.47-1.19
			l-3.97-10.22l-2.35,1.1c0,0-2.25,6.9,0.33,14.04c0,0,3.66,4.91,9.23,4.57l16.2,30.91c-1.35,2.32-1.58,5.23-0.36,7.83
			c1.98,4.24,7.02,6.07,11.26,4.09c4.24-1.98,6.07-7.02,4.09-11.26c-1.22-2.61-3.6-4.3-6.24-4.75l-13.31-32.25
			C157.69,194.09,156.27,188.13,156.27,188.13z M169.6,241.44l-4.29,2.01l-3.88-2.71l0.41-4.72l4.29-2.01l3.88,2.71L169.6,241.44z"
			/>
		
			<rect x="131.92" y="181.76" transform="matrix(0.906 -0.4233 0.4233 0.906 -65.0028 73.6072)" class="st6" width="2.59" height="2.78"/>
		
			<rect x="142.66" y="176.76" transform="matrix(0.906 -0.4233 0.4233 0.906 -61.8791 77.6858)" class="st6" width="2.59" height="2.78"/>
		
			<rect x="164.5" y="239.79" transform="matrix(0.906 -0.4233 0.4233 0.906 -86.4027 93.3051)" class="st6" width="4.74" height="2.78"/>
		<g>
			
				<linearGradient id="SVGID_00000003821500376851604360000006141496619132405916_" gradientUnits="userSpaceOnUse" x1="139.8326" y1="260.2796" x2="139.8326" y2="230.2723" gradientTransform="matrix(0.906 -0.4233 0.4233 0.906 -75.0515 53.7421)">
				<stop  offset="0" style="stop-color:#B5A6E7"/>
				<stop  offset="1" style="stop-color:#7760BF"/>
			</linearGradient>
			<path style="fill:url(#SVGID_00000003821500376851604360000006141496619132405916_);" d="M145.66,205.86l13.09,25.15
				c3.44,0.16,5.28-2.47,5.28-2.47l-10.65-26.29C148.6,202.08,145.66,205.86,145.66,205.86z M163.02,228.75
				c-0.38,0.33-0.96,0.77-1.69,1.11c-0.58,0.27-1.19,0.45-1.81,0.54l-13.11-24.63c0.64-0.57,1.74-1.41,3.15-2.07
				c1.06-0.49,2.14-0.81,3.24-0.96L163.02,228.75z"/>
			<path class="st6" d="M163.02,228.75l1.01-0.21c0,0-1.5,2.66-5.28,2.47l0.77-0.61C159.52,230.4,161.39,230.18,163.02,228.75z"/>
			
				<linearGradient id="SVGID_00000103946902825328237730000001277610620447539608_" gradientUnits="userSpaceOnUse" x1="135.5743" y1="230.8728" x2="144.091" y2="230.8728" gradientTransform="matrix(0.906 -0.4233 0.4233 0.906 -75.0515 53.7421)">
				<stop  offset="0" style="stop-color:#8B8BE0"/>
				<stop  offset="1" style="stop-color:#A177B7"/>
			</linearGradient>
			<path style="opacity:0.62;fill:url(#SVGID_00000103946902825328237730000001277610620447539608_);" d="M145.66,205.86l0.75-0.1
				c0,0,2.24-2.32,6.39-3.02l0.57-0.48c0,0-1.67-0.29-4.27,0.92C146.51,204.39,145.66,205.86,145.66,205.86z"/>
		</g>
		
			<linearGradient id="SVGID_00000155859811033918407460000018295922405598617018_" gradientUnits="userSpaceOnUse" x1="139.8327" y1="232.8499" x2="139.8327" y2="227.6944" gradientTransform="matrix(0.906 -0.4233 0.4233 0.906 -75.0515 53.7421)">
			<stop  offset="0" style="stop-color:#FFFFFF"/>
			<stop  offset="1" style="stop-color:#A177B7"/>
		</linearGradient>
		<path style="opacity:0.62;fill:url(#SVGID_00000155859811033918407460000018295922405598617018_);" d="M142.19,203.56
			c0,0,6.29-1.12,11.66-5.43l1.7,4.12c0,0-1.93-1.91-6.17-0.18c-4.95,2.02-4.68,6-4.68,6L142.19,203.56z"/>
		
			<linearGradient id="SVGID_00000033344183644162459690000013393979973080695956_" gradientUnits="userSpaceOnUse" x1="144.337" y1="263.3428" x2="144.337" y2="230.2624" gradientTransform="matrix(0.906 -0.4233 0.4233 0.906 -75.0515 53.7421)">
			<stop  offset="0" style="stop-color:#000000"/>
			<stop  offset="1" style="stop-color:#FFFFFF"/>
		</linearGradient>
		<path style="opacity:0.5;fill:url(#SVGID_00000033344183644162459690000013393979973080695956_);" d="M155.55,202.26
			c-1.21-0.87-2.59-0.89-2.59-0.89l12.67,30.6l1.53-1.58L155.55,202.26z"/>
		<path class="st11" d="M155.55,202.26c0,0-1.33,4.09,2.49,6.03L155.55,202.26z"/>
	</g>
	<g style="clip-path:url(#SVGID_00000112605173573736809360000000876228186122108577_);">
		<g>
			
				<linearGradient id="SVGID_00000163048358117224377400000008275784491894043033_" gradientUnits="userSpaceOnUse" x1="280.218" y1="400" x2="280.218" y2="311">
				<stop  offset="0" style="stop-color:#6456C0"/>
				<stop  offset="1" style="stop-color:#5F2C95"/>
			</linearGradient>
			<path style="fill:url(#SVGID_00000163048358117224377400000008275784491894043033_);" d="M346.2,400h-46.83
				c-4.94-27.41-16.41-63.08-16.41-63.08c-2.79-1.66-8.24,0.38-8.24,0.38L257.49,400h-43.08c-2.29-38.69,18.88-82.6,18.88-82.6
				l-0.01-0.01c-0.07-0.15-0.74-1.49-0.56-2.4c0.07-0.39,0.79-1.13,1.61-1.87c1.16-1.06,2.55-2.13,2.55-2.13h80.17l1.84,1h0.04
				c1.75,1.06,4.11,2.69,4.11,3.89c0,1.65-0.65,2.71-0.81,2.95l-0.04,0.05C339.32,351.25,346.2,400,346.2,400z"/>
			
				<radialGradient id="SVGID_00000020389579066958782770000016411273582591515557_" cx="232.4988" cy="368.6501" r="27.0277" gradientTransform="matrix(0.6514 0.1497 -0.3883 1.6767 228.197 -285.43)" gradientUnits="userSpaceOnUse">
				<stop  offset="0" style="stop-color:#4B474B"/>
				<stop  offset="1" style="stop-color:#000000"/>
			</radialGradient>
			<path style="opacity:0.5;fill:url(#SVGID_00000020389579066958782770000016411273582591515557_);" d="M254.11,371.55
				c-5.8,25.03-18.38,43.51-28.1,41.27c-9.72-2.23-12.91-24.34-7.11-49.36c5.8-25.03,18.38-43.51,28.1-41.27
				C256.72,324.42,259.9,346.52,254.11,371.55z"/>
			
				<radialGradient id="SVGID_00000148646636815513196630000002993011830154287753_" cx="351.3293" cy="352.8094" r="27.0272" gradientTransform="matrix(0.6443 -0.1796 0.4664 1.6551 -70.4207 -153.8573)" gradientUnits="userSpaceOnUse">
				<stop  offset="0" style="stop-color:#4B474B"/>
				<stop  offset="1" style="stop-color:#000000"/>
			</radialGradient>
			<path style="opacity:0.5;fill:url(#SVGID_00000148646636815513196630000002993011830154287753_);" d="M337.91,362.15
				c6.96,24.71,4.81,46.91-4.81,49.59c-9.62,2.68-23.06-15.18-30.02-39.88c-6.96-24.71-4.81-46.91,4.81-49.59
				C317.51,319.59,330.95,337.44,337.91,362.15z"/>
			<g>
				
					<linearGradient id="SVGID_00000160171095475373519500000006638733489881651371_" gradientUnits="userSpaceOnUse" x1="251.4272" y1="368.6816" x2="274.8247" y2="368.6816">
					<stop  offset="0" style="stop-color:#9E8CEF"/>
					<stop  offset="1" style="stop-color:#CAAFEE"/>
				</linearGradient>
				<path style="fill:url(#SVGID_00000160171095475373519500000006638733489881651371_);" d="M251.92,400.04l-0.49-0.08
					c5.47-32.2,19.34-59.2,19.48-59.47l0.06-0.07l3.53-3.09l0.33,0.38l-3.5,3.06C270.7,341.97,257.27,368.51,251.92,400.04z"/>
			</g>
			<g>
				
					<linearGradient id="SVGID_00000129904098847914060160000003399116543008161698_" gradientUnits="userSpaceOnUse" x1="341.5261" y1="368.6826" x2="364.9255" y2="368.6826" gradientTransform="matrix(-1 0 0 1 647.6286 0)">
					<stop  offset="0" style="stop-color:#9E8CEF"/>
					<stop  offset="1" style="stop-color:#CAAFEE"/>
				</linearGradient>
				<path style="fill:url(#SVGID_00000129904098847914060160000003399116543008161698_);" d="M305.61,400.04
					c-5.36-31.55-19.16-58.35-19.78-59.54l-3.13-2.81l0.33-0.37l3.22,2.91c0.14,0.27,14.38,27.53,19.85,59.73L305.61,400.04z"/>
			</g>
			
				<linearGradient id="SVGID_00000131358752238158637850000009061126166346271890_" gradientUnits="userSpaceOnUse" x1="277.16" y1="400" x2="277.16" y2="310.4984">
				<stop  offset="0" style="stop-color:#CCCCFF"/>
				<stop  offset="1" style="stop-color:#755CBB"/>
			</linearGradient>
			<path style="opacity:0.76;fill:url(#SVGID_00000131358752238158637850000009061126166346271890_);" d="M323.16,315.44
				c0,1.66-0.65,2.73-0.81,2.97l-0.04,0.05c-16.73,3.78-29.47,19.4-29.47,19.4c9.12,17.5,24.33,62.13,24.33,62.13H299.3
				c-4.94-27.41-16.41-63.08-16.41-63.08c-2.79-1.66-8.24,0.38-8.24,0.38L257.42,400h-11.16c3.99-26.27,15.78-58.33,15.78-58.33
				c-11.59-13.49-28.82-24.27-28.82-24.27l-0.01-0.01l-2.05-1.28l1.48-1.11c7.45,7.15,31.49,16.49,32.24,16.78l-30.63-18.65
				c1.16-1.06,2.55-2.13,2.55-2.13l80.37-0.5c0,0,0.81,0.41,1.85,1.03l-21.95,12.08L323.16,315.44z"/>
			
				<linearGradient id="SVGID_00000114069768140748679870000008261329770352022694_" gradientUnits="userSpaceOnUse" x1="287.5455" y1="355.395" x2="287.5455" y2="331.0632">
				<stop  offset="0" style="stop-color:#CCCCFF"/>
				<stop  offset="1" style="stop-color:#755CBB"/>
			</linearGradient>
			<polygon style="opacity:0.76;fill:url(#SVGID_00000114069768140748679870000008261329770352022694_);" points="282.87,337.13 
				292.22,331.06 290,337.13 288.37,355.39 			"/>
			
				<linearGradient id="SVGID_00000051352941299708774170000004017397638215906946_" gradientUnits="userSpaceOnUse" x1="259.3632" y1="346.4476" x2="259.3632" y2="322.6091">
				<stop  offset="0" style="stop-color:#CCCCFF"/>
				<stop  offset="1" style="stop-color:#755CBB"/>
			</linearGradient>
			<polygon style="opacity:0.76;fill:url(#SVGID_00000051352941299708774170000004017397638215906946_);" points="274.66,337.51 
				264.92,332 244.07,322.61 270.62,340.16 272.2,346.45 			"/>
		</g>
		<path class="st20" d="M301.02,149.64c0.06,0.43,0.11,0.66,0.11,0.66c-0.49,2.03-1.05,3.91-1.65,5.63
			c-1.95,5.61-4.38,9.59-6.2,12.07c-1.58,2.14-2.71,3.17-2.71,3.17c-14.53-4.56-21.68-18.77-24.43-25.84
			c-0.02-0.03-0.03-0.07-0.04-0.11c-0.53-1.33-0.88-2.41-1.1-3.11c0,0,0,0,0-0.01c-0.17-0.56-0.25-0.87-0.25-0.87
			c0.06-0.12,0.12-0.25,0.18-0.37l0.03-0.05c0.24-0.5,0.48-1.01,0.7-1.49c1.9-4.16,3.17-8.05,3.98-11.12
			c0.71-2.61,1.09-4.62,1.26-5.68c0.09-0.55,0.13-0.85,0.13-0.85l6.77,3.57l23.33,12.35c-0.35,2.14-0.49,4.15-0.5,5.91
			c-0.02,1.24,0.02,2.36,0.09,3.31c0.07,1.15,0.19,2.07,0.28,2.67v0.01C301,149.55,301.01,149.59,301.02,149.64z"/>
		
			<linearGradient id="SVGID_00000115498470334451819340000008878599390520982420_" gradientUnits="userSpaceOnUse" x1="283.1813" y1="176.3712" x2="283.1813" y2="140.9188">
			<stop  offset="0" style="stop-color:#D5CDF8"/>
			<stop  offset="1" style="stop-color:#F3EDFB"/>
		</linearGradient>
		<path style="fill:url(#SVGID_00000115498470334451819340000008878599390520982420_);" d="M294.55,172.78
			c-1.34,1.33-2.93,2.53-4.82,3.52c-0.04,0.03-0.08,0.05-0.12,0.07c0,0-0.05-0.03-0.14-0.08l-0.01-0.01
			c-0.51-0.31-2.24-1.37-4.57-3.13c-6.09-4.59-16.27-13.87-19.17-26.37c-0.01-0.02-0.01-0.03-0.02-0.05c-0.34-1.48-0.58-3-0.7-4.57
			c0,0,0,0,0-0.01c-0.03-0.41-0.06-0.82-0.07-1.23c0,0,2.02,4.75,5.53,9.88c4.12,6.03,10.3,12.61,17.69,12.65
			c6.39,0.04,9.67-4.33,11.33-8.36c0.71-1.71,1.12-3.36,1.34-4.58c0.01-0.01,0.01-0.02,0.01-0.02c0.07-0.36,0.12-0.68,0.17-0.95
			v-0.01c0.02-0.14,0.04-0.26,0.05-0.37c0.06-0.45,0.08-0.71,0.08-0.71S303.58,163.75,294.55,172.78z"/>
		
			<linearGradient id="SVGID_00000075875368902645212930000009880747286184897981_" gradientUnits="userSpaceOnUse" x1="264.9303" y1="158.23" x2="301.4323" y2="158.23">
			<stop  offset="0" style="stop-color:#CCCCFF"/>
			<stop  offset="1" style="stop-color:#755CBB"/>
		</linearGradient>
		<path style="opacity:0.5;fill:url(#SVGID_00000075875368902645212930000009880747286184897981_);" d="M294.55,172.46
			c-1.34,1.34-2.93,2.54-4.82,3.54h-0.12l-0.14-0.01l-0.01-0.01c-0.51-0.31-2.24-1.38-4.57-3.14c-6.09-4.61-16.27-13.93-19.17-26.49
			c-0.01-0.02-0.01-0.03-0.02-0.05c-0.34-1.49-0.58-3.01-0.7-4.59c0,0,0,0,0-0.01c-0.03-0.41-0.06-0.82-0.07-1.24
			c0,0,2.02,4.77,5.53,9.92c0,0,4.02,11.1,12.72,16.6c4.36,2.75,7.67,2.35,10.1,0.73c2.43-1.61,4-4.42,4.93-6.54
			c0.93-2.13,1.22-4.12,1.27-5.58c0.01-0.33,0.01-0.63,0-0.9c0.71-1.72,1.12-3.37,1.34-4.6c0.01-0.01,0.01-0.02,0.01-0.02
			c0.07-0.36,0.12-0.68,0.17-0.95v-0.01c0.02-0.14,0.04-0.26,0.05-0.37c0.06-0.45,0.08-0.71,0.08-0.71S303.58,163.39,294.55,172.46z
			"/>
		
			<linearGradient id="SVGID_00000049191700756463999940000004554619177967022755_" gradientUnits="userSpaceOnUse" x1="273.3095" y1="318.4393" x2="273.3095" y2="139">
			<stop  offset="0" style="stop-color:#9E8CEF"/>
			<stop  offset="1" style="stop-color:#CAAFEE"/>
		</linearGradient>
		<path style="fill:url(#SVGID_00000049191700756463999940000004554619177967022755_);" d="M350.85,263.36
			c-0.11,0.05-0.16,0.08-0.16,0.08c-0.81,0.1-3.35-0.46-6.67-3.33l-0.01-0.01c0-0.01-0.01-0.02-0.03-0.03
			c-0.01-0.01-0.02-0.03-0.04-0.04c-2.78-2.43-6.12-6.5-9.45-13.15c-6.66-13.3-8.56-22.18-8.87-23.73l-0.04-0.24l-3.88,6.16
			c-2.63,7.92-7.62,40.68-7.53,42.09c0.09,1.41,4.42,8.28,4.33,9.13c0,0,0,0.01-0.01,0.02c-0.12,0.85-2.07,2.73-2.62,4.78
			c-0.38,1.36,2.26,5.65,4.12,8.86v0.1c0.96,1.68,1.71,3.06,1.71,3.58c0,1.51-4.71,8.9-4.71,8.9v3.98l-0.07,0.07l-0.22,0.2
			l-0.18,0.15c-1.79,1.42-9.37,6.07-33.05,7.35c-28.06,1.51-46.76-7.58-46.76-7.58l1.41-3.89c0,0-1.31-1.13-1.41-1.7
			c-0.09-0.57,1.03-1.9,1.03-1.9s-2.82-1.51-2.82-3.41c0-1.89,5.65-7.76,5.46-12.79c-0.19-5.02-4.52-9.47-5.09-12.31
			c-0.57-2.84,7.34-9.85,7.34-9.85c-6.77-21.6-8.1-50.59-8.1-50.59l-1.31-1.52c0,0-8.1,18.57-15.44,27.66
			c-0.87,1.08-1.8,2.15-2.75,3.18c-2.05,2.23-4.22,4.32-6.32,6.15c-5.09,4.46-9.71,7.39-10.88,7.16c-1.89-0.38-9.42-15.35-9.07-30.7
			c0.16-7.3,4.53-15.47,9.07-22.02c0.49-0.7,0.97-1.39,1.47-2.06c3.22-4.41,6.31-7.87,7.79-9.45c0.58-0.62,0.9-0.95,0.9-0.95
			s-1.03-3.35-1.74-6.26c-0.01-0.07-0.03-0.14-0.05-0.21c0-0.03-0.01-0.07-0.02-0.1c-0.01-0.05-0.02-0.07-0.02-0.07
			c-0.42-1.79-0.68-3.34-0.44-3.72c0.63-1.01,4.27-2.15,4.9-2.9c0.63-0.76,3.26-13.52,5.26-14.91c1.93-1.33,5.31-2.3,16.61-6.77
			c0.56-0.22,1.12-0.44,1.72-0.68c12.67-5.05,25.09-11.18,25.09-11.18l4.77-5.9h0.97l-0.71,1.5l-0.03,0.05
			c0.34,1.52,0.74,2.98,1.18,4.37c0.01,0.04,0.02,0.08,0.04,0.11c6.65,20.82,23.77,27.53,23.77,27.53
			c11.9-8.71,11.66-22.54,11.66-22.54v-1.9l2.23,0.66l1.52,3.6c0,0,2.58,3.98,12.8,8.44c1.76,0.77,3.66,1.74,5.62,2.85
			c9.36,5.27,19.76,13.42,20.56,15.15c0.08,0.18,0.17,0.46,0.27,0.86v0.68c1.08,4.25,3.31,20.18,5.37,25.86
			c1.29,3.55,3.33,5.5,4.83,6.52c0.01,0.01,0.01,0.01,0.02,0.01c1.11,0.76,1.93,1,1.93,1c0.16,0.87,0.31,1.74,0.45,2.59
			C360.92,243.58,352.7,262.06,350.85,263.36z"/>
		
			<linearGradient id="SVGID_00000088854630171421854040000009152446562303927950_" gradientUnits="userSpaceOnUse" x1="198.59" y1="206.915" x2="242.29" y2="206.915">
			<stop  offset="0" style="stop-color:#CCCCFF"/>
			<stop  offset="1" style="stop-color:#755CBB"/>
		</linearGradient>
		<path style="opacity:0.5;fill:url(#SVGID_00000088854630171421854040000009152446562303927950_);" d="M242.29,211.77l-8.24,2.77
			l-1.32-1.52c0,0-8.15,18.57-15.54,27.66c-0.88,1.08-1.81,2.15-2.77,3.18c-2.06,2.23-4.25,4.32-6.36,6.15l-6.28-27.07l-3.19-20.55
			c3.24-4.41,6.35-7.87,7.84-9.45c0.58-0.62,0.91-0.95,0.91-0.95s-1.04-3.35-1.75-6.26c-0.01-0.07-0.03-0.14-0.05-0.21
			c0-0.03-0.01-0.07-0.02-0.1c-0.01-0.05-0.02-0.07-0.02-0.07c-0.42-1.79-0.68-3.34-0.44-3.72c0.63-1.01,4.3-2.15,4.93-2.9
			c0.63-0.76,3.28-13.52,5.3-14.91c0,0-1.32,12.25,5.69,27.79l3.41,4.8l9.98,8.02C234.37,204.43,238.16,209.46,242.29,211.77z"/>
		
			<linearGradient id="SVGID_00000041982030083888856250000008984485265198096545_" gradientUnits="userSpaceOnUse" x1="197.3284" y1="257.17" x2="197.3284" y2="173.26">
			<stop  offset="0" style="stop-color:#9E8CEF"/>
			<stop  offset="1" style="stop-color:#DAC7F3"/>
		</linearGradient>
		<path style="fill:url(#SVGID_00000041982030083888856250000008984485265198096545_);" d="M218.54,233.93
			c-1.77,13.13-21.34,23.24-21.34,23.24c-4.36,0-9.23-7.58-13.65-16.93c-4.42-9.35-4.69-36.21-4.92-37.87
			c-0.24-1.66-2.7-4.98-2.85-6.4c-0.14-1.42,3.98-4.36,3.98-4.36l-0.03-0.07l-0.03-0.07c-0.43-0.92-2.85-6.11-2.68-7.06
			c0.19-1.04,4.82-3.31,4.82-3.31l0.29,5.11c0,0,10.78-2.04,14.43-10.39l0.64-2.56l1.8,1.2v10.99c0,0,0.37,1.71,0.94,1.71
			c0.57,0,4.77-2.1,5.65-1.81c0.89,0.29,1.76,6.17,2.94,6.92c1.17,0.76,4.3,2.94,4.77,3.98c0.21,0.47,0.23,2.16,0.25,4.15
			c0.03,2.44,0.05,5.32,0.41,6.94C214.63,210.27,220.31,220.79,218.54,233.93z"/>
		
			<linearGradient id="SVGID_00000054963715438370623800000004315925081431191735_" gradientUnits="userSpaceOnUse" x1="341.5302" y1="232.9861" x2="397.8355" y2="232.9861">
			<stop  offset="0" style="stop-color:#A999F1"/>
			<stop  offset="1" style="stop-color:#DAC7F3"/>
		</linearGradient>
		<path style="fill:url(#SVGID_00000054963715438370623800000004315925081431191735_);" d="M397.44,222.68
			c-0.88,1.39-5.3,4.3-6.44,5.44c-1.14,1.13,0,4.87,0,4.87c-18.57,19.71-37.93,29.58-39.88,30.54c-0.11,0.05-0.16,0.08-0.16,0.08
			c-11.66-7.84-10.66-20.75-6.79-31.63c3.7-10.44,10.04-19.01,10.32-19.38l0.01-0.01c0,0,0,0,0.01-0.01
			c0.21-0.08,3.54-1.46,5.92-1.64c0.79-0.06,1.51,0.25,2.19,0.68c1.42,0.88,2.62,2.27,3.78,1.69c1.71-0.86,5.53-9.89,8.12-10.14
			c1.81-0.17,4.32,1.67,5.99,2.72c0.73,0.46,1.3,0.77,1.58,0.69c0.95-0.25,4.17-4.11,4.43-4.21c0.25-0.11,1.72,0.97,1.72,0.97
			l-1.03,1.28c1.58,9.1,6.76,15.22,6.76,15.22l3.47-5.08C397.44,214.76,398.33,221.29,397.44,222.68z"/>
		<path class="st27" d="M301.51,149.26c-0.02,0.13-0.04,0.26-0.05,0.39c-0.05,0.27-0.11,0.53-0.19,0.8c0,0,0,0.01-0.01,0.02
			c-1.19,4.41-6,8.92-12.07,6.75c-6.63-2.37-19.25-29.1-19.25-29.1l1.27-5.71l29.95,24.4l0.33,2.31L301.51,149.26z"/>
		<g>
			<path class="st28" d="M201.78,144.79c0,0-1.83-10.11-1.01-17.56c0.82-7.45-0.21-15.92-0.21-15.92s-1.81-0.76-3.14,0
				c-1.33,0.76-4.42,8.46-3.03,14.65c1.39,6.19,0.32,21.03,0.32,21.03h-2.08l-4.55-6.25l-2.21-0.63c0,0-12.73,12-12.54,19.14
				l1.66,6.35l15.67-0.54l10.23-11.68L201.78,144.79z"/>
			
				<linearGradient id="SVGID_00000085214527398452044950000015768371757902928791_" gradientUnits="userSpaceOnUse" x1="178.7464" y1="161.8185" x2="178.7464" y2="139.694">
				<stop  offset="0.016" style="stop-color:#FFC2A9"/>
				<stop  offset="1" style="stop-color:#FF9595"/>
			</linearGradient>
			<path style="fill:url(#SVGID_00000085214527398452044950000015768371757902928791_);" d="M185.69,139.69
				c0,0,0.33,7.96,2.11,14.78c0,0-0.3,2.79-3.57,2.98l-0.81-0.9c0,0-0.57,3.17-3.46,3.41l-2.75-2.75l0.71,2.27
				c0,0-0.99,2.42-3.6,2.32c0,0-4.36-3.41-4.64-7.86l4.31-3.65v-2.79l5.12-3.6l0.09-2.04C179.21,141.87,182.21,139.65,185.69,139.69
				z"/>
			
				<linearGradient id="SVGID_00000014609665417194153900000016076321228773361558_" gradientUnits="userSpaceOnUse" x1="193.0064" y1="161.7158" x2="193.0064" y2="125.0926">
				<stop  offset="0" style="stop-color:#FFEADB"/>
				<stop  offset="0.9944" style="stop-color:#C27CB6"/>
			</linearGradient>
			<path style="opacity:0.6;fill:url(#SVGID_00000014609665417194153900000016076321228773361558_);" d="M201.1,125.09
				c0,0-0.77,1.95-1.86,2.71c-1.09,0.76-4.25,1.34-4.25,1.34L194.86,147h-2.08l-4.55-6.25c0,0,2.31,3.57,2.45,6.25l-1.8,0.88
				l-1.56-5.35l-0.74,3.85l0.74,4.79c0,0,2.7-2.32,7.58-2.41l0.73,1.33c0,0-8.83,7.31-10.86,11.62c0,0,4.36-5.54,14.31-11.65
				l0.95-2.94l1.26-7.01C201.26,140.12,200.07,130.01,201.1,125.09z"/>
			
				<linearGradient id="SVGID_00000144316691882480991740000011565805051128744584_" gradientUnits="userSpaceOnUse" x1="191.6668" y1="186.21" x2="191.6668" y2="129.75">
				<stop  offset="0.016" style="stop-color:#FFC2A9"/>
				<stop  offset="1" style="stop-color:#FF9595"/>
			</linearGradient>
			<path style="fill:url(#SVGID_00000144316691882480991740000011565805051128744584_);" d="M208.35,155.8
				c-0.82,2.46-9.41,12.69-10.36,14.91c-0.95,2.21-1.52,5.11-1.52,5.11c-4.22,9.13-14.43,10.39-14.43,10.39l-0.47-8.24
				c0,0-5.49-3.16-6.42-4.89l-0.01-0.03l-0.11-0.29c-0.28-1.61-0.04-7.58-0.04-7.58l9.61-3.89c4.17-5.4,14.31-11.65,14.31-11.65
				l0.47-2.83c-7.28-3.58-6.06-14.41-4.83-15.74c1.23-1.32,3.5-1.32,3.5-1.32s2.66,8.71,4.36,12.79
				C204.12,146.61,209.17,153.34,208.35,155.8z"/>
			<path class="st32" d="M179.39,141.87c0,0,1.07,9.95,4.22,14.68c0,0-3.99-4.96-4.31-12.65L179.39,141.87z"/>
			<path class="st32" d="M174,147.51c0,0,1.04,8.01,5.97,12.46c0,0-4.36-2.18-5.97-9.66V147.51z"/>
			
				<linearGradient id="SVGID_00000166659949571435822610000013287157576507033756_" gradientUnits="userSpaceOnUse" x1="181.57" y1="177.3993" x2="199.322" y2="177.3993">
				<stop  offset="0.016" style="stop-color:#D1A1D6"/>
				<stop  offset="0.9944" style="stop-color:#BD89C4"/>
			</linearGradient>
			<path style="opacity:0.91;fill:url(#SVGID_00000166659949571435822610000013287157576507033756_);" d="M199.32,168.59
				c0,0-10.83,10.52-17.75,9.38l0.47,8.24c0,0,11.37-0.99,15.07-12.95C197.11,173.26,198.44,169.82,199.32,168.59z"/>
		</g>
		<g>
			
				<linearGradient id="SVGID_00000062901233030648049810000004503696404174754749_" gradientUnits="userSpaceOnUse" x1="398.9944" y1="219.817" x2="398.9944" y2="144.9284">
				<stop  offset="0.016" style="stop-color:#FFC2A9"/>
				<stop  offset="1" style="stop-color:#FF9595"/>
			</linearGradient>
			<path style="fill:url(#SVGID_00000062901233030648049810000004503696404174754749_);" d="M428.12,182.41
				c0,0-9.87,18.04-21.42,23.59h-3.95l-9.12,13.82c0,0-5.89-3.7-6.33-15.85c0,0,2.06-2.15,2.57-4.58c0,0-3.25-2.56-4.14-4.43
				c-0.87-1.88-1.19-7.52-1.82-9.84c-0.62-2.32-5.95-7.14-7.14-7.77c-1.19-0.62-6.58-0.94-6.58-0.94s-0.75-1.94,0-2.88
				c0.75-0.94,9.15-4.21,13.72-1.07c0,0,0.32,2.38,0.81,3.64c0.51,1.25,4.51,5.69,5.14,5.69c0.62,0,3.32-2.25,4.51-4.01
				c1.14-1.69,7.2-14.75,8.67-19.16c0.01-0.05,0.02-0.09,0.04-0.13c0.02-0.07,0.05-0.14,0.06-0.2c0.02-0.05,0.03-0.09,0.04-0.13
				c0.01-0.02,0.02-0.03,0.02-0.05c1.13-3.82,7.71-11.15,11.22-13.15c0,0,1.5-0.38,2.31,1.5c0,0-2.82,8.02-5.76,12.79
				c-0.5,0.8-1.03,1.75-1.59,2.76c0,0,0,0-0.01,0c-2.51,4.61-5.34,10.65-5.74,11.54l-0.05,0.11l1.57,0.8l4.24-4.02l4.34-4.12
				l9.97,10.52l-0.98,1.25l-3.11,4l1.58,0.29l3.67-4.06L428.12,182.41z"/>
			
				<linearGradient id="SVGID_00000065770731824315366490000004327032302217529732_" gradientUnits="userSpaceOnUse" x1="407.9158" y1="196.1" x2="407.9158" y2="158.59">
				<stop  offset="0" style="stop-color:#FFEADB"/>
				<stop  offset="0.9944" style="stop-color:#C27CB6"/>
			</linearGradient>
			<path style="opacity:0.6;fill:url(#SVGID_00000065770731824315366490000004327032302217529732_);" d="M426.03,186.45l-3.18,4.67
				c0,0-17.45-13.46-21.24-14.6c-3.79-1.14-5.18-0.38-5.18-0.38l-3.91,4.99c0,0,7.2,6.38,7.83,14.97c0,0-2.4-10.86-10.55-14.15
				c0.63,0,3.35-2.27,4.55-4.04c1.15-1.7,7.26-14.87,8.74-19.32c-0.2,0.76-0.46,2.24,0.16,3.41c0.86,1.59,5.92,0.09,6.22,0
				c0.01,0,0.01,0,0.01,0l-5.8,11.63l-0.05,0.11l1.58,0.81l4.27-4.05l-2.14,4.97l15.58,2.75l-3.14,4.03l1.59,0.29L426.03,186.45z"/>
			
				<linearGradient id="SVGID_00000177451748485603300020000005810159988034882220_" gradientUnits="userSpaceOnUse" x1="415.3158" y1="183.4632" x2="415.3158" y2="166.6482">
				<stop  offset="0" style="stop-color:#FFB0B0"/>
				<stop  offset="0.984" style="stop-color:#FFC2A9"/>
			</linearGradient>
			<path style="fill:url(#SVGID_00000177451748485603300020000005810159988034882220_);" d="M413.86,166.66c0,0,3.03-0.44,4.99,3.47
				l-0.44,1.26c0,0,2.95,0.58,5.81,5.37c0,0-2.53,4.61-8.78,6.69c0,0-2.91-0.82-3.41-3.28l0.57-1.58l-2.27,1.71
				c0,0-2.72,0.82-3.92-3.22L413.86,166.66z"/>
			
				<linearGradient id="SVGID_00000000214605120212609610000010634230452980648859_" gradientUnits="userSpaceOnUse" x1="425.0686" y1="186.0526" x2="425.0686" y2="176.8316">
				<stop  offset="0" style="stop-color:#FFB0B0"/>
				<stop  offset="0.984" style="stop-color:#FFC2A9"/>
			</linearGradient>
			<path style="fill:url(#SVGID_00000000214605120212609610000010634230452980648859_);" d="M429.27,181.63c0,0,0.63-2.91-2.46-4.8
				l-6,6.63c0,0,0.18,2.13,2.78,2.59C423.59,186.05,427.69,184.66,429.27,181.63z"/>
			
				<linearGradient id="SVGID_00000005980902093535800070000002941549085797671852_" gradientUnits="userSpaceOnUse" x1="385.63" y1="204.4312" x2="402.78" y2="204.4312">
				<stop  offset="0.016" style="stop-color:#D1A1D6"/>
				<stop  offset="0.9944" style="stop-color:#BD89C4"/>
			</linearGradient>
			<path style="opacity:0.91;fill:url(#SVGID_00000005980902093535800070000002941549085797671852_);" d="M385.63,195.53
				c0,0,6.95,7.76,17.15,11.14l-4.4,6.66l-9.17-11.65l0.59-1.68C389.8,200,386.13,197.24,385.63,195.53z"/>
			<path class="st32" d="M418.41,171.4c0,0-2.91,4.8-5.81,7.2l-0.57,1.58c0,0,5.64-3.81,7.71-8.2
				C419.75,171.98,419.07,171.49,418.41,171.4z"/>
		</g>
		
			<linearGradient id="SVGID_00000057861603056310141150000002305057268129163448_" gradientUnits="userSpaceOnUse" x1="361.5428" y1="263.6212" x2="361.5428" y2="179.11">
			<stop  offset="0" style="stop-color:#CCCCFF"/>
			<stop  offset="1" style="stop-color:#755CBB"/>
		</linearGradient>
		<path style="opacity:0.5;fill:url(#SVGID_00000057861603056310141150000002305057268129163448_);" d="M397.22,222.68
			c-0.88,1.39-5.3,4.3-6.44,5.44c-1.14,1.13,0,4.87,0,4.87c-18.57,19.71-37.93,29.58-39.88,30.54c-0.11,0.05-0.16,0.08-0.16,0.08
			c-1.52,0.19-8.91-1.89-16.3-16.67c-6.7-13.39-8.62-22.33-8.93-23.89l-0.04-0.24l1.63-2.21l2.42-27.28l1.7,5.49
			c6.44-7.77,12.51-19.7,12.51-19.7l0.27,0.86v0.01c1.09,4.28,3.33,20.31,5.41,26.03c1.3,3.57,3.35,5.54,4.86,6.56l0.01,0.02
			l-0.01,0.01c-5.93,5.41-8.87,13.19-10.32,19.38c-1.33,5.68-1.42,10.03-1.42,10.03s1.64-7.7,6.82-16.96
			c1.88-3.37,4.62-6.38,7.33-8.85c2.04-1.86,4.07-3.42,5.72-4.58c1.42,0.88,2.62,2.27,3.78,1.69c-7.8,11.71-7.61,34.89-0.28,30.47
			c7.32-4.42,9-13.8,9-13.8c-1.73-11.43-1.21-24.32,0.18-26.77c1.69,0.06,6.52,3.45,6.8,3.37c-0.44,13.45,5.88,22.43,5.88,22.43
			l4.17-6.45c-6.07-10.23-5.62-20.19-5.62-20.19c0.25-0.11,1.72,0.97,1.72,0.97l-1.03,1.28c1.58,9.1,6.76,15.22,6.76,15.22
			l3.47-5.08C397.22,214.76,398.11,221.29,397.22,222.68z"/>
		
			<linearGradient id="SVGID_00000017473996950396268750000010309518267714066089_" gradientUnits="userSpaceOnUse" x1="175.8056" y1="246.2746" x2="317" y2="246.2746">
			<stop  offset="0" style="stop-color:#CCCCFF"/>
			<stop  offset="1" style="stop-color:#755CBB"/>
		</linearGradient>
		<path style="opacity:0.5;fill:url(#SVGID_00000017473996950396268750000010309518267714066089_);" d="M317,306.49v3.98l-0.07,0.07
			l-0.22,0.2l-0.18,0.15c-1.8,1.42-9.42,6.07-33.23,7.35c-28.22,1.51-47.02-7.58-47.02-7.58l1.42-3.89c0,0-1.32-1.13-1.42-1.7
			c-0.09-0.57,1.04-1.9,1.04-1.9s-2.84-1.51-2.84-3.41c0-1.71,4.63-6.66,5.38-11.31c0.09-0.5,0.13-0.99,0.11-1.48
			c-0.19-5-4.51-9.43-5.1-12.27c-0.01-0.03-0.01-0.04-0.01-0.04c-0.57-2.84,7.38-9.85,7.38-9.85c-6.81-21.6-8.14-50.59-8.14-50.59
			l-1.32-1.52c0,0-8.14,18.57-15.52,27.66c-7.38,9.1-18.17,16.87-20.06,16.49c-4.36,0-9.22-7.58-13.63-16.93
			c-4.42-9.35-4.68-36.21-4.91-37.87c-0.24-1.66-2.7-4.98-2.85-6.4c4.73,8.15,12.28,5.75,12.28,5.75c-5.46,0.12-8.3-10.11-8.3-10.11
			l-0.03-0.07l-0.03-0.07l-2.67-7.05c0.3,0.34,6.54,7.33,12.58,3.02c6.18-4.42,9.37-12.98,9.37-12.98v10.99c0,0,0.37,1.71,0.94,1.71
			c-0.37,5.06-1.44,11.22-2.74,17.29c-2.81,13.13-6.65,25.81-6.65,25.81s10.43-5.68,14.09-20.08c1.75-6.89,2.04-12.88,1.87-17.24
			c-0.15-3.73-0.64-6.28-0.84-7.21c-0.01-0.07-0.03-0.14-0.05-0.21c0-0.03-0.01-0.07-0.02-0.1c0-0.02-0.01-0.04-0.01-0.05l1.01,2.14
			l1.92,4.76c2.23,18.48-2.37,46.33-2.37,46.33c6.69-8.34,8.08-26.78,7.79-31.26c-0.13-2.14-0.3-4.78-0.41-6.94
			c-0.15-2.36-0.25-4.15-0.25-4.15l13.69,8.18l-2.53-8.02l9.97,8.02c0,0,8.96,10.8,18.17,12.06c9.21,1.27,43.02,0.51,43.02,0.51
			s-29.4,1.89-37.98,4.42c-8.58,2.53-10.22,5.43-10.22,5.43c6.2,31.59,40.54,42.24,41.6,42.56c-31.15-4.68-45.64-31.19-45.64-31.19
			s-0.51,14.91,1.89,20.59c2.4,5.68,16.53,19.58,34.7,22.48c1.53,0.24,3.04,0.39,4.53,0.46c15.32,0.72,28.01-7.12,29.31-7.96
			c0.07-0.05,0.11-0.07,0.11-0.07s-0.01,0.02-0.03,0.05c-0.49,0.75-6.77,9.59-32.14,10.56c-1.54,0.06-3.04,0.05-4.5-0.01
			c-0.01,0-0.02,0-0.02,0c-23.51-0.99-35.49-16.67-35.49-16.67s-8.7,4.68-3.15,11.62c0.06,0.07,0.12,0.15,0.18,0.22
			c1.64,1.89,5.24,4.2,9.51,6.58c0.12,0.07,0.24,0.14,0.35,0.2c5.15,2.85,11.2,5.79,15.87,8.22c0.03,0.01,0.05,0.02,0.07,0.03
			c2.86,1.49,5.2,2.77,6.51,3.73c0.01,0,0.01,0.01,0.01,0.01c1.32,0.96,1.59,1.58,0.3,1.73c-6.56,0.76-31.42-4.67-32.42-3.16
			c-1.01,1.52,1.23,5.43,1.23,5.43c22.81,11.32,71.63,5.74,73.17,5.57c-40.86,10.47-74.28-2.79-74.28-2.79l1.11,3.92
			c0,0,18.2,6.31,39.65,6.82c21.46,0.5,34.83-4.99,34.83-4.99L317,306.49z"/>
		
			<linearGradient id="SVGID_00000101100529374003785110000010560456542581305737_" gradientUnits="userSpaceOnUse" x1="300.3053" y1="222.9415" x2="327.3233" y2="222.9415">
			<stop  offset="0" style="stop-color:#CCEDFF"/>
			<stop  offset="1" style="stop-color:#755CBB"/>
		</linearGradient>
		<path style="opacity:0.5;fill:url(#SVGID_00000101100529374003785110000010560456542581305737_);" d="M300.31,216.87
			c0,0,16.27,0.88,27.02,3.73l-5.54,8.41C321.78,229.01,313.44,221.67,300.31,216.87z"/>
		
			<linearGradient id="SVGID_00000031170626101159530630000010118408840592350618_" gradientUnits="userSpaceOnUse" x1="275.8" y1="270.358" x2="315.5061" y2="270.358">
			<stop  offset="0" style="stop-color:#CCEDFF"/>
			<stop  offset="1" style="stop-color:#755CBB"/>
		</linearGradient>
		<path style="opacity:0.5;fill:url(#SVGID_00000031170626101159530630000010118408840592350618_);" d="M315.51,261.71
			c0,0-10.15,8.47-20.13,12.38c-9.98,3.92-19.58,4.29-19.58,4.29s5.74,1.71,19.85-0.57c14.12-2.27,18.95-9.92,18.95-9.92
			L315.51,261.71z"/>
		
			<linearGradient id="SVGID_00000041999414453322481240000009798605553080868025_" gradientUnits="userSpaceOnUse" x1="277.5787" y1="288.3118" x2="320" y2="288.3118">
			<stop  offset="0" style="stop-color:#CCEDFF"/>
			<stop  offset="1" style="stop-color:#755CBB"/>
		</linearGradient>
		<path style="opacity:0.5;fill:url(#SVGID_00000041999414453322481240000009798605553080868025_);" d="M320,294.32L320,294.32
			c-18.78,4.86-42.62-2.1-42.42-2.95c0.2-0.85,6.53,0.38,21.21-2.56c14.23-2.85,19.39-7.91,19.7-8.22
			c-0.12,0.86-2.08,2.75-2.64,4.81C315.47,286.77,318.13,291.09,320,294.32z"/>
		
			<linearGradient id="SVGID_00000023974129372439674440000004906489562664503194_" gradientUnits="userSpaceOnUse" x1="241.13" y1="243.86" x2="241.13" y2="196.25">
			<stop  offset="0" style="stop-color:#CCEDFF"/>
			<stop  offset="1" style="stop-color:#755CBB"/>
		</linearGradient>
		<path style="opacity:0.5;fill:url(#SVGID_00000023974129372439674440000004906489562664503194_);" d="M269.05,219.42
			c-16.04,1.63-20.36,6.1-20.36,6.1c-4.51,0.57-14.64-10.98-14.64-10.98l-1.32-1.52c0,0-8.15,18.57-15.54,27.66
			c-0.88,1.08-1.81,2.15-2.77,3.18l1.05-2.36c0,0,1.72-0.82,2.22-9.85c0.51-9.02-3.79-22.48-3.82-24.31s-0.66-11.09-0.66-11.09
			l13.71,8.18l-2.53-8.02l9.98,8.02c0,0,3.91,5.88,13.78,10.78C257.46,219.84,267.9,219.47,269.05,219.42z"/>
		
			<linearGradient id="SVGID_00000096059458093816597540000000333048238730648730_" gradientUnits="userSpaceOnUse" x1="244.9629" y1="247.8622" x2="244.9629" y2="211.7722">
			<stop  offset="0" style="stop-color:#CCEDFF"/>
			<stop  offset="1" style="stop-color:#755CBB"/>
		</linearGradient>
		<path style="opacity:0.5;fill:url(#SVGID_00000096059458093816597540000000333048238730648730_);" d="M232.73,213.02l9.56-1.25
			c0,0,3.82,2.53,11.49,5.65l-6.39,9.43c0,0,2.54,13.44,9.82,21.01c0,0-19.32-10.73-22.04-19.75L232.73,213.02z"/>
		
			<linearGradient id="SVGID_00000034054708592088834470000009587966675803659141_" gradientUnits="userSpaceOnUse" x1="188.015" y1="201.7273" x2="188.015" y2="174.46">
			<stop  offset="0" style="stop-color:#CCEDFF"/>
			<stop  offset="1" style="stop-color:#755CBB"/>
		</linearGradient>
		<path style="opacity:0.5;fill:url(#SVGID_00000034054708592088834470000009587966675803659141_);" d="M177.03,184.42l2.73,7.19
			c0,0,2.78,9.7,8.31,10.11c5.53,0.41,10.93-16.27,10.93-16.27v-10.99c0,0-5.88,12.6-12.23,14.02
			C180.43,189.91,177.03,184.42,177.03,184.42z"/>
		
			<linearGradient id="SVGID_00000154422932232911155740000004948702521586681006_" gradientUnits="userSpaceOnUse" x1="209.99" y1="177.7153" x2="220.9789" y2="177.7153">
			<stop  offset="0" style="stop-color:#CCEDFF"/>
			<stop  offset="1" style="stop-color:#755CBB"/>
		</linearGradient>
		<path style="opacity:0.5;fill:url(#SVGID_00000154422932232911155740000004948702521586681006_);" d="M209.99,178.73
			c0,0,4.93,9.85,10.99,12.88c0,0-7.21-17.5-5.69-27.79C215.29,163.82,212.64,165.47,209.99,178.73z"/>
		
			<linearGradient id="SVGID_00000019647681423416031640000004221000059497235084_" gradientUnits="userSpaceOnUse" x1="329.4473" y1="243.86" x2="329.4473" y2="193.32">
			<stop  offset="0" style="stop-color:#CCCCFF"/>
			<stop  offset="1" style="stop-color:#755CBB"/>
		</linearGradient>
		<path style="opacity:0.76;fill:url(#SVGID_00000019647681423416031640000004221000059497235084_);" d="M329.74,193.32l1.7,5.49
			l1.72,45.05c0,0-4.37-8.57-7.43-20.81l1.59-2.45C327.32,220.6,330,203.62,329.74,193.32z"/>
		
			<linearGradient id="SVGID_00000063610736817547434980000013156826844939718073_" gradientUnits="userSpaceOnUse" x1="386.2679" y1="232.99" x2="386.2679" y2="206.58">
			<stop  offset="0" style="stop-color:#CCCCFF"/>
			<stop  offset="1" style="stop-color:#755CBB"/>
		</linearGradient>
		<path style="opacity:0.5;fill:url(#SVGID_00000063610736817547434980000013156826844939718073_);" d="M382.09,206.58
			c0,0-0.96,22.13,8.44,24.04l0.47,2.37C391,232.99,378.83,232.54,382.09,206.58z"/>
		
			<linearGradient id="SVGID_00000160154483110757347860000011754740818288713093_" gradientUnits="userSpaceOnUse" x1="356.3158" y1="231.81" x2="356.3158" y2="211.62">
			<stop  offset="0" style="stop-color:#CCCCFF"/>
			<stop  offset="1" style="stop-color:#755CBB"/>
		</linearGradient>
		<path style="opacity:0.3;fill:url(#SVGID_00000160154483110757347860000011754740818288713093_);" d="M366.4,213.31
			c0,0-0.36,0.79-3.78-1.69c0,0-11.83,8.38-16.39,20.19c0,0,7.29-10.85,11.17-12.02c3.88-1.17,4.82,3.16,4.82,3.16
			S363.76,216.84,366.4,213.31z"/>
		
			<linearGradient id="SVGID_00000003090212242224669270000001105593194739323268_" gradientUnits="userSpaceOnUse" x1="182.2174" y1="203.4679" x2="182.2174" y2="195.97">
			<stop  offset="0" style="stop-color:#CCEDFF"/>
			<stop  offset="1" style="stop-color:#755CBB"/>
		</linearGradient>
		<path style="opacity:0.5;fill:url(#SVGID_00000003090212242224669270000001105593194739323268_);" d="M175.69,195.97
			c0,0,4.55,8.39,13.08,5.76c0,0-5.11,3.44-10.23,0.64C178.54,202.37,175.36,196.92,175.69,195.97z"/>
		
			<linearGradient id="SVGID_00000121989250914838060380000014516619065187976595_" gradientUnits="userSpaceOnUse" x1="202.2462" y1="226.3269" x2="202.2462" y2="185.35">
			<stop  offset="0" style="stop-color:#CCCCFF"/>
			<stop  offset="1" style="stop-color:#755CBB"/>
		</linearGradient>
		<path style="opacity:0.5;fill:url(#SVGID_00000121989250914838060380000014516619065187976595_);" d="M205.5,185.35
			c0,0,6.26,23.4-10.07,40.98c0,0,10.6-5.44,13.01-18.04C210.84,195.68,205.5,185.35,205.5,185.35z"/>
		
			<linearGradient id="SVGID_00000150066534253367338790000004749086720006780812_" gradientUnits="userSpaceOnUse" x1="307.6695" y1="197.4842" x2="307.6695" y2="166.6482">
			<stop  offset="0" style="stop-color:#CCEDFF"/>
			<stop  offset="1" style="stop-color:#755CBB"/>
		</linearGradient>
		<path style="opacity:0.5;fill:url(#SVGID_00000150066534253367338790000004749086720006780812_);" d="M317.64,166.65
			c0,0-0.7,10.56-5.77,18.14c-5.06,7.58-15.1,12.69-15.1,12.69s12.6-4.64,18.38-11.18C320.93,179.77,317.64,166.65,317.64,166.65z"
			/>
		
			<linearGradient id="SVGID_00000121250538793667378810000009064712015289637296_" gradientUnits="userSpaceOnUse" x1="267.2717" y1="193.3158" x2="267.2717" y2="150.7562">
			<stop  offset="0" style="stop-color:#CCEDFF"/>
			<stop  offset="1" style="stop-color:#755CBB"/>
		</linearGradient>
		<path style="opacity:0.5;fill:url(#SVGID_00000121250538793667378810000009064712015289637296_);" d="M253.19,150.76
			c0,0,0,8.83,2.84,17.83c2.84,9,27.51,24.73,27.51,24.73s-25.43-10.56-30.35-20.06C248.26,163.76,253.19,150.76,253.19,150.76z"/>
		
			<linearGradient id="SVGID_00000075162457536425163670000008952542107962632093_" gradientUnits="userSpaceOnUse" x1="253" y1="201.0999" x2="324.0845" y2="201.0999">
			<stop  offset="0" style="stop-color:#8642A0"/>
			<stop  offset="1" style="stop-color:#6456C0"/>
		</linearGradient>
		<path style="fill:url(#SVGID_00000075162457536425163670000008952542107962632093_);" d="M253,192.82v14.38
			c0,0,33.11-0.27,70.24,2.19l0.85-12.95C324.08,196.45,291.81,192.62,253,192.82z"/>
		<g>
			<path class="st56" d="M259.04,196.1c0.01-0.25,0.13-0.36,0.35-0.36l6.71,0.2c0.66,0.02,1.23,0.12,1.69,0.3
				c0.46,0.18,0.83,0.43,1.11,0.75s0.47,0.69,0.59,1.14c0.12,0.44,0.17,0.93,0.15,1.47l-0.06,1.84c-0.02,0.54-0.1,1.03-0.24,1.46
				c-0.14,0.43-0.36,0.8-0.66,1.1c-0.3,0.3-0.68,0.52-1.15,0.68c-0.47,0.15-1.04,0.22-1.7,0.2l-3.61-0.11l-0.75-2.11l-0.1,0
				l-0.06,2.09l-2.53-0.08L259.04,196.1z M261.38,202.43l4.29,0.13c0.48,0.01,0.83-0.08,1.04-0.29c0.21-0.21,0.32-0.58,0.34-1.12
				l0.05-1.5c0.02-0.56-0.07-0.94-0.27-1.15c-0.2-0.21-0.54-0.32-1.02-0.33l-4.1-0.12c-0.06,0-0.1,0.02-0.14,0.05
				c-0.03,0.04-0.05,0.08-0.05,0.13L261.38,202.43z"/>
			<path class="st56" d="M273.27,199.93l-0.09,0l-0.08,2.68c0,0.11,0.05,0.17,0.17,0.18l7.54,0.23l-0.07,2.32l-9.89-0.3
				c-0.24-0.01-0.35-0.13-0.35-0.38l0.25-8.21c0.01-0.25,0.13-0.36,0.37-0.36l9.61,0.29c0.25,0.01,0.37,0.13,0.36,0.38l-0.07,2.32
				l-2.37,0.8l-0.1,0l0.04-1.19c0-0.09-0.04-0.14-0.12-0.14l-5.07-0.15c-0.07,0-0.11,0.02-0.13,0.05c-0.02,0.04-0.03,0.08-0.03,0.12
				l-0.03,1.12l4.18,0.13l-0.06,1.82l-3.5-0.11L273.27,199.93z"/>
			<path class="st56" d="M290.04,199.77l-0.1,0l0.03-0.98c0-0.1-0.04-0.15-0.14-0.15l-4.72-0.14c-0.17,0-0.29,0.03-0.36,0.1
				c-0.07,0.07-0.1,0.18-0.11,0.32l-0.01,0.22c-0.01,0.17,0.02,0.28,0.08,0.33c0.06,0.05,0.17,0.09,0.33,0.12l5.53,0.94
				c0.35,0.06,0.65,0.15,0.89,0.25c0.24,0.11,0.44,0.25,0.59,0.42c0.15,0.17,0.25,0.38,0.31,0.63c0.06,0.25,0.08,0.54,0.07,0.88
				l-0.02,0.71c-0.01,0.37-0.07,0.69-0.17,0.97c-0.1,0.28-0.25,0.51-0.46,0.7c-0.21,0.19-0.49,0.32-0.82,0.41
				c-0.34,0.09-0.75,0.12-1.24,0.11l-7.96-0.24l0.07-2.32l7.14,0.22c0.21,0.01,0.36-0.03,0.43-0.1c0.07-0.08,0.11-0.21,0.12-0.41
				l0.01-0.25c0-0.16-0.02-0.27-0.07-0.33c-0.05-0.06-0.15-0.11-0.31-0.13l-5.34-0.84c-0.36-0.06-0.67-0.14-0.92-0.25
				c-0.25-0.11-0.46-0.24-0.62-0.41c-0.16-0.17-0.27-0.37-0.34-0.61c-0.07-0.24-0.09-0.52-0.08-0.85l0.02-0.63
				c0.02-0.65,0.21-1.14,0.56-1.49c0.36-0.35,0.93-0.51,1.74-0.48l7.95,0.24c0.25,0.01,0.38,0.14,0.37,0.4l-0.06,1.84L290.04,199.77
				z"/>
			<path class="st56" d="M293.4,205.72l0.27-8.94l2.53,0.08l-0.27,8.94L293.4,205.72z"/>
			<path class="st56" d="M305.32,202.25c0-0.13,0-0.27-0.01-0.41c-0.01-0.14-0.02-0.27-0.03-0.38l0-0.11l2.51,0.08l-0.13,4.39
				c-0.01,0.23-0.11,0.34-0.32,0.33l-6.73-0.2c-0.66-0.02-1.23-0.12-1.69-0.3c-0.46-0.18-0.83-0.43-1.11-0.75
				c-0.28-0.32-0.48-0.69-0.59-1.14c-0.12-0.44-0.17-0.93-0.15-1.47l0.06-1.84c0.02-0.54,0.1-1.03,0.24-1.46
				c0.14-0.43,0.36-0.8,0.66-1.1c0.3-0.3,0.68-0.52,1.15-0.68c0.47-0.15,1.04-0.22,1.7-0.2l6.69,0.2c0.24,0.01,0.35,0.13,0.35,0.38
				l-0.06,1.93l-2.37,0.79l-0.1,0l0.03-0.86c0-0.08-0.03-0.12-0.11-0.13l-4.27-0.13c-0.25-0.01-0.45,0.01-0.62,0.05
				c-0.17,0.04-0.31,0.11-0.42,0.22c-0.11,0.11-0.19,0.25-0.25,0.44c-0.05,0.18-0.09,0.41-0.1,0.68l-0.05,1.57
				c-0.02,0.54,0.07,0.92,0.27,1.14c0.2,0.22,0.54,0.34,1.02,0.35l4.24,0.13c0.09,0,0.14-0.04,0.14-0.14L305.32,202.25z"/>
			<path class="st56" d="M313.14,197.37c0.19,0.01,0.32,0.04,0.4,0.1c0.08,0.06,0.14,0.15,0.21,0.28l3.2,6.53
				c0.05,0.1,0.13,0.15,0.23,0.15l0.13,0c0.13,0,0.2-0.06,0.2-0.19l0.2-6.73l2.3,0.07l-0.26,8.59c-0.01,0.24-0.12,0.35-0.35,0.34
				l-3.64-0.11c-0.17,0-0.3-0.03-0.38-0.09c-0.08-0.05-0.16-0.15-0.23-0.29l-3.32-6.52c-0.05-0.1-0.12-0.15-0.23-0.15l-0.12,0
				c-0.13,0-0.2,0.06-0.2,0.19l-0.2,6.72l-2.3-0.07l0.26-8.58c0.01-0.25,0.12-0.36,0.35-0.36L313.14,197.37z"/>
		</g>
		
			<linearGradient id="SVGID_00000145764230281797974250000007024859074031669929_" gradientUnits="userSpaceOnUse" x1="257.879" y1="159.79" x2="305.8582" y2="159.79">
			<stop  offset="0" style="stop-color:#CCCCFF"/>
			<stop  offset="1" style="stop-color:#755CBB"/>
		</linearGradient>
		<path style="opacity:0.5;fill:url(#SVGID_00000145764230281797974250000007024859074031669929_);" d="M305.86,152.38
			c-0.81,9.3-3.74,15.78-6.88,20.15c-4.31,6-8.98,8.05-8.98,8.05c-4.67-1.96-8.71-4.4-12.2-7.09c-14.79-11.4-19.56-27.2-19.92-28.5
			c6.24,14.54,15.41,23.35,22.36,28.31c5.6,4.01,9.76,5.52,9.76,5.52v-4.65c-1.11-0.4-2.19-0.86-3.22-1.36
			c-12.24-5.95-18.67-18.35-21.68-26.37c-0.01-0.02-0.01-0.03-0.02-0.05c-1.63-4.34-2.26-7.39-2.26-7.39h2.22l-0.73,1.5l-0.03,0.05
			c0.35,1.52,0.76,2.98,1.21,4.37c0.01,0.04,0.02,0.08,0.04,0.11c6.85,20.82,24.46,27.53,24.46,27.53c12.24-8.71,12-22.54,12-22.54
			v-1.9l2.29,0.66L305.86,152.38z"/>
		
			<linearGradient id="SVGID_00000091014727405110835310000012072060066402655392_" gradientUnits="userSpaceOnUse" x1="377.9513" y1="229.9789" x2="377.9513" y2="203.2074">
			<stop  offset="0" style="stop-color:#CCCCFF"/>
			<stop  offset="1" style="stop-color:#755CBB"/>
		</linearGradient>
		<path style="opacity:0.3;fill:url(#SVGID_00000091014727405110835310000012072060066402655392_);" d="M375.29,203.21
			c0,0-3.21,10.48-0.18,26.77c0,0,1.52-20.65,2.65-22.45c1.14-1.8,4.32-0.95,4.32-0.95S377.08,203.81,375.29,203.21z"/>
		
			<linearGradient id="SVGID_00000088832831293147078130000014570059260709992101_" gradientUnits="userSpaceOnUse" x1="339.89" y1="260.18" x2="339.89" y2="179.11">
			<stop  offset="0" style="stop-color:#CCCCFF"/>
			<stop  offset="1" style="stop-color:#755CBB"/>
		</linearGradient>
		<path style="opacity:0.5;fill:url(#SVGID_00000088832831293147078130000014570059260709992101_);" d="M343.95,260.18
			c-2.8-2.45-6.16-6.54-9.51-13.24c-6.7-13.39-8.62-22.33-8.93-23.89l1.59-2.45l2.13-20.6l1.99-1.19c0,0,7.11-7.85,12.51-19.7
			c0.08,0.18,0.17,0.46,0.27,0.86v0.01c1.09,4.28,3.33,20.31,5.41,26.03c1.3,3.57,3.35,5.54,4.86,6.56c0,0-12.31,18.26-12.91,31.29
			C340.83,255.72,343.47,259.58,343.95,260.18z"/>
		
			<linearGradient id="SVGID_00000151501169610744119510000012506252830680776360_" gradientUnits="userSpaceOnUse" x1="252.95" y1="298.26" x2="252.95" y2="275.02">
			<stop  offset="0" style="stop-color:#CCCCFF"/>
			<stop  offset="1" style="stop-color:#755CBB"/>
		</linearGradient>
		<path style="opacity:0.5;fill:url(#SVGID_00000151501169610744119510000012506252830680776360_);" d="M271.08,298.26
			c0,0-22.19-3.64-31.25-9.48c0,0-0.01,0-0.01-0.01c0.09-0.5,0.13-0.99,0.11-1.48c-0.19-5-4.51-9.43-5.11-12.27
			c0.1,0.27,0.75,1.77,3.9,4.47c1.99,1.71,5,3.91,9.52,6.58c0.12,0.07,0.24,0.14,0.35,0.2c6.4,3.78,11.91,6.34,15.89,8.22
			c0.03,0.01,0.05,0.02,0.07,0.03c3.58,1.68,5.9,2.79,6.52,3.73C271.08,298.25,271.08,298.26,271.08,298.26z"/>
		
			<linearGradient id="SVGID_00000046334610286983358650000006941843785940094650_" gradientUnits="userSpaceOnUse" x1="298.095" y1="291.8761" x2="298.095" y2="280.59">
			<stop  offset="0" style="stop-color:#CCCCFF"/>
			<stop  offset="1" style="stop-color:#755CBB"/>
		</linearGradient>
		<path style="opacity:0.5;fill:url(#SVGID_00000046334610286983358650000006941843785940094650_);" d="M318.55,280.59
			c-0.12,0.86-2.08,2.75-2.64,4.81c0,0-8.14,8.62-38.27,5.97c0.2-0.85,6.53,0.38,21.21-2.56
			C313.08,285.96,318.24,280.9,318.55,280.59z"/>
		<path class="st62" d="M323.1,163.27l-18.95,6.14l-5.55,2.58l-0.03,0.01l-3.61,1l-4.57,0.01l-3.14,0.25l-1.66,0.12l-4.73,0.37
			l-2.38,0.19l-23.41-8.47l-4.19-1.51L231.62,157c0.57-0.22,1.15-0.45,1.75-0.69c12.92-5.12,25.6-11.33,25.6-11.33l4.86-5.98h2.57
			c1.88-4.11,3.13-7.96,3.94-10.99l1.25-5.62c0.09-0.54,0.13-0.84,0.13-0.84l6.69,3.53l22.56,18.04c-0.02,1.23,0.02,2.33,0.09,3.27
			l0.32,2.27c0.06-0.44,0.08-0.7,0.08-0.7l2.17,0.65l1.49,3.54c0,0,2.52,3.92,12.5,8.3C319.34,161.23,321.19,162.18,323.1,163.27z"
			/>
		<g>
			
				<linearGradient id="SVGID_00000105415565365683614500000011821432597226564519_" gradientUnits="userSpaceOnUse" x1="297.6375" y1="146.8119" x2="297.6375" y2="69.6049">
				<stop  offset="0.016" style="stop-color:#FFC2A9"/>
				<stop  offset="1" style="stop-color:#FF9595"/>
			</linearGradient>
			<path style="fill:url(#SVGID_00000105415565365683614500000011821432597226564519_);" d="M308.93,146.39
				c0,0-8.98,2.02-18.89-2.78s-18.24-18.95-18.75-22.48c-0.5-3.54,3.79-12.76,3.79-19.96c0-7.2-3.53-19.58,2.4-26.28
				c5.94-6.69,33.22-7.7,42.07,0.89c0,0,2.74,6.88,2.74,10.77c0,0.94-0.17,2.32-0.42,3.91c-0.08,0.59-0.19,1.22-0.29,1.87
				c-0.79,4.71-1.88,10.46-1.37,12.98c0.18,0.88,0.46,1.69,0.79,2.46v0.01c1.09,2.52,2.71,4.53,3,6.71
				C324.38,117.34,320.56,137.55,308.93,146.39z"/>
			
				<linearGradient id="SVGID_00000065787481008007910310000002472998114140916141_" gradientUnits="userSpaceOnUse" x1="268.8155" y1="115.6572" x2="268.8155" y2="92.8947">
				<stop  offset="0.016" style="stop-color:#FFC2A9"/>
				<stop  offset="1" style="stop-color:#FF9595"/>
			</linearGradient>
			<path style="fill:url(#SVGID_00000065787481008007910310000002472998114140916141_);" d="M274.97,99.14c0,0-2.45-6.15-8.61-6.24
				c0,0-3.6,1.42-4.17,4.17c0,0,1.33,9.95,2.84,14.59c1.52,4.64,7.07,3.97,7.07,3.97S276.94,108.22,274.97,99.14z"/>
			
				<linearGradient id="SVGID_00000083768974764132997390000008205813520284721055_" gradientUnits="userSpaceOnUse" x1="308.3286" y1="124.2652" x2="309.283" y2="119.296">
				<stop  offset="0" style="stop-color:#E1616A"/>
				<stop  offset="1" style="stop-color:#FF8883"/>
			</linearGradient>
			<path style="fill:url(#SVGID_00000083768974764132997390000008205813520284721055_);" d="M298.63,119.39c0,0,2.05-0.16,2.93,0.5
				c0.88,0.66,4.11,3.79,8.18,4.64c4.07,0.85,6.81-2.62,7.67-2.79c0.87-0.18,1.82,1.05,1.82,1.05s-0.37-1.42-2.5-2.06
				c0,0-0.86,3.27-6.76,2.15c-5.9-1.12-8.42-3.74-8.42-3.74l-0.3-0.54C301.27,118.6,299.6,118.95,298.63,119.39z"/>
			
				<linearGradient id="SVGID_00000170245882293163302360000005381214634999024281_" gradientUnits="userSpaceOnUse" x1="299.7135" y1="120.1684" x2="299.7135" y2="70.4316">
				<stop  offset="0" style="stop-color:#FFEADB"/>
				<stop  offset="0.9944" style="stop-color:#C27CB6"/>
			</linearGradient>
			<path style="opacity:0.6;fill:url(#SVGID_00000170245882293163302360000005381214634999024281_);" d="M289.92,88.5l0.08-0.63
				c0,0,5.89-10.34,17.54-10.62s14.28,7.02,14.28,7.02l2.16-3.28L319.07,71l-34.24-0.57l-8.34,6.73l-1.05,16.47l3.71,21.74
				l9.02,4.81l2.55-2.26c-0.94-7.28-6.35-13.93-6.35-13.93l3.95-2.74c0,0,10.14,4.91,15.99,3.44c0,0,4.41-12.86,4.15-22.38
				C308.45,82.29,293.44,84.52,289.92,88.5z"/>
			<path class="st67" d="M289.4,89.56c0,0,0.57-3.72,6.85-5.21c7-1.66,12.69-3.06,12.69-3.06s-1.24,4.08-3.57,5.61
				c0,0-7.41-0.27-11.15,0.58C290.46,88.34,289.4,89.56,289.4,89.56z"/>
			<path class="st67" d="M321.83,84.57c0,0-3.55,2.74-5.97,9.28c0,0,2.32-3.03,4.45-2.98c1.46,0.03,1.23,1.48,1.23,1.48
				S322.99,88.43,321.83,84.57z"/>
			
				<linearGradient id="SVGID_00000011749058485232347480000009071729436816676790_" gradientUnits="userSpaceOnUse" x1="297.2895" y1="100.0947" x2="297.2895" y2="90.2421">
				<stop  offset="0" style="stop-color:#CF6074"/>
				<stop  offset="1" style="stop-color:#F37270"/>
			</linearGradient>
			<path style="fill:url(#SVGID_00000011749058485232347480000009071729436816676790_);" d="M291.75,100.09c0,0,0.38-7.86,8.05-9.85
				c0,0,2.75,3.55,3.03,7.58C302.83,97.82,298.76,97.06,291.75,100.09z"/>
			
				<linearGradient id="SVGID_00000159459579355070543360000007125680697240308157_" gradientUnits="userSpaceOnUse" x1="316.9416" y1="103.2211" x2="316.9416" y2="94.6474">
				<stop  offset="0" style="stop-color:#CF6074"/>
				<stop  offset="1" style="stop-color:#FF817F"/>
			</linearGradient>
			<path style="fill:url(#SVGID_00000159459579355070543360000007125680697240308157_);" d="M313.73,103.22c0,0,0.62-6.26,4.22-8.57
				c0,0,2.45,1.84,2.2,7.08C320.14,101.72,317.99,100.95,313.73,103.22z"/>
			<path class="st70" d="M291.75,100.09c0,0,2.49,3.06,9.47,3.66c0,0,1.33-2.02,1.2-5.99C302.42,97.77,296.01,97.16,291.75,100.09z"
				/>
			<path class="st70" d="M314,103.22v0.92c0,0,1.07,2.24,4.93,2.62c0,0,1.24-1.93,1.35-5.07C320.27,101.69,317.82,101.07,314,103.22
				z"/>
			<path class="st71" d="M299.21,97.61c0,0-1.77,2.15-1.61,5.55c0,0,2.32,0.55,3.62,0.6c0,0,1.53-2.13,1.2-5.99
				C302.42,97.77,300.39,97.34,299.21,97.61z"/>
			<path class="st71" d="M317.38,101.79c0,0-1,1.07-1.19,4.36c0,0,1.37,0.6,2.46,0.6c0,0,1.4-1.99,1.35-5.07
				C320,101.69,319.02,101.31,317.38,101.79z"/>
			<path class="st67" d="M298.63,103.39c0,0-0.63-4.25,1.8-5.87l1.99,0.25c0,0,0.66,3.36-1.2,5.99
				C301.22,103.76,299.24,103.53,298.63,103.39z"/>
			<path class="st67" d="M318.26,101.61c0,0-0.9,1.89-1.32,4.83c0,0,0.69,0.28,1.71,0.32c0,0,1.36-1.67,1.35-5.07
				C320,101.69,318.96,101.41,318.26,101.61z"/>
			<path class="st72" d="M291.75,100.09c0,0,4.64-2.7,12.55-1.16l-1.47-1.11C302.83,97.82,297.19,96.07,291.75,100.09z"/>
			<path class="st72" d="M313.73,103.22c0,0,3.72-1.98,8.06-0.93l-1.79-1.32C320,100.97,317.09,100.52,313.73,103.22z"/>
			<path class="st11" d="M296.77,100.09c0,0,1.26-0.28,2.4,0.87C299.17,100.97,297.61,101.42,296.77,100.09z"/>
			<path class="st11" d="M315.43,103.76c0,0,1.98-0.38,2.66,0.52C318.1,104.28,317.04,105,315.43,103.76z"/>
			<path class="st73" d="M292.21,100.55c0,0,3.61,3.57,9.39,4.42l0.15-2.1l-0.53,0.89C301.22,103.76,295.67,103.43,292.21,100.55z"
				/>
			<path class="st73" d="M313.73,104.14c0,0,0.64,2.31,5.34,3.35l-0.15-1.13l-0.26,0.4C318.65,106.76,315.31,106.33,313.73,104.14z"
				/>
			<path class="st74" d="M304.3,113.57c0,0,1.75-0.38,4.97,0c3.22,0.38,6.84,1.26,8.82,0c0,0-2.63,2.63-4.91,3.03
				c-2.28,0.4-5.75-1.6-5.75-1.6l-1.52,0.03C305.93,115.03,304.76,114.45,304.3,113.57z"/>
			<path class="st75" d="M306.15,114.81c0,0,0.79-0.51,1.45-0.38c0.66,0.13,1.34,1.09,1.34,1.09S307.54,114.78,306.15,114.81z"/>
			<path class="st76" d="M318.1,113.36c0.84-0.82-3.52-8.58-5.6-8.87c-2.08-0.29-4.04,8.7-4.04,8.7s2.9,0.41,5.71,0.78
				C316.97,114.35,318.1,113.36,318.1,113.36z"/>
			
				<linearGradient id="SVGID_00000097481361297917152360000017276602778056051129_" gradientUnits="userSpaceOnUse" x1="317.7885" y1="108.21" x2="317.7885" y2="88.9167">
				<stop  offset="0" style="stop-color:#FFEADB"/>
				<stop  offset="0.9944" style="stop-color:#C27CB6"/>
			</linearGradient>
			<path style="opacity:0.6;fill:url(#SVGID_00000097481361297917152360000017276602778056051129_);" d="M321.25,88.92
				c-1.18-0.15-5.35,4.92-5.35,4.92s-2.65,8.21-2.13,10.64c0.52,2.44,6.96,3.73,6.96,3.73l0.27-0.43v-0.01
				c-0.33-0.77-0.61-1.58-0.79-2.46c-0.51-2.52,0.58-8.27,1.37-12.98c0,0,0.26-0.97,0.29-1.87C321.9,89.7,321.79,88.98,321.25,88.92
				z"/>
			
				<linearGradient id="SVGID_00000085935846091465899060000001964961578869075596_" gradientUnits="userSpaceOnUse" x1="298.6336" y1="147.7828" x2="298.6336" y2="54.15">
				<stop  offset="0" style="stop-color:#2E33A0"/>
				<stop  offset="1" style="stop-color:#0665A5"/>
			</linearGradient>
			<path style="fill:url(#SVGID_00000085935846091465899060000001964961578869075596_);" d="M321.02,122.26
				c-1.33-2.78-0.51-4.23-12.06-5.74c-16.35-2.15-17.75,2.84-20.53,2.08c-0.1-0.03-0.22-0.07-0.33-0.12
				c-3.01-1.17-10.1-8.14-10.28-17.53c-0.19-9.76,6.35-16.68,6.35-16.68c-2.37-1.99-3.32-7.76-0.76-10.23
				c2.56-2.46,6.92-1.89,17.62-0.76c10.71,1.14,10.71,0.48,10.71,0.48c3.4,0.87,5.35,4.06,5.9,5.08c0.11,0.2,0.16,0.32,0.16,0.32
				l1.33-1.23c3.6,5.21,2.94,10.89,2.94,10.89s5.87-11.94,5.2-13.63c-1.22-3.12-4.61-7.67-4.82-7.96l-0.01-0.01
				c0,0-0.95-9.09-3.79-9.09s-14.97,2.74-14.97,2.74c1.33-3.12,1.14-6.72,1.14-6.72s-0.02,0.02-0.05,0.05
				c-3.96,3.55-7.83,3.94-13.31,6.48c-2.76,1.29-4.06,2.48-5.13,3.72l-0.37,0.44l-0.39,0.47c-0.38,0.48-0.77,0.97-1.24,1.47
				c-0.02,0.03-0.05,0.05-0.06,0.06c-0.02,0.02-0.03,0.03-0.03,0.03c-0.44,0.48-0.96,0.97-1.59,1.49
				c-3.6,2.93-11.52,4.89-12.47,7.99c-0.95,3.09,1.2,7.32,2.34,11.68c1.13,4.36,0.61,8.21,0.61,8.21s3.77,4.86,2.52,11.97
				c-1.11,6.37-3.54,7.41-3.54,7.41c-1.71,3.51-0.9,6.79-0.9,6.79c3.5,13.92,17.98,22.21,17.98,22.21
				c12.88,4.8,21.35,2.71,21.35,2.71s0,0,0.01-0.01c9.37-6.11,12.58-26.33,12.72-27.27C323.11,120.3,321.37,123,321.02,122.26z
				 M315.24,135.15c-2.27-0.38-2.75-6.13-3.5-6.89c-0.76-0.75-4.87-0.44-4.87-0.44s-3.79,4.3-5.3,4.42
				c-1.52,0.13-9.6-3.16-7.85-8.08c1.74-4.93,7.85-5.56,7.85-5.56s3.16,2.65,7.89,2.96c4.74,0.31,6.45-0.56,7.01-0.81
				c0.57-0.26,3.62,1.13,3.54,5.43C319.96,129.17,317.52,135.53,315.24,135.15z"/>
			<path class="st79" d="M314.65,106.21c0,0,4.08,5.07,3.69,6.98c-0.43,2.09-5.16,3.2-5.16,3.2s3.79-1.31,4.57-3.2
				C317.76,113.19,316.78,109.35,314.65,106.21z"/>
			
				<linearGradient id="SVGID_00000112608982934793243910000014423685740835125909_" gradientUnits="userSpaceOnUse" x1="323.2267" y1="88.82" x2="323.2267" y2="67.22">
				<stop  offset="0" style="stop-color:#FFEADB"/>
				<stop  offset="0.9944" style="stop-color:#8860C7"/>
			</linearGradient>
			<path style="opacity:0.6;fill:url(#SVGID_00000112608982934793243910000014423685740835125909_);" d="M322.07,88.82
				c0,0,0.66-5.68-2.94-10.89c2.89-5.16,3.31-10.71,3.31-10.71l0.01,0.01c0.98,2.41,1.54,7.1,1.54,7.1l3.28,0.86
				C327.94,76.88,322.07,88.82,322.07,88.82z"/>
			
				<linearGradient id="SVGID_00000045601374360240782350000007316486691609570181_" gradientUnits="userSpaceOnUse" x1="293.792" y1="147.7828" x2="293.792" y2="54.15">
				<stop  offset="0" style="stop-color:#CCC2DB"/>
				<stop  offset="0.9944" style="stop-color:#8860C7"/>
			</linearGradient>
			<path style="opacity:0.6;fill:url(#SVGID_00000045601374360240782350000007316486691609570181_);" d="M317.64,78.84
				c-0.55-1.02-2.5-4.21-5.9-5.08c0,0,0,0.66-10.71-0.48c-10.7-1.13-15.06-1.7-17.62,0.76c-2.56,2.47-1.61,8.24,0.76,10.23
				c0,0-6.54,6.92-6.35,16.68c0.18,9.39,7.27,16.36,10.28,17.53l-0.14,1.04c0,0,0.53,21.5,5.76,23.21
				c5.22,1.7,16.06,0.82,17.07,1.83c0.96,0.96-0.14,2.61-0.24,2.76c-0.01,0.01-0.01,0.01-0.01,0.01s-8.47,2.09-21.35-2.71
				c0,0-14.48-8.29-17.98-22.21c0,0-0.81-3.28,0.9-6.79c0,0,2.43-1.04,3.54-7.41c1.25-7.11-2.52-11.97-2.52-11.97
				s0.52-3.85-0.61-8.21c-1.14-4.36-3.29-8.59-2.34-11.68c6.06,0.95,10.04-2.21,10.04-2.21s1.06-1.47,5.75-2.23
				c4.69-0.76,23.54,1.14,23.54,1.14s-1.89-1.57-5.87-2.61c-3.76-0.99-16.6,0.16-17.98,0.27c1.47-0.26,16.03-2.76,17.69-2.26
				c1.76,0.52,8.06,3.41,8.06,3.41c-0.57-2.89-6.21-9.85-6.21-9.85s-7.96,0.14-13.17,1.23c-4.65,0.97-7.2,3.1-7.7,3.54l1.24-1.47
				l0.39-0.47l0.37-0.44l1.82-0.31l9.14-3.69c3.07-1.64,7-5.7,7.48-6.2c0.03-0.03,0.05-0.05,0.05-0.05s0.19,3.6-1.14,6.72
				c7.72-0.95,10.33-0.47,10.33-0.47C317.52,65.37,317.64,78.84,317.64,78.84z"/>
			
				<linearGradient id="SVGID_00000000904565537538012880000000385038725565435826_" gradientUnits="userSpaceOnUse" x1="300.0704" y1="147.7607" x2="300.0704" y2="143.7378">
				<stop  offset="0" style="stop-color:#776D7E"/>
				<stop  offset="1" style="stop-color:#9D68C2"/>
			</linearGradient>
			<path style="opacity:0.5;fill:url(#SVGID_00000000904565537538012880000000385038725565435826_);" d="M289.19,144.62
				c0,0,4.73-1.12,11.87-0.83c7.14,0.29,11.25,0.32,9.48,3.54C310.54,147.33,301.57,149.36,289.19,144.62z"/>
			
				<linearGradient id="SVGID_00000155147249823856161260000017071295592772094864_" gradientUnits="userSpaceOnUse" x1="311.8728" y1="60.87" x2="311.8728" y2="57.8813">
				<stop  offset="0" style="stop-color:#1F77D1"/>
				<stop  offset="1" style="stop-color:#0686C9"/>
			</linearGradient>
			<path style="fill:url(#SVGID_00000155147249823856161260000017071295592772094864_);" d="M314.01,60.4c0,0,4.34-1.69,6.06-1.42
				c0,0-0.68-0.91-1.39-1.1c-0.71-0.19-15,2.98-15,2.98S312.59,59.83,314.01,60.4z"/>
			
				<linearGradient id="SVGID_00000000919388471258120080000003868902812626281131_" gradientUnits="userSpaceOnUse" x1="292.8336" y1="70.71" x2="292.8336" y2="61.8734">
				<stop  offset="0" style="stop-color:#1F77D1"/>
				<stop  offset="1" style="stop-color:#0686C9"/>
			</linearGradient>
			<path style="fill:url(#SVGID_00000000919388471258120080000003868902812626281131_);" d="M305.2,62.01c0,0-0.34,4.73-1.85,6.44
				l-17.69,2.26l-5.19-0.92c0,0,2.01-0.86,4.22-3.43C286.89,63.78,298.43,61.25,305.2,62.01z"/>
			
				<linearGradient id="SVGID_00000132054241124004761220000012917364239384048305_" gradientUnits="userSpaceOnUse" x1="324.855" y1="75.19" x2="324.855" y2="67.22">
				<stop  offset="0" style="stop-color:#1F77D1"/>
				<stop  offset="1" style="stop-color:#0686C9"/>
			</linearGradient>
			<path style="fill:url(#SVGID_00000132054241124004761220000012917364239384048305_);" d="M322.44,67.22c0,0,1.44,4.65,1.55,7.11
				l3.28,0.86C327.27,75.19,326.27,71.67,322.44,67.22z"/>
			
				<linearGradient id="SVGID_00000107550867941047754250000006865701560361853116_" gradientUnits="userSpaceOnUse" x1="272.1304" y1="110.2623" x2="261.9347" y2="97.7712">
				<stop  offset="0" style="stop-color:#FFEADB"/>
				<stop  offset="0.9944" style="stop-color:#B060F4"/>
			</linearGradient>
			<path style="opacity:0.8;fill:url(#SVGID_00000107550867941047754250000006865701560361853116_);" d="M274.24,107.48
				c0,0-1.24-5.97-4.29-8.92c-3.05-2.95-6.52-2.01-6.52-2.01s0.95,11.07,1.94,13.77c0.99,2.7,2.51,3.41,2.51,3.41
				s-2.13-1.87-2.42-5.53c-0.28-3.66-0.38-8.82,0.43-9.44c0.81-0.62,4.06,1.79,4.06,1.79s-1.03,1.26-1.64,4.52
				c-0.62,3.26,1.66,5.63,2.51,5.58c0.85-0.05-0.05-3.77,0.09-4.85C271.05,104.74,272.94,104.97,274.24,107.48z"/>
			
				<linearGradient id="SVGID_00000044175950645187015860000004591822134874014129_" gradientUnits="userSpaceOnUse" x1="273.1978" y1="108.6533" x2="268.1812" y2="102.5073">
				<stop  offset="0" style="stop-color:#FFEADB"/>
				<stop  offset="0.9944" style="stop-color:#B060F4"/>
			</linearGradient>
			<path style="opacity:0.8;fill:url(#SVGID_00000044175950645187015860000004591822134874014129_);" d="M271.19,100.07
				c0,0-3.33,2.19-2.97,6.67c0.36,4.49,2.92,4.29,2.93,3.35c0.01-0.94-0.49-3.37-0.23-4.74c0.26-1.37,2.47-0.75,2.47-0.75
				S271.95,101.04,271.19,100.07z"/>
			<path class="st88" d="M323.27,120.05c0,0-4.14,18.87-12.73,27.28C310.54,147.33,320.34,143.48,323.27,120.05z"/>
			<path class="st88" d="M318.68,57.89c0,0,2.18,1.7,2.6,7.59c0.41,5.9-2.14,12.45-2.14,12.45s3.28-4.9,3.6-10.27
				C323.04,62.29,320.41,58.57,318.68,57.89z"/>
		</g>
		
			<linearGradient id="SVGID_00000090292149552595622730000000334526359538202506_" gradientUnits="userSpaceOnUse" x1="292.2432" y1="71.5004" x2="309.51" y2="71.5004">
			<stop  offset="0" style="stop-color:#1F77D1"/>
			<stop  offset="1" style="stop-color:#0686C9"/>
		</linearGradient>
		<path style="fill:url(#SVGID_00000090292149552595622730000000334526359538202506_);" d="M292.24,70.24c0,0,5.05,1.72,10.59,2.21
			s6.68,0.6,6.68,0.6s-2.23-2.16-6.97-2.81C297.8,69.59,292.24,70.24,292.24,70.24z"/>
		
			<linearGradient id="SVGID_00000052105823407814019190000016875106429916353188_" gradientUnits="userSpaceOnUse" x1="316.5974" y1="123.1387" x2="321.8345" y2="123.1387">
			<stop  offset="0" style="stop-color:#1F77D1"/>
			<stop  offset="1" style="stop-color:#0686C9"/>
		</linearGradient>
		<path style="fill:url(#SVGID_00000052105823407814019190000016875106429916353188_);" d="M316.64,120.46c0,0,2.42,0,3.37,3.03
			c0.76,2.42,0.97,4.5,0.97,4.5l0.86-3.32c0,0-1.12-4.21-2.28-5.16c-0.84-0.68-2.28-1.37-2.96-1.21L316.64,120.46z"/>
		
			<linearGradient id="SVGID_00000009574016778467125290000017750958410612257203_" gradientUnits="userSpaceOnUse" x1="310.1316" y1="119.2445" x2="315.7802" y2="119.2445">
			<stop  offset="0" style="stop-color:#1F77D1"/>
			<stop  offset="1" style="stop-color:#0686C9"/>
		</linearGradient>
		<path style="fill:url(#SVGID_00000009574016778467125290000017750958410612257203_);" d="M310.13,117.43l0.41,3.6
			c0,0,2.94,0.24,4.89-0.57l0.35-2.18C315.78,118.28,312.03,117.34,310.13,117.43z"/>
		<path class="st88" d="M323.56,163.96c0,0,17.23,12.58,19.46,16.91c2.24,4.33,3.14,17.9,6.16,23.78c0,0-2.07-9.61-3.52-17.14
			c-1.45-7.53-1.1-7.64-1.91-9.49C342.96,176.17,330.09,167.24,323.56,163.96z"/>
		<path class="st88" d="M320.47,234c0,0-8.3,35.54-7.93,37.94c0.38,2.4,5.75,7.3,6,8.64c0,0-4.11,5.5-3.92,6.72s7.2,8.92,7.01,11.31
			c-0.05,0.69-4.6,8.19-4.6,8.19s5.14-7.37,5.39-8.55c0.25-1.18-6.3-11.03-6.49-12.03c-0.5-2.59,3.27-4.5,3.39-6.2
			c0.13-1.71-5.09-5.87-5.14-8.65C314.16,268.6,320.47,234,320.47,234z"/>
		<path class="st88" d="M322.16,318.73c0,0,17.95,40.63,24.07,81.27C346.23,400,345.21,360.34,322.16,318.73z"/>
		<path class="st76" d="M208.35,155.8c0,0-4.64-0.99-6.57-5.04c-1.93-4.05-0.67-9.92-0.67-9.92s3.64,6.98,5.45,9.36
			C208.37,152.58,208.86,155.29,208.35,155.8z"/>
	</g>
	<g style="clip-path:url(#SVGID_00000112605173573736809360000000876228186122108577_);">
		<path class="st92" d="M351.99,135.07l3.21,91.4c0.13,3.64,3.12,6.53,6.76,6.53h157.49c3.67,0,6.67-2.93,6.76-6.6l2.2-92.47
			c0.09-3.82-2.99-6.95-6.81-6.93l-162.9,1.07C354.89,128.09,351.86,131.26,351.99,135.07z"/>
		<g>
			<path class="st93" d="M519.9,233h-158.4c-3.8,0-6.89-2.98-7.02-6.78l-3.23-91.95c-0.07-1.91,0.63-3.73,1.95-5.11
				c1.33-1.38,3.11-2.15,5.02-2.16l163.84-1.08c1.9,0.01,3.71,0.73,5.06,2.1c1.34,1.37,2.06,3.18,2.01,5.09l-2.22,93.02
				C526.83,229.99,523.75,233,519.9,233z M525.18,127.77c-0.94-0.54-2.03-0.77-3.11-0.77h-0.05l-163.54,1.07
				c-1.4,0.01-2.81,0.38-3.94,1.21c-1.82,1.33-2.8,3.36-2.72,5.54l3.22,91.88c0.12,3.53,2.99,6.29,6.52,6.29h158.28
				c3.51,0,6.43-2.86,6.52-6.37l2.22-92.96C528.64,131.27,527.4,129.05,525.18,127.77z"/>
		</g>
		
			<linearGradient id="SVGID_00000003092481723620855840000004124152241334597818_" gradientUnits="userSpaceOnUse" x1="351.7959" y1="132.4998" x2="528.8654" y2="132.4998">
			<stop  offset="0" style="stop-color:#9D68C2"/>
			<stop  offset="1" style="stop-color:#AEC2FF"/>
		</linearGradient>
		<path style="opacity:0.6;fill:url(#SVGID_00000003092481723620855840000004124152241334597818_);" d="M351.89,139h176.66l0.3-5.16
			c0.24-4.28-3.18-7.87-7.46-7.84l-163.51,1.32c-3.41,0.03-6.15,2.91-6.08,6.4L351.89,139z"/>
		
			<linearGradient id="SVGID_00000065075073877920178030000006136462677275751867_" gradientUnits="userSpaceOnUse" x1="388" y1="200" x2="388" y2="147">
			<stop  offset="0" style="stop-color:#CCEDFF"/>
			<stop  offset="1" style="stop-color:#9D68C2"/>
		</linearGradient>
		<polygon style="opacity:0.3;fill:url(#SVGID_00000065075073877920178030000006136462677275751867_);" points="361,147.28 361,200 
			415,200 415,147 		"/>
		
			<linearGradient id="SVGID_00000015351074435759973360000012093469948380374148_" gradientUnits="userSpaceOnUse" x1="479" y1="174" x2="479" y2="150">
			<stop  offset="0" style="stop-color:#CCEDFF"/>
			<stop  offset="1" style="stop-color:#9D68C2"/>
		</linearGradient>
		
			<rect x="467" y="150" style="opacity:0.3;fill:url(#SVGID_00000015351074435759973360000012093469948380374148_);" width="24" height="24"/>
		
			<linearGradient id="SVGID_00000147199656684520603740000012235631301158929853_" gradientUnits="userSpaceOnUse" x1="507" y1="174" x2="507" y2="150">
			<stop  offset="0" style="stop-color:#CCEDFF"/>
			<stop  offset="1" style="stop-color:#9D68C2"/>
		</linearGradient>
		
			<rect x="495" y="150" style="opacity:0.3;fill:url(#SVGID_00000147199656684520603740000012235631301158929853_);" width="24" height="24"/>
		
			<linearGradient id="SVGID_00000176741767827554688330000017653581403093787308_" gradientUnits="userSpaceOnUse" x1="451" y1="174" x2="451" y2="150">
			<stop  offset="0" style="stop-color:#CCEDFF"/>
			<stop  offset="1" style="stop-color:#9D68C2"/>
		</linearGradient>
		
			<rect x="439" y="150" style="opacity:0.3;fill:url(#SVGID_00000176741767827554688330000017653581403093787308_);" width="24" height="24"/>
		<rect x="458" y="187" class="st99" width="60" height="6"/>
		<rect x="443" y="196" class="st99" width="75" height="2"/>
		<rect x="444" y="177" class="st99" width="14" height="2"/>
		<rect x="472" y="177" class="st99" width="14" height="2"/>
		<rect x="500" y="177" class="st99" width="14" height="2"/>
		<rect x="439" y="199" class="st99" width="24" height="2"/>
		<rect x="443" y="202" class="st99" width="75" height="2"/>
		<rect x="439" y="204" class="st99" width="79" height="2"/>
		<rect x="439" y="207" class="st99" width="79" height="2"/>
		<rect x="443" y="219" class="st99" width="75" height="2"/>
		<rect x="439" y="221" class="st99" width="79" height="2"/>
		<rect x="439" y="224" class="st99" width="79" height="2"/>
		<rect x="439" y="210" class="st99" width="76" height="2"/>
		<rect x="443" y="213" class="st99" width="75" height="2"/>
		<rect x="439" y="216" class="st99" width="64" height="2"/>
		<g>
			<path class="st100" d="M375.93,189.17c-8.48,0-15.38-6.9-15.38-15.38c0-8.48,6.9-15.38,15.38-15.38c8.48,0,15.38,6.9,15.38,15.38
				C391.31,182.27,384.41,189.17,375.93,189.17z M375.93,159.4c-7.93,0-14.38,6.45-14.38,14.38c0,7.93,6.45,14.38,14.38,14.38
				c7.93,0,14.38-6.45,14.38-14.38C390.31,165.85,383.86,159.4,375.93,159.4z"/>
		</g>
		<circle class="st11" cx="375.5" cy="173.5" r="8.5"/>
		<g>
			<path class="st100" d="M414.85,161.8c-8.48,0-15.38-6.9-15.38-15.38c0-8.48,6.9-15.38,15.38-15.38c8.48,0,15.38,6.9,15.38,15.38
				C430.24,154.9,423.33,161.8,414.85,161.8z M414.85,132.03c-7.93,0-14.38,6.45-14.38,14.38c0,7.93,6.45,14.38,14.38,14.38
				c7.93,0,14.38-6.45,14.38-14.38C429.24,138.49,422.78,132.03,414.85,132.03z"/>
		</g>
		<ellipse transform="matrix(0.4086 -0.9127 0.9127 0.4086 112.1904 465.1353)" class="st11" cx="415" cy="146" rx="8" ry="8"/>
		<g>
			<polygon class="st11" points="358.08,132.08 359.21,130.38 365.29,135.7 364.35,137 			"/>
			<polygon class="st11" points="365.44,132.08 364.32,130.38 358.24,135.7 359.17,137 			"/>
		</g>
		<rect x="470" y="131" class="st11" width="54" height="3"/>
	</g>
	<g style="clip-path:url(#SVGID_00000112605173573736809360000000876228186122108577_);">
		
			<linearGradient id="SVGID_00000083052464808408381410000018084356195382518161_" gradientUnits="userSpaceOnUse" x1="197.1889" y1="116.2412" x2="197.1889" y2="91.6192">
			<stop  offset="0" style="stop-color:#D93DE3"/>
			<stop  offset="1" style="stop-color:#FF6DBA"/>
		</linearGradient>
		<polygon style="fill:url(#SVGID_00000083052464808408381410000018084356195382518161_);" points="183,92.38 183,116 211,116.24 
			211.38,91.62 		"/>
		
			<linearGradient id="SVGID_00000139982035525790272950000009413043364990516881_" gradientUnits="userSpaceOnUse" x1="213.1127" y1="116.0225" x2="213.1127" y2="91.4005">
			<stop  offset="0" style="stop-color:#A242EA"/>
			<stop  offset="1" style="stop-color:#FE117E"/>
		</linearGradient>
		<polygon style="fill:url(#SVGID_00000139982035525790272950000009413043364990516881_);" points="212.38,91.4 214.23,94.5 
			213.3,116 212,116.02 		"/>
		<polygon class="st11" points="188.4,100.1 191.01,96.31 205.11,108.15 202.95,111.04 		"/>
		<polygon class="st11" points="205.48,100.1 202.87,96.31 188.76,108.15 190.92,111.04 		"/>
	</g>
	<g style="clip-path:url(#SVGID_00000112605173573736809360000000876228186122108577_);">
		
			<linearGradient id="SVGID_00000070091949957066591000000014151838545141919402_" gradientUnits="userSpaceOnUse" x1="193.4077" y1="375.1801" x2="206.7022" y2="269.3285">
			<stop  offset="0" style="stop-color:#067EFF"/>
			<stop  offset="1" style="stop-color:#3E37A0"/>
		</linearGradient>
		<path style="opacity:0.81;fill:url(#SVGID_00000070091949957066591000000014151838545141919402_);" d="M249.19,370h-96.52
			c-4.3,0-7.82-3.44-7.92-7.74l-1.8-79.16c-0.1-4.44,3.47-8.1,7.92-8.1h100.49c4.46,0,8.04,3.68,7.92,8.14l-2.17,79.16
			C256.98,366.59,253.47,370,249.19,370z"/>
		<g>
			<path class="st104" d="M249.45,371h-97.08c-4.39,0-8.07-3.59-8.17-7.98l-1.81-79.63c-0.06-2.84,1.31-5.49,3.8-7.12
				c1.35-0.88,2.96-1.27,4.58-1.27H251.4c1.87,0,3.73,0.53,5.21,1.68c2.14,1.66,3.3,4.12,3.22,6.75l-2.18,79.6
				C257.52,367.5,253.92,371,249.45,371z M150.59,275c-2.67,0-5.13,1.35-6.6,3.72c-0.8,1.28-1.12,2.81-1.09,4.32l1.81,79.43
				c0.09,4.15,3.55,7.52,7.7,7.52h97.08c4.15,0,7.55-3.31,7.67-7.46l2.18-79.63c0.07-2.68-1.21-5.17-3.56-6.71
				c-1.27-0.83-2.79-1.2-4.31-1.2L150.59,275z"/>
		</g>
		<g>
			<rect x="169" y="291" class="st11" width="51" height="2"/>
			<rect x="169" y="297" class="st11" width="25" height="2"/>
			<rect x="169" y="301" class="st11" width="25" height="2"/>
			<rect x="197" y="301" class="st11" width="20" height="2"/>
			<rect x="169" y="305" class="st11" width="41" height="2"/>
			<rect x="169" y="310" class="st11" width="15" height="2"/>
			<rect x="187" y="323" class="st11" width="25" height="2"/>
			<rect x="169" y="314" class="st11" width="46" height="2"/>
			<rect x="169" y="319" class="st11" width="35" height="2"/>
			<rect x="169" y="323" class="st11" width="17" height="2"/>
			<rect x="169" y="328" class="st11" width="25" height="2"/>
			<rect x="169" y="332" class="st11" width="7" height="2"/>
			<rect x="179" y="332" class="st11" width="26" height="2"/>
			<rect x="187" y="336" class="st11" width="25" height="2"/>
			<rect x="169" y="336" class="st11" width="17" height="2"/>
			<rect x="169" y="341" class="st11" width="25" height="2"/>
			<rect x="169" y="345" class="st11" width="7" height="2"/>
			<rect x="179" y="345" class="st11" width="26" height="2"/>
		</g>
	</g>
	
		<linearGradient id="SVGID_00000036964492257980196470000013025246238121893293_" gradientUnits="userSpaceOnUse" x1="504.249" y1="113.3083" x2="504.249" y2="104.3711">
		<stop  offset="0" style="stop-color:#459FFF"/>
		<stop  offset="1" style="stop-color:#A96DFF"/>
	</linearGradient>
	
		<path style="clip-path:url(#SVGID_00000112605173573736809360000000876228186122108577_);fill:url(#SVGID_00000036964492257980196470000013025246238121893293_);" d="
		M508.72,108.84c0,2.47-2,4.47-4.47,4.47c-2.47,0-4.47-2-4.47-4.47s2-4.47,4.47-4.47C506.72,104.37,508.72,106.37,508.72,108.84z"/>
	
		<linearGradient id="SVGID_00000075861422485138403790000014046358984308233613_" gradientUnits="userSpaceOnUse" x1="84.2557" y1="218.0383" x2="84.2557" y2="206.915">
		<stop  offset="0" style="stop-color:#459FFF"/>
		<stop  offset="1" style="stop-color:#A96DFF"/>
	</linearGradient>
	
		<path style="clip-path:url(#SVGID_00000112605173573736809360000000876228186122108577_);fill:url(#SVGID_00000075861422485138403790000014046358984308233613_);" d="
		M89.82,212.48c0,3.07-2.49,5.56-5.56,5.56s-5.56-2.49-5.56-5.56s2.49-5.56,5.56-5.56S89.82,209.41,89.82,212.48z"/>
	
		<linearGradient id="SVGID_00000116943533100539932920000012937017305143893159_" gradientUnits="userSpaceOnUse" x1="517.5" y1="113" x2="517.5" y2="104">
		<stop  offset="0" style="stop-color:#B31A8F"/>
		<stop  offset="1" style="stop-color:#FE117E"/>
	</linearGradient>
	
		<circle style="clip-path:url(#SVGID_00000112605173573736809360000000876228186122108577_);fill:url(#SVGID_00000116943533100539932920000012937017305143893159_);" cx="517.5" cy="108.5" r="4.5"/>
	
		<linearGradient id="SVGID_00000095334400323732552680000017035897899208456890_" gradientUnits="userSpaceOnUse" x1="229" y1="143" x2="229" y2="137">
		<stop  offset="0" style="stop-color:#B31A8F"/>
		<stop  offset="1" style="stop-color:#FE117E"/>
	</linearGradient>
	
		<circle style="clip-path:url(#SVGID_00000112605173573736809360000000876228186122108577_);fill:url(#SVGID_00000095334400323732552680000017035897899208456890_);" cx="229" cy="140" r="3"/>
	
		<linearGradient id="SVGID_00000090989514658785986160000016837542152241529522_" gradientUnits="userSpaceOnUse" x1="441" y1="282" x2="441" y2="276">
		<stop  offset="0" style="stop-color:#8642A0"/>
		<stop  offset="1" style="stop-color:#6456C0"/>
	</linearGradient>
	
		<circle style="clip-path:url(#SVGID_00000112605173573736809360000000876228186122108577_);fill:url(#SVGID_00000090989514658785986160000016837542152241529522_);" cx="441" cy="279" r="3"/>
	
		<linearGradient id="SVGID_00000014625840375066482400000005426830984207065533_" gradientUnits="userSpaceOnUse" x1="112" y1="314" x2="112" y2="308">
		<stop  offset="0" style="stop-color:#8642A0"/>
		<stop  offset="1" style="stop-color:#6456C0"/>
	</linearGradient>
	
		<circle style="clip-path:url(#SVGID_00000112605173573736809360000000876228186122108577_);fill:url(#SVGID_00000014625840375066482400000005426830984207065533_);" cx="112" cy="311" r="3"/>
	<g style="clip-path:url(#SVGID_00000112605173573736809360000000876228186122108577_);">
		
			<linearGradient id="SVGID_00000135649661659219093640000012424820393017289407_" gradientUnits="userSpaceOnUse" x1="136.0431" y1="283" x2="136.0431" y2="236">
			<stop  offset="0" style="stop-color:#D906E3"/>
			<stop  offset="1" style="stop-color:#FF6DF9"/>
		</linearGradient>
		<path style="opacity:0.73;fill:url(#SVGID_00000135649661659219093640000012424820393017289407_);" d="M160.72,283h-49.25
			c-3.93,0-7.15-3.11-7.28-7.04l-1.09-32.43c-0.14-4.12,3.16-7.53,7.28-7.53h51.34c4.11,0,7.41,3.4,7.28,7.51L168,275.94
			C167.88,279.87,164.66,283,160.72,283z"/>
		<g>
			<path class="st112" d="M160.41,283h-48.63c-4.07,0-7.37-3.19-7.5-7.25l-1.07-31.75c-0.06-1.73,0.38-3.48,1.4-4.88
				c1.46-2,3.68-3.11,6.09-3.11l50.46,0c1.73,0,3.45,0.49,4.82,1.56c1.94,1.52,2.99,3.77,2.91,6.17l-0.98,31.99
				C167.79,279.8,164.49,283,160.41,283z M110.7,236c-2.25,0-4.32,1.04-5.68,2.9c-0.96,1.3-1.37,2.93-1.31,4.55l1.07,31.75
				c0.13,3.79,3.24,6.8,7.03,6.8h48.6c3.81,0,6.89-2.98,7-6.79l0.97-31.77c0.05-1.61-0.36-3.24-1.32-4.54
				c-1.37-1.86-3.44-2.9-5.68-2.9H110.7z"/>
		</g>
		<g>
			<polygon class="st11" points="124.78,247.64 112.75,261.59 125,271.99 125,266.62 117.91,260.48 124.49,253.04 			"/>
		</g>
		<g>
			<polygon class="st11" points="146.22,248.27 158.25,262.21 146,272.61 146,267.25 153.09,261.11 145.2,252.76 			"/>
		</g>
		<g>
			<polygon class="st11" points="127.36,272 137.8,249 142.7,249 130.88,272 			"/>
		</g>
	</g>
	<g style="clip-path:url(#SVGID_00000112605173573736809360000000876228186122108577_);">
		
			<linearGradient id="SVGID_00000183210809471142158580000007844668905916402584_" gradientUnits="userSpaceOnUse" x1="458.2341" y1="349" x2="458.2341" y2="291">
			<stop  offset="0" style="stop-color:#D906E3"/>
			<stop  offset="1" style="stop-color:#FF6DF9"/>
		</linearGradient>
		<path style="opacity:0.73;fill:url(#SVGID_00000183210809471142158580000007844668905916402584_);" d="M488.57,349h-60.54
			c-4.91,0-8.94-3.89-9.11-8.8l-1.34-39.78c-0.17-5.15,3.95-9.42,9.11-9.42h63.1c5.14,0,9.26,4.25,9.11,9.39l-1.22,39.78
			C497.53,345.09,493.49,349,488.57,349z"/>
		<g>
			<path class="st112" d="M488.89,349h-61.18c-5.09,0-9.2-3.98-9.38-9.06l-1.36-40.24c-0.1-2.92,1.13-5.66,3.42-7.57
				c1.73-1.44,3.96-2.13,6.21-2.13h63.3c1.99,0,3.98,0.53,5.59,1.69c2.65,1.9,4.09,4.84,4,7.98l-1.23,40.24
				C498.11,345.01,493.99,349,488.89,349z M426.55,291c-1.89,0-3.78,0.5-5.31,1.61c-2.51,1.81-3.87,4.59-3.77,7.57l1.36,40.24
				c0.16,4.81,4.06,8.58,8.87,8.58h61.2c4.79,0,8.71-3.8,8.86-8.59l1.23-40.26c0.09-2.98-1.27-5.76-3.79-7.56
				c-1.53-1.09-3.41-1.59-5.29-1.59L426.55,291z"/>
		</g>
		<rect x="430" y="297" class="st99" width="56" height="33"/>
		<polygon class="st11" points="453,305.15 453,321.88 467.29,312.75 		"/>
		<rect x="430" y="336" class="st99" width="56" height="3"/>
		<rect x="430" y="336" class="st11" width="14" height="3"/>
	</g>
	<g style="clip-path:url(#SVGID_00000112605173573736809360000000876228186122108577_);">
		<g>
			
				<linearGradient id="SVGID_00000096749595555207278370000016177749825010686901_" gradientUnits="userSpaceOnUse" x1="404.3205" y1="275.2039" x2="399.3466" y2="232.5129" gradientTransform="matrix(0.9656 0.26 -0.26 0.9656 63.6333 -54.681)">
				<stop  offset="0" style="stop-color:#1852A0"/>
				<stop  offset="1" style="stop-color:#067ED3"/>
			</linearGradient>
			<path style="fill-rule:evenodd;clip-rule:evenodd;fill:url(#SVGID_00000096749595555207278370000016177749825010686901_);" d="
				M388.58,286.42l-2.92,8.35C387.28,290.15,389.6,287.16,388.58,286.42z M385.67,294.76l-2.92,8.35
				C383.48,302.89,384.05,299.38,385.67,294.76z M388.58,286.42l-2.92,8.35C387.28,290.15,389.6,287.16,388.58,286.42z
				 M385.67,294.76l-2.92,8.35C383.48,302.89,384.05,299.38,385.67,294.76z M394.09,302l2.83,1.61l3.06-8.35l-3.28-0.55
				c0.06-0.31,0.12-0.62,0.16-0.93c0.24-1.43,0.32-2.83,0.28-4.16l3.43-2.15l-1.56-7.36l-3.29,3.14c-0.46-0.94-1.02-1.76-1.68-2.45
				c-0.18-0.2-0.37-0.38-0.57-0.55l2.01-4.64l-5.35-1.74l0,0l-1.28,4.68c-1.2,0-2.41,0.3-3.62,0.85l-0.59-4.42l-5.89,4.46l1.36,3.92
				c-1.06,1.21-2.03,2.61-2.87,4.18l-2.84-1.6l-3.06,8.35l3.28,0.55c-0.35,1.76-0.48,3.47-0.43,5.09l-3.43,2.15l1.56,7.36l3.29-3.14
				c0.59,1.2,1.34,2.22,2.25,3l-2.01,4.65l5.26,2.05l0.81-2.96l0.55-2.02c1.2,0,2.42-0.3,3.63-0.84l0.58,4.42l5.89-4.46l-1.36-3.92
				c0.83-0.95,1.61-2.02,2.32-3.2C393.73,302.66,393.91,302.33,394.09,302z M385.67,294.76c-1.62,4.61,0,9.37-2.92,8.35
				c-2.93-1.03-4-5.6-2.38-10.2c1.62-4.61,5.3-7.51,8.22-6.49C391.52,287.44,387.28,290.15,385.67,294.76z M388.58,286.42
				l-2.92,8.35C387.28,290.15,389.6,287.16,388.58,286.42z M385.67,294.76l-2.92,8.35C383.48,302.89,384.05,299.38,385.67,294.76z"
				/>
		</g>
		
			<linearGradient id="SVGID_00000158737402570035374990000010343378866195065535_" gradientUnits="userSpaceOnUse" x1="399.4991" y1="275.3656" x2="399.4991" y2="231.6211" gradientTransform="matrix(0.9656 0.26 -0.26 0.9656 63.6333 -54.681)">
			<stop  offset="0" style="stop-color:#1852A0"/>
			<stop  offset="1" style="stop-color:#067ED3"/>
		</linearGradient>
		<path style="fill-rule:evenodd;clip-rule:evenodd;fill:url(#SVGID_00000158737402570035374990000010343378866195065535_);" d="
			M396.93,303.6l3.06-8.35l-3.12-1.48l-0.5-0.24l0.33-4.6l3.46-1.69l-1.14-7.14l-7.55-2.46l1.39,3.31l2.63-5.36l-5.35-1.74
			l-2.2-0.72l-5.27-2.05l-0.98,3.6l-4.59-2.18l-5.89,4.46l1.79,4.82l-5.51,15.26l-2.72,9.91l5.23,0.57l-1.7,3.93l5.27,2.05
			l7.54,2.46l-1.21-2.42l-0.76-1.45l2.79,0.91l4.76,1.55l5.89-4.46l-3.64-4.29l4.6-2.83L396.93,303.6z M380.36,292.91
			c1.62-4.61,5.3-7.51,8.22-6.49l-2.92,8.35l-2.92,8.35C379.81,302.08,378.74,297.51,380.36,292.91z"/>
		<g>
			
				<linearGradient id="SVGID_00000160174745343883962180000011015929645212569473_" gradientUnits="userSpaceOnUse" x1="361.9373" y1="289.2716" x2="358.72" y2="261.6577" gradientTransform="matrix(0.9438 0.3306 -0.5202 1.4851 181.3359 -235.9143)">
				<stop  offset="0" style="stop-color:#188DC1"/>
				<stop  offset="1" style="stop-color:#06BFE7"/>
			</linearGradient>
			<path style="fill-rule:evenodd;clip-rule:evenodd;fill:url(#SVGID_00000160174745343883962180000011015929645212569473_);" d="
				M389.38,301.14l3.06-8.35l-3.28-0.55c0.35-1.76,0.48-3.47,0.44-5.08l3.43-2.15l-1.56-7.36l-3.29,3.14c-0.58-1.2-1.34-2.22-2.25-3
				l2.01-4.64l-5.27-2.05l-1.36,4.99c-1.2,0.01-2.42,0.3-3.62,0.84l-0.58-4.42l-5.89,4.45l1.36,3.92c-1.06,1.21-2.03,2.62-2.87,4.19
				l-2.84-1.6l-3.06,8.35l3.28,0.55c-0.35,1.76-0.48,3.47-0.44,5.08l-3.43,2.15l1.56,7.36l3.29-3.14c0.58,1.2,1.34,2.22,2.25,3
				l-2.01,4.64l5.27,2.05l1.36-4.99c1.2-0.01,2.42-0.3,3.62-0.84l0.58,4.42l5.89-4.45l-1.36-3.92c1.06-1.21,2.03-2.62,2.87-4.19
				L389.38,301.14z M375.19,300.65c-2.93-1.03-3.99-5.59-2.38-10.2c1.61-4.61,5.3-7.51,8.23-6.49c2.93,1.03,3.99,5.59,2.38,10.2
				C381.81,298.77,378.12,301.67,375.19,300.65z"/>
		</g>
		<polygon class="st117" points="400.57,287.46 393.03,285.01 389.6,287.16 397.14,289.61 		"/>
		<polygon class="st118" points="392.58,310.1 385.03,307.64 383.67,303.73 391.22,306.19 		"/>
		<polygon class="st117" points="385.92,277.79 390.06,278.99 391.46,277.65 394.21,278.54 395.48,275.6 387.94,273.15 		"/>
		<path class="st117" d="M374.93,308.53l3.95,1.64l-0.33-2.49C378.56,307.68,376.43,308.81,374.93,308.53z"/>
		<path class="st117" d="M375.54,285.9l6.65,3.52c0,0,0.96-1.29,1.71-1.81C383.91,287.61,382.17,280.27,375.54,285.9z"/>
	</g>
	<polygon style="clip-path:url(#SVGID_00000112605173573736809360000000876228186122108577_);fill:#FF1D9C;" points="222.79,36.96 
		229.2,49.81 224.92,51.76 218.92,39.96 	"/>
	<polygon style="clip-path:url(#SVGID_00000112605173573736809360000000876228186122108577_);fill:#6877FF;" points="78.34,336.3 
		84.28,342.82 86.61,340.13 81,333.96 	"/>
	<polygon style="clip-path:url(#SVGID_00000112605173573736809360000000876228186122108577_);fill:#4F31E0;" points="380.11,115.37 
		374.13,119 371.74,114.45 378.28,110.64 	"/>
	<polygon style="clip-path:url(#SVGID_00000112605173573736809360000000876228186122108577_);fill:#4F31E0;" points="409.56,345.08 
		400.99,351.17 398.59,346.63 406.91,341.77 	"/>
	<g style="clip-path:url(#SVGID_00000112605173573736809360000000876228186122108577_);">
		
			<linearGradient id="SVGID_00000157282068543104972670000017181863876732521615_" gradientUnits="userSpaceOnUse" x1="412.2667" y1="87.9469" x2="423.7461" y2="45.3144">
			<stop  offset="0" style="stop-color:#188DC1"/>
			<stop  offset="1" style="stop-color:#06BFE7"/>
		</linearGradient>
		
			<polygon style="fill-rule:evenodd;clip-rule:evenodd;fill:url(#SVGID_00000157282068543104972670000017181863876732521615_);" points="
			397.97,84.1 396.5,50 441.15,50 439.31,84 		"/>
		
			<linearGradient id="SVGID_00000080889879195680094500000016617401580197945005_" gradientUnits="userSpaceOnUse" x1="392.8735" y1="82.9455" x2="401.3237" y2="51.5632">
			<stop  offset="0" style="stop-color:#1852A0"/>
			<stop  offset="1" style="stop-color:#067ED3"/>
		</linearGradient>
		
			<polygon style="fill-rule:evenodd;clip-rule:evenodd;fill:url(#SVGID_00000080889879195680094500000016617401580197945005_);" points="
			396.79,50.34 395.47,52.33 396.79,84 398.24,84 		"/>
		<polygon class="st11" points="411,57.36 404.08,56.62 405.03,79.68 411,79.1 411,76.71 407.54,76.79 407.15,59.01 411,59.12 		"/>
		<polygon class="st11" points="426,57.36 432.92,56.62 431.97,79.68 426,79.1 426,76.71 429.46,76.79 429.85,59.01 426,59.12 		"/>
	</g>
	<g style="clip-path:url(#SVGID_00000112605173573736809360000000876228186122108577_);">
		
			<linearGradient id="SVGID_00000088842830154810264070000017109013279028868758_" gradientUnits="userSpaceOnUse" x1="121.9013" y1="160.6699" x2="129.6667" y2="131.8304" gradientTransform="matrix(-1 0 0 1 206.6559 0)">
			<stop  offset="0" style="stop-color:#188DC1"/>
			<stop  offset="1" style="stop-color:#06BFE7"/>
		</linearGradient>
		
			<polygon style="fill-rule:evenodd;clip-rule:evenodd;fill:url(#SVGID_00000088842830154810264070000017109013279028868758_);" points="
			94.43,158.07 95.42,135 65.22,135 66.46,158 		"/>
		
			<linearGradient id="SVGID_00000125575506414736686580000013984228991475370904_" gradientUnits="userSpaceOnUse" x1="108.646" y1="157.2812" x2="114.4067" y2="135.8871" gradientTransform="matrix(-1 0 0 1 206.6559 0)">
			<stop  offset="0" style="stop-color:#1852A0"/>
			<stop  offset="1" style="stop-color:#067ED3"/>
		</linearGradient>
		
			<polygon style="fill-rule:evenodd;clip-rule:evenodd;fill:url(#SVGID_00000125575506414736686580000013984228991475370904_);" points="
			95.34,135.05 96.24,136.41 95.34,158 94.35,158 		"/>
		<path class="st11" d="M84,139.65c-0.23,0,3.06-0.13,3.64,0.14c0.58,0.27-0.15,5.64-0.15,5.64l1.31,1.21l-1.23,1.19
			c0,0,0.06,5.44-0.71,5.89c-0.78,0.45-3.42,0-2.87,0v-1.36c-0.56,0,1.61,0.14,1.96-0.15c0.36-0.29,0.32-5.04,0.32-5.04l0.58-0.64
			l-0.58-0.69c0,0,0.11-3.39,0.04-4.32c-0.04-0.62-2.56-0.65-2.33-0.65V139.65z"/>
		<path class="st11" d="M76,139.65c0.22,0-3.07-0.13-3.65,0.14c-0.58,0.27,0.15,5.64,0.15,5.64l-1.31,1.21l1.23,1.19
			c0,0-0.06,5.44,0.71,5.89c0.77,0.45,3.42,0,2.88,0v-1.36c0.54,0-1.62,0.14-1.97-0.15s-0.32-5.04-0.32-5.04l-0.58-0.64l0.58-0.69
			c0,0-0.11-3.39-0.04-4.32c0.04-0.62,2.56-0.65,2.34-0.65V139.65z"/>
	</g>
	<g style="clip-path:url(#SVGID_00000112605173573736809360000000876228186122108577_);">
		<g>
			<path class="st93" d="M347.86,87.33l-7.36-19.27l19.09,3.99L347.86,87.33z M341.29,68.74l6.72,17.58l10.7-13.94L341.29,68.74z"/>
		</g>
		<g>
			
				<rect x="398.19" y="355.71" transform="matrix(0.5912 -0.8065 0.8065 0.5912 -122.0756 471.0798)" class="st93" width="10.94" height="0.5"/>
		</g>
		<g>
			<polygon class="st93" points="339.92,279.16 332.97,270.51 333.36,270.2 340.31,278.85 			"/>
		</g>
		<g>
			<polygon class="st93" points="125.59,339.88 111.72,329.82 112.01,329.42 125.88,339.48 			"/>
		</g>
		<g>
			
				<rect x="110.23" y="334.4" transform="matrix(0.606 -0.7955 0.7955 0.606 -219.3983 226.3649)" class="st93" width="17.13" height="0.5"/>
		</g>
		<g>
			
				<rect x="98.59" y="184.72" transform="matrix(0.4651 -0.8852 0.8852 0.4651 -115.1451 189.0111)" class="st93" width="0.5" height="10.14"/>
		</g>
		<g>
			<polygon class="st93" points="448.05,71.37 447.68,71.04 458.05,59.21 458.42,59.54 			"/>
		</g>
		<g>
			
				<rect x="248.43" y="99.55" transform="matrix(0.8953 -0.4454 0.4454 0.8953 -20.6279 121.7271)" class="st93" width="0.5" height="10.41"/>
		</g>
		<g>
			
				<rect x="171.13" y="261.73" transform="matrix(0.767 -0.6416 0.6416 0.767 -126.4147 175.8215)" class="st93" width="15.54" height="0.5"/>
		</g>
	</g>
</g>
</svg>
